<svg width="51" height="50" fill="none" xmlns="http://www.w3.org/2000/svg"><path d="M39.61 23.293l.005-13.39L19.807 0 0 9.904v13.119a24.527 24.527 0 0010.938 20.44l8.87 5.911 6.832-4.551a13.458 13.458 0 1012.97-21.531zm-19.802 24.18l-7.99-5.326A22.942 22.942 0 011.584 23.023v-12.14L19.808 1.77l18.222 9.112V23.11c-.263-.015-.523-.04-.792-.04-.268 0-.53.025-.792.04V11.86L19.808 3.542 3.169 11.86v11.162a21.367 21.367 0 009.527 17.804l7.112 4.738 5.183-3.454c.221.484.472.954.749 1.408l-5.932 3.954zm4.59-6.87l-4.59 3.058-6.232-4.152a21.244 21.244 0 01-.9-.642v-7.081h-1.584v5.752a19.794 19.794 0 01-2.377-2.639v-4.604c0-1.09.742-2.04 1.798-2.305l5.373-1.347a3.957 3.957 0 003.13 3.479v3.248H20.6v-3.248a3.956 3.956 0 003.128-3.479l3.527.886a13.4 13.4 0 00-2.857 13.073v.001zm-8.552-23.871h2.19a8.347 8.347 0 003.537-.792h.215l1.981 2.64v3.302l-2.64 1.98h-2.642l-2.641-1.98v-5.15zm-1.519-1.585a3.1 3.1 0 011.697-2.29 8 8 0 015.564-.35l.182.263h1.207c.437 0 .792.355.792.793v2.377l-1.188-1.585h-1.376l-.167.083a6.757 6.757 0 01-3.002.71h-3.709zm7.857 9.904v1.189a2.377 2.377 0 01-4.753 0v-1.19l.528.396h3.697l.528-.396zm1.585-.03v-1.158l1.585-1.189v-9.111a2.377 2.377 0 00-2.377-2.377h-.527c-1.146-.697-4-.838-6.022-.206a4.93 4.93 0 00-3.751 4.96v.792h1.584v5.942l1.585 1.189v1.153l-5.719 1.438a3.954 3.954 0 00-2.996 3.841v2.14a19.786 19.786 0 01-2.377-9.412V12.84l15.054-7.527L34.86 12.84v10.183c0 .09-.005.181-.006.271a13.406 13.406 0 00-6.269 2.937l-4.817-1.21zm13.469 23.403c-6.564 0-11.884-5.321-11.884-11.885s5.32-11.884 11.884-11.884 11.885 5.32 11.885 11.884c-.008 6.56-5.325 11.877-11.885 11.885z" fill="#FFD53E"/><path d="M41.2 13.563h9.507v1.584H41.2v-1.584zm0 3.169h6.338v1.584H41.2v-1.584zm0 3.169h3.169v1.585h-3.17V19.9zM34.32 35.98l-2.8-2.802-4.482 4.482 7.283 7.282 12.325-12.325-4.482-4.48-7.843 7.842zm0 6.722l-5.04-5.042 2.241-2.241 2.8 2.8 7.844-7.843 2.242 2.24L34.32 42.703z" fill="#FFD53E"/></svg>