<svg width="116" height="80" fill="none" xmlns="http://www.w3.org/2000/svg"><path d="M51.957 30.02l-.04-.017-.005-.003-.034-.014-.04-.018-.019-.008-.02-.009-.041-.017-.032-.013-.007-.004-.04-.017-.04-.017-.006-.001-.035-.016-.04-.016-.017-.007-.024-.01-.04-.017-.03-.012-.011-.005-.04-.016-.041-.017-.004-.001-.038-.016-.04-.016-.016-.008-.025-.01-.04-.015-.031-.012-.011-.005-.042-.016-.041-.017h-.001l-.04-.016-.042-.016-.015-.006-.068-.027-.03-.01-.013-.006-.041-.017-.042-.016c.087-2.193.08-4.41-1.618-6.243.666-2.072 1.663-3.622 3.46-4.97-10.793-.56-18.24-8.15-19.639-13.368-1.398 5.218-8.845 12.808-19.64 13.368 1.797 1.348 2.795 2.898 3.46 4.97-1.696 1.833-1.705 4.05-1.618 6.243-5.572 2.136-8.724 5.238-12.3 10.369 1.58-1.004 1.905-1.115 3.75-1.578-.638.862-1.146 2.12-1.351 3.071.443-.294.829-.41 1.349-.536-1.949 5.699-1.166 12.47 1.425 17.704.148-.979.398-1.814.866-2.546 1.48 5.267 3.992 9.618 7.734 13.98.068-1.143.068-2.691.135-3.835 3.79 4.377 6.333 6.042 12.03 9.04l.065.047.066.045.064.045.065.046.065.046.065.045.066.046.064.045.065.046.065.046.066.045.064.045.065.047.065.045.066.045.064.047.065.045.065.045.064.046.067.046.064.045.065.046.065.045.064.046.066.046.065.045.065.045.064.047.066.045.065.045.065.047.065.045.066.045.064.046.065.046.065.045.064.046.066.045.065.046.065.046.064.045.066.045.065.047.065.045.064.045.066.046.065.046.065.045.065.046.064.045.066.046.065.046.065.045.064.045.066.047.065.045.065.045.064.047.065.045.066.045.065.046.064.046.065.045.066.046.065-.046.065-.046.064-.045.066-.046.065-.045.065-.045.064-.047.065-.045.066-.045.065-.047.065-.045.064-.045.066-.046.065-.046.065-.045.064-.046.065-.045.066-.046.065-.046.064-.045.065-.045.066-.047.065-.045.065-.045.064-.046.066-.046.065-.045.065-.046.064-.045.065-.046.066-.046.065-.045.064-.046.065-.046.066-.045.065-.045.064-.047.065-.045.065-.045.066-.046.064-.046.065-.045.065-.046.066-.045.065-.046.064-.046.065-.045.066-.045.065-.047.064-.045.065-.045.065-.047.066-.045.064-.045.065-.046.065-.046.066-.045.065-.046.064-.045.065-.046.065-.046.066-.045.064-.045.065-.047c5.699-2.998 8.241-4.662 12.03-9.04.067 1.144.067 2.692.135 3.835l.06-.07.022-.025.036-.043.045-.052.013-.016.059-.07.008-.01.05-.058.031-.037.027-.031.052-.064.005-.006.058-.069.018-.02.04-.048.038-.047.018-.023.058-.068.004-.005.052-.063.026-.032.03-.038.048-.057.008-.011.056-.07.013-.014.044-.054.034-.042.022-.027.055-.068v-.001l.055-.069.02-.025.035-.044.041-.052.014-.017.055-.07.007-.008.047-.06.029-.035.025-.033.05-.064.005-.006.054-.068.015-.02.039-.05.035-.046.017-.023.054-.069.003-.003.05-.066.053-.069.043-.057.01-.012.052-.069.011-.014.042-.055.03-.042.02-.028.052-.067.001-.002.052-.069.018-.026.033-.044.051-.07.052-.069.006-.008.045-.06.026-.036.024-.034.046-.062.005-.007.05-.07.014-.02.036-.05.033-.045.017-.024.05-.07.002-.002.047-.067.022-.03.028-.04.05-.07.048-.07.01-.013.039-.056.145-.21.016-.024.032-.046.047-.07.048-.07.006-.007.042-.063.023-.035.023-.034.048-.071.046-.07.014-.02.032-.05.031-.046.017-.024a36.35 36.35 0 001.08-1.745h60.506V32.39H56.157a22.42 22.42 0 00-4.2-2.371zm4.379.629H116v34.917H54.49c-1.153 1.855-2.489 3.645-4.022 5.432l-2.473 2.882-.225-3.79-.01-.179c-.98.95-1.944 1.765-2.984 2.53-1.877 1.378-3.967 2.565-6.833 4.076L32.978 80l-4.966-3.483c-2.866-1.51-4.956-2.698-6.833-4.077a28.306 28.306 0 01-2.984-2.529l-.01.18-.224 3.79-2.474-2.883c-1.933-2.253-3.555-4.514-4.89-6.903a34.916 34.916 0 01-1.4-2.789l-.35 2.322-2.17-4.383c-1.415-2.858-2.324-6.142-2.591-9.474a24.578 24.578 0 01.217-5.885l-1.325.878.777-3.594L0 42.813c2.014-4.544 3.318-6.923 7.273-10.37 1.831-1.596 3.86-2.875 6.345-3.933-.007-.836.032-1.678.193-2.52.2-1.035.577-2.041 1.253-2.99a8.184 8.184 0 00-.84-1.597c-.464-.68-1.05-1.288-1.806-1.854l-3.385-2.54 4.226-.22a22.267 22.267 0 0011.399-3.83C30.834 8.754 31.454 5.684 32.978 0c1.523 5.684 2.143 8.754 8.32 12.959a22.267 22.267 0 0011.398 3.83l4.226.22-3.385 2.54a7.799 7.799 0 00-1.806 1.854 8.194 8.194 0 00-.84 1.597c.677.949 1.054 1.955 1.253 2.99.161.842.2 1.684.193 2.52a24.322 24.322 0 013.999 2.139z" fill="#FEFEFE"/><path fill-rule="evenodd" clip-rule="evenodd" d="M32.979 4.955c1.398 5.218 8.845 12.808 19.64 13.368-1.798 1.348-2.796 2.898-3.461 4.97 1.697 1.833 1.704 4.05 1.617 6.243 2.082.799 3.827 1.732 5.383 2.856h58.099V63.82H53.75c-1.23 2.12-2.705 4.148-4.447 6.18-.068-1.144-.068-2.692-.136-3.835-3.788 4.377-6.33 6.041-12.03 9.04l-4.158 2.918-4.16-2.919c-5.698-2.998-8.241-4.662-12.03-9.04-.067 1.144-.067 2.692-.136 3.835-3.741-4.362-6.254-8.713-7.734-13.98-.468.732-.718 1.567-.866 2.546-2.59-5.233-3.373-12.005-1.425-17.704-.52.126-.906.242-1.349.536.205-.951.713-2.209 1.35-3.071-1.843.463-2.17.574-3.748 1.578 3.575-5.13 6.728-8.233 12.3-10.369-.087-2.193-.079-4.41 1.618-6.243-.666-2.072-1.663-3.622-3.46-4.97 10.794-.56 18.242-8.15 19.64-13.368z" fill="#040202"/><path fill-rule="evenodd" clip-rule="evenodd" d="M32.951 63.903c-3.607-2.178-6.471-5.229-7.998-9.849-.195 1.268-.086 2.502.125 3.724-2.85-2.008-4.716-4.535-5.848-7.448l-.449 2.75c-1.87-3.362-3.278-7.196-1.425-14.373l-1.524 1.95-.825-2.075 2.85-5.9h1.449c-.436 2.07-.207 3.856 1.574 4.976-.265 2.13.051 4.084 1.55 5.674-.907 1.321-1.299 2.818-1.075 4.524 1.148-3.389 3.447-4.843 5.999-5.874.783.452 1.81.556 3.048.225.655.656 1.513.774 2.55.774 1.035 0 1.893-.118 2.548-.774 1.237.33 2.266.227 3.049-.225 2.552 1.03 4.85 2.485 5.997 5.874.225-1.706-.167-3.203-1.074-4.524 1.5-1.59 1.816-3.543 1.55-5.674 1.782-1.12 2.01-2.906 1.575-4.976h1.449l2.849 5.9-.825 2.075-1.523-1.95c1.853 7.177.444 11.01-1.425 14.373l-.45-2.75c-1.132 2.913-2.997 5.44-5.849 7.448.213-1.222.322-2.456.126-3.724-1.526 4.62-4.39 7.671-7.998 9.849zm-.027-13.416c-3.465.166-6.574-.393-5.582-4.338l-.774-.123c1.483-1.281 3.521-1.97 6.356-1.935 2.836-.035 4.927.654 6.411 1.935l-.774.123c.991 3.945-2.171 4.504-5.637 4.338z" fill="#FEFEFE"/><path fill-rule="evenodd" clip-rule="evenodd" d="M22.555 33.908l1.925-.825-3-1.075c-.14.884-.282 1.767-.424 2.65 1.404 1.738 2.554 3.449 2.849 5.075a4.195 4.195 0 01-1.424-.701c.013 1.13.292 2.166 1.074 3.025.942-.813 2.094-1.335 3.398-1.65.11-1.27.64-2.275 1.925-2.8.03-.64.225-1.224.525-1.774-2.705.448-5.002-.156-6.848-1.925z" fill="#F9D6C6"/><path fill-rule="evenodd" clip-rule="evenodd" d="M26.906 35.567a.882.882 0 01-.569-1.556c-.65-.049-1.3.051-1.974.232.145.545.466.887.925 1.346.848.284 1.759.41 2.73.382.485-.13.888-.386 1.238-.735-.426-.427-.926-.7-1.544-.912a.883.883 0 01-.806 1.243z" fill="#FEFEFE"/><path fill-rule="evenodd" clip-rule="evenodd" d="M8.313 36.655c1.857-2.193 4.169-3.678 7.158-4.106-1.16 1.93-2.223 3.895-2.884 6.005 1.487 2.618 1.719 4.949 1.459 7.397-.903-.781-2.015-1.028-3.257-.95 5.088 3.755 4.41 9.885 9.668 13.81a4.884 4.884 0 01.136-1.9c1.315 1.468 2.892 2.716 4.75 3.732.916 1.452 2.182 2.778 3.732 4.003l-1.73 1.73v3.563c-5.401-2.492-9.29-6.679-11.704-12.52-.688 1.949-.75 4.012-.441 6.142-3.978-5.005-6.098-10.513-5.734-16.694-1.164 1.988-1.115 4.442-1.086 6.888-1.574-5.145-1.06-10.135 1.663-14.963-.442 0-1.001.254-1.408.492.382-1.39 1.093-3.094 2.154-3.987-.91.283-1.702.802-2.476 1.358z" fill="#DB2819"/><path fill-rule="evenodd" clip-rule="evenodd" d="M32.978 9.793c-1.537 6.632-8.806 5.837-4.838 13.786-1.879-.738-3.202-2.225-4.115-4.268-2.349.8-4.73 1.228-7.2.628.896.902 1.813 1.771 2.3 3.29-.546.716-.747 1.547-.727 2.45 1.754-.449 3.49-.602 5.204-.35-1.956.287-4.792 1.395-5.794 2.364 0 .99.065 1.852.046 3.373 6.887-2.772 23.311-2.77 30.194 0-.02-1.521.047-2.382.047-3.373-1.003-.97-3.838-2.077-5.794-2.364 1.713-.252 3.45-.099 5.203.35.02-.903-.18-1.734-.725-2.45.484-1.519 1.401-2.388 2.299-3.29-2.47.6-4.853.173-7.2-.628-.913 2.043-2.236 3.53-4.116 4.268 3.969-7.95-3.248-7.154-4.784-13.786z" fill="#FCC900"/><path fill-rule="evenodd" clip-rule="evenodd" d="M43.347 33.908c-.642-.274-1.283-.55-1.924-.825l2.999-1.075.425 2.65c-1.404 1.738-2.555 3.449-2.85 5.075a4.188 4.188 0 001.425-.701c-.014 1.13-.292 2.166-1.075 3.025-.941-.813-2.095-1.335-3.4-1.65-.109-1.27-.637-2.275-1.922-2.8-.03-.64-.225-1.224-.525-1.774 2.704.448 5.001-.156 6.847-1.925z" fill="#EEC2B1"/><path fill-rule="evenodd" clip-rule="evenodd" d="M32.951 41.856c1.133 0 1.82-1.966 3.373-1.55-.39.226-.688.509-.899.876 1.268 0 1.942-.587 1.942-1.24 0-.729-.925-1.426-1.407-1.426-.319 0-.535.382-.735.716.184-1.496.074-2.879-.775-3.974.048-.822-.054-1.664-.275-2.55 2.137 1.004 4.245.193 6.348-.975-4.714-.629-10.429-.629-15.143 0 2.102 1.168 4.211 1.979 6.347.975-.22.886-.323 1.728-.275 2.55-.849 1.095-.959 2.478-.774 3.974-.2-.334-.418-.716-.737-.716-.48 0-1.405.697-1.405 1.425 0 .654.674 1.241 1.941 1.241a2.361 2.361 0 00-.9-.876c1.555-.416 2.241 1.55 3.374 1.55z" fill="#EEC2B1"/><path fill-rule="evenodd" clip-rule="evenodd" d="M38.996 35.567a.883.883 0 00.57-1.556c.651-.049 1.3.051 1.975.232-.145.545-.466.887-.926 1.346a7.813 7.813 0 01-2.73.382 2.747 2.747 0 01-1.239-.735c.428-.427.927-.7 1.545-.912a.883.883 0 00.805 1.243z" fill="#FEFEFE"/><path fill-rule="evenodd" clip-rule="evenodd" d="M57.59 36.655c-1.859-2.193-4.169-3.678-7.158-4.106 1.16 1.93 2.222 3.895 2.883 6.005-1.486 2.618-1.718 4.949-1.458 7.397.902-.781 2.015-1.028 3.256-.95-5.089 3.755-4.41 9.885-9.668 13.81a4.884 4.884 0 00-.135-1.9c-1.316 1.468-2.892 2.716-4.75 3.732-.916 1.452-2.182 2.778-3.732 4.003l1.73 1.73v3.563c5.4-2.492 9.289-6.679 11.704-12.52.688 1.949.749 4.012.44 6.142 3.98-5.005 6.099-10.513 5.734-16.694 1.163 1.988 1.115 4.442 1.085 6.888 1.574-5.145 1.061-10.135-1.662-14.963.441 0 1.002.254 1.408.492-.382-1.39-1.093-3.094-2.154-3.987.911.283 1.703.802 2.477 1.358z" fill="#86170C"/><path fill-rule="evenodd" clip-rule="evenodd" d="M32.978 75.133l-3.365-2.766v-4.92l3.365-2.764 3.364 2.765v4.919l-3.364 2.766z" fill="#FCC900"/><path fill-rule="evenodd" clip-rule="evenodd" d="M32.978 22.091l-1.998-1.64v-2.92l1.998-1.641 1.997 1.641v2.92l-1.997 1.64z" fill="#C92112"/><path fill-rule="evenodd" clip-rule="evenodd" d="M32.978 20.831l-1.054-.974v-1.732l1.054-.974 1.054.974v1.732l-1.054.974z" fill="#C92112"/><path fill-rule="evenodd" clip-rule="evenodd" d="M22.431 43.332c-1.5-1.59-1.816-3.543-1.55-5.674-1.782-1.12-2.01-2.906-1.575-4.976h-.447c-.493 2.186-.48 4.413.203 6.69.212-.28.448-.498.73-.594-.078 2.65.57 4.83 1.667 6.713a6.4 6.4 0 01.973-2.16zm9.645 7.181c-2.437.013-4.541-.472-4.873-2.449-.09-.526-.052-1.158.139-1.915-1.064 1.888-1.369 3.958.193 6.48l1.051-.882c.469 2.107 1.41 3.831 3.054 4.988.748-.922 1.515-1.956 2.408-3.156.104 2.898-.567 5.19-1.73 7.092-1.811-.355-3.532-1.296-5.25-2.245 1.547 2.311 3.56 4.075 5.883 5.477a.77.77 0 00.027-.016c1.49-2.27 2.695-4.734 3.462-7.5.38.747.602 1.56.645 2.443 1.693-2.633 2.523-5.578 3.086-8.619.53 1.16.7 2.48.778 3.843.196 1.268.087 2.502-.125 3.724 2.241-2.758 3.935-6.313 5.182-10.519.5.467.755 1.22.984 2.003.07-1.309-.127-2.514-.645-3.596 1.003-3.072.68-6.627.311-10.2-.217.87-.721 1.618-1.633 2.192.814 2.452.48 4.602-1.103 6.421.582 1.132.81 2.385.627 3.777-.844-1.165-1.753-2.264-3.027-2.997.262.809.433 1.617.356 2.426-2.322-2.704-5.315-3.744-8.948-3.194 2.834-.035 4.923.654 6.407 1.935l-.774.123c.19.757.227 1.389.14 1.915-.333 1.977-2.437 2.462-4.874 2.449a23.41 23.41 0 01-.876-.025 23.66 23.66 0 01-.875.025z" fill="#AEA899"/><path fill-rule="evenodd" clip-rule="evenodd" d="M46.345 45.666c.518 1.082.716 2.287.645 3.596-.229-.784-.484-1.536-.984-2.003-1.247 4.206-2.94 7.761-5.183 10.519 2.852-2.008 4.717-4.535 5.85-7.448.148.917.298 1.833.449 2.75 1.869-3.362 3.278-7.196 1.425-14.373l1.524 1.95.824-2.075c-.95-1.966-1.9-3.932-2.849-5.9h-1.45c.213 1.01.268 1.953.06 2.783.37 3.574.691 7.129-.311 10.2zM32.978 63.887c3.595-2.177 6.449-5.224 7.971-9.833-.078-1.363-.248-2.684-.778-3.843-.563 3.04-1.393 5.985-3.086 8.618a5.948 5.948 0 00-.645-2.442c-.767 2.766-1.972 5.23-3.462 7.5z" fill="#5D5B53"/><path fill-rule="evenodd" clip-rule="evenodd" d="M30.38 48.292c1.249-.724 3.893-.724 5.143 0 1.22.214 1.93-.172 2.107-1.18-1.41-1.11-3.014-1.824-4.652-1.84-1.657 0-3.28.718-4.707 1.84.18 1.008.889 1.394 2.109 1.18z" fill="#ECC1B1"/><path fill-rule="evenodd" clip-rule="evenodd" d="M27.203 48.064c.326 1.944 2.368 2.446 4.755 2.449h.119c.249-.932-.303-1.847-1.696-2.22-1.22.213-1.93-.173-2.11-1.18-.37.29-.727.61-1.068.95zm11.497 0c-.325 1.944-2.368 2.446-4.755 2.449h-.118c-.25-.932.303-1.847 1.696-2.22 1.22.213 1.93-.173 2.108-1.18.371.29.73.61 1.07.95z" fill="#795C54"/><path fill-rule="evenodd" clip-rule="evenodd" d="M26.954 40.407c.11-1.27.639-2.275 1.925-2.8.03-.64.225-1.224.525-1.774-1.672.756-3.46 1.058-5.585.048.825 1.708 1.186 3.462 1.104 5.261a9.188 9.188 0 012.031-.735z" fill="#EEC2B1"/><path fill-rule="evenodd" clip-rule="evenodd" d="M41.341 36.665c.136 1.35-.951 2.244-.714 4.307.63.285 1.206.641 1.72 1.085.783-.859 1.062-1.895 1.075-3.026a4.19 4.19 0 01-1.425.702c.296-1.626 1.446-3.337 2.85-5.075l-.424-2.65c-1 .36-2 .717-3 1.075.641.276 1.282.55 1.925.825a6.17 6.17 0 01-2.651 2.282c.11.117.232.259.644.475z" fill="#7B5B52"/><path fill-rule="evenodd" clip-rule="evenodd" d="M25.343 60.643c-1.858-1.016-3.435-2.264-4.75-3.732a4.884 4.884 0 00-.136 1.9c-5.257-3.925-4.58-10.054-9.668-13.81 1.72 3.252 2.925 6.64 3.058 10.334.506-1.344.577-2.784.27-4.31 1.824 5.382 5.043 9.855 10.212 13.063-1.307-1.57-2.368-3.179-2.815-4.885 1.682 2.546 4.06 4.531 6.695 6.31l.865-.867c-1.55-1.225-2.815-2.55-3.731-4.003zM14.046 45.951c.26-2.448.028-4.779-1.46-7.397.502-1.595 1.23-3.106 2.056-4.582-1.348 1.811-3.372 3.224-2.865 6.128a10.87 10.87 0 01-1.526 2.918c1.28.27 1.805 1.175 2.268 2.129.555.148 1.07.407 1.527.804z" fill="#86170C"/><path fill-rule="evenodd" clip-rule="evenodd" d="M45.31 56.91c-1.316 1.469-2.892 2.717-4.75 3.733-.916 1.452-2.182 2.778-3.732 4.003l.852.853c2.627-1.775 4.998-3.756 6.677-6.296-.447 1.706-1.51 3.316-2.816 4.885 5.17-3.208 8.389-7.682 10.21-13.062-.306 1.525-.235 2.965.273 4.31.132-3.68 1.329-7.056 3.037-10.296-5.032 3.758-4.376 9.86-9.616 13.771a4.884 4.884 0 00-.135-1.9zm8.005-18.356c-1.486 2.618-1.718 4.949-1.458 7.397a3.8 3.8 0 011.557-.812c.446-.902 1.011-1.867 2.207-2.121a10.833 10.833 0 01-1.527-2.918c.491-2.819-1.4-4.233-2.745-5.97.79 1.426 1.485 2.886 1.966 4.424z" fill="#DB2819"/><path fill-rule="evenodd" clip-rule="evenodd" d="M37.367 39.941c0-.728-.924-1.425-1.406-1.425-.32 0-.535.382-.736.716.185-1.496.075-2.879-.775-3.974.049-.822-.054-1.664-.275-2.55a2.1 2.1 0 01-1.197-.5c.436.551.952 1.119.952 1.73 0 .626-.3 1.025-.764 1.323.788.456 1.205 1.228 1.205 2.223 0 2.16-.77 3.465-1.65 4.345a.964.964 0 00.23.027c1.134 0 1.82-1.966 3.373-1.55-.39.226-.687.509-.898.876 1.267 0 1.941-.587 1.941-1.24z" fill="#7B5B52"/><path fill-rule="evenodd" clip-rule="evenodd" d="M34.764 32.941c1.936.618 3.85-.148 5.76-1.208-.68-.09-1.381-.168-2.096-.232-1.004.804-2.331 1.393-3.663 1.44z" fill="#795C54"/><path fill-rule="evenodd" clip-rule="evenodd" d="M41.07 24.438c2.163.149 4.064.663 5.997 1.134.145.034.292.07.437.106.02-.902-.18-1.733-.725-2.448.484-1.52 1.401-2.39 2.299-3.29-2.47.6-4.853.172-7.2-.63-.024 1.784-.333 3.48-.808 5.128zm7.025 3.255c-1.003-.97-3.838-2.077-5.794-2.364l-3.776-.086v3.173l-5.6.572c5.836-.003 11.677.691 15.123 2.078-.019-1.521.047-2.382.047-3.373z" fill="#DE9600"/><path fill-rule="evenodd" clip-rule="evenodd" d="M25.14 29.428l-.345-4.04.967-.085.404 4.012a61.59 61.59 0 012.324-.189l-.263-4.17-.035-.554.035.555c3.413-.397 6.888-.574 10.391-.655-3.496-.13-6.974-.132-10.426.1l-.052-.823c-1.879-.738-3.202-2.225-4.115-4.268-.583.199-1.17.375-1.758.517.645 1.771 1.052 3.617 1.335 5.501-1.436.211-3.345.863-4.655 1.58l.148 3.72c1.69-.529 3.767-.928 6.045-1.201z" fill="#FEFEFE"/><path fill-rule="evenodd" clip-rule="evenodd" d="M18.398 25.678a14.302 14.302 0 013.463-.47 35.101 35.101 0 00-1.634-5.033c-1.118.1-2.25.044-3.402-.235.896.9 1.814 1.77 2.3 3.29-.545.715-.747 1.546-.727 2.448z" fill="#FEFEFE"/><path fill-rule="evenodd" clip-rule="evenodd" d="M30.98 17.531v2.92l.945-.594v-1.732l1.053-.974V15.89l-1.998 1.64z" fill="#DB2819"/><path fill-rule="evenodd" clip-rule="evenodd" d="M34.032 19.857l-1.054.974v1.26l1.997-1.64v-2.92l-.943.594v1.732z" fill="#86170C"/><path fill-rule="evenodd" clip-rule="evenodd" d="M32.979 64.683l-3.366 2.765v4.919l1.59-1v-2.919l1.776-1.64v-2.125zm1.775 5.852h-1.46l1.46.832v-.832z" fill="#FFD53E"/><path fill-rule="evenodd" clip-rule="evenodd" d="M33.294 70.535h1.46v-.483l-1.46.483z" fill="#DE9600"/><path fill-rule="evenodd" clip-rule="evenodd" d="M34.754 70.052v1.315l-1.776 1.64v2.126l3.365-2.766v-4.92l-1.59 1.001v1.604z" fill="#DE9600"/><path fill-rule="evenodd" clip-rule="evenodd" d="M32.979 15.89c-.043-2.003.005-4.049 0-6.097-.786 3.392-3.096 4.851-4.597 6.522.567-.376 1.146-.742 1.877-.986.386.527.654 1.223.722 2.202l1.998-1.641z" fill="#FBDE9A"/><path fill-rule="evenodd" clip-rule="evenodd" d="M27.22 16.282c-3.002 1.74-6.218 2.683-9.582 3.087 1.966.044 3.786.006 7.022-1.127.147 1.654 1.352 3.012 2.202 3.856-.84-2.067-1.345-3.779.359-5.816zm11.502 0c3.003 1.74 6.219 2.683 9.583 3.087-1.966.044-3.787.006-7.023-1.127-.146 1.654-1.351 3.012-2.201 3.856.84-2.067 1.344-3.779-.359-5.816z" fill="#C92112"/><path d="M66.677 35.077c.735 0 1.363.145 1.884.437.525.291.926.682 1.203 1.17a3.25 3.25 0 01.417 1.63v2.193c-.356.338-.76.685-1.2 1.044.44.363.844.715 1.2 1.05v3.468c0 .597-.139 1.139-.417 1.627a3.04 3.04 0 01-1.203 1.173c-.521.292-1.149.437-1.884.437h-4.795V35.077h4.795zm-1.888 2.402v3.933a34.08 34.08 0 002.691-2.047v-.13l-.01-.463c-.014-.625-.173-1-.474-1.133-.254-.114-.716-.17-1.394-.17-.132 0-.274.004-.427.01h-.386zm2.691 6.254a44.27 44.27 0 00-.644-.525 100.73 100.73 0 01-2.047 1.441v2.254h.716c.416 0 .765-.014 1.046-.04.282-.028.495-.11.638-.252.142-.142.227-.379.25-.711.028-.332.041-.794.041-1.39v-.777zm13.212-6.521c.023.091.051.225.075.39.024.17.038.31.038.414v8.29a3.22 3.22 0 01-.418 1.624 3.052 3.052 0 01-1.195 1.166c-.523.29-1.154.437-1.896.437h-.983c-.73 0-1.361-.149-1.884-.437a3.004 3.004 0 01-1.195-1.166 3.25 3.25 0 01-.414-1.623v-8.234c0-.594.14-1.136.414-1.62a3.028 3.028 0 011.195-1.17c.522-.29 1.153-.437 1.885-.437h.982c.922 0 1.676.22 2.258.661.579.44.961 1.011 1.138 1.705zm-2.81 2.43c0-.62-.015-1.105-.046-1.447-.032-.346-.126-.586-.275-.722-.149-.135-.4-.203-.75-.203-.351 0-.603.068-.754.203-.153.136-.245.378-.278.722a16.31 16.31 0 00-.048 1.447v5.095c0 .622.015 1.106.048 1.451s.127.583.274.718c.15.138.4.207.759.207.356 0 .61-.069.76-.207.147-.135.237-.373.266-.718.031-.345.044-.828.044-1.45v-5.096zm13.342-2.43c.023.09.052.225.074.39.025.168.038.31.038.414v8.29c0 .595-.14 1.14-.416 1.624a3.064 3.064 0 01-1.197 1.166c-.521.29-1.154.437-1.895.437h-.982c-.731 0-1.362-.149-1.885-.437a3.012 3.012 0 01-1.195-1.166 3.248 3.248 0 01-.414-1.623v-8.234c0-.594.14-1.136.413-1.62a3.03 3.03 0 011.196-1.17c.521-.289 1.153-.437 1.885-.437h.982c.922 0 1.676.22 2.258.661a3.04 3.04 0 011.138 1.705zm-2.809 2.43c0-.62-.017-1.105-.047-1.447-.032-.344-.127-.587-.275-.722-.149-.134-.4-.203-.749-.203-.352 0-.603.068-.755.203-.153.136-.246.378-.279.722-.033.342-.047.83-.047 1.447v5.095c0 .622.014 1.106.047 1.451s.127.583.275.718c.149.137.4.207.76.207.355 0 .609-.07.758-.207.148-.135.238-.373.267-.718.03-.345.045-.828.045-1.45v-5.096zm12.738.974l-2.325-.166v-2.97h-.058c-.156 0-.304-.01-.437-.01-.623 0-1.061.053-1.312.16-.249.105-.384.43-.406.972-.003.083-.015.191-.017.318-.002.125-.008.252-.01.38-.003.127-.004.24-.004.325v.14l5.033 3.602v2.692a3.25 3.25 0 01-.417 1.626c-.276.49-.676.882-1.196 1.174-.517.29-1.148.437-1.881.437h-4.229v-5.074l2.325.17.288 2.5c.243 0 .465.005.663.01.138.005.269.012.387.012.319 0 .588-.022.804-.065.218-.044.368-.188.447-.428.08-.24.118-.64.118-1.196v-.18l-5.032-3.674v-3.058c0-.596.14-1.14.413-1.63a3.014 3.014 0 011.197-1.169c.52-.29 1.152-.437 1.884-.437h4.111l-.346 5.539zm9.786-5.539v2.461l-2.325-.238v12.006h-2.917V37.25l-2.472.288v-2.46h7.714z" fill="#DB2819"/><path d="M69.78 42.567l-.175-.157H62.13v6.648h4.547c.35 0 .673-.035.967-.102a3.063 3.063 0 001.438-.776 2.868 2.868 0 00.755-1.318 3.2 3.2 0 00.095-.794v-3.36l-.153-.14zm5.703-.157h-2.415v3.897c0 .276.033.54.096.79.064.252.159.49.285.712.124.222.28.422.461.6.183.179.396.335.639.47.243.134.51.235.802.302.294.069.615.104.962.104h.983c.353 0 .678-.035.973-.102.295-.069.56-.17.801-.303.24-.133.452-.29.635-.47a2.7 2.7 0 00.467-.602 2.86 2.86 0 00.288-.71 3.18 3.18 0 00.095-.791v-3.898h-2.424v2.328c0 .295-.004.573-.012.837-.007.255-.018.468-.033.635-.017.193-.052.36-.105.503a.955.955 0 01-.243.376.953.953 0 01-.404.213 2 2 0 01-.523.06c-.199 0-.372-.02-.522-.061a.958.958 0 01-.404-.212.97.97 0 01-.246-.377 1.961 1.961 0 01-.107-.5c-.017-.178-.03-.39-.038-.637a30.141 30.141 0 01-.011-.837V42.41zm10.532 0h-2.416v3.897c0 .276.033.54.097.79.063.252.159.49.284.712.125.222.28.422.462.6a3.057 3.057 0 001.44.772c.295.069.616.104.963.104h.983c.353 0 .676-.035.973-.102a2.992 2.992 0 001.437-.773 2.86 2.86 0 00.753-1.312c.064-.248.096-.513.096-.791v-3.898h-2.424v2.328c0 .295-.005.573-.012.837-.007.256-.019.468-.033.635a1.98 1.98 0 01-.105.503.97.97 0 01-.243.376.958.958 0 01-.404.212 1.947 1.947 0 01-.523.062c-.199 0-.372-.021-.523-.063a.958.958 0 01-.404-.21.968.968 0 01-.245-.378 1.965 1.965 0 01-.108-.5 9.857 9.857 0 01-.036-.637 25.957 25.957 0 01-.012-.837V42.41zm13.837 0h-4.118l3.44 2.51v.305c0 .28-.011.528-.032.742a2.634 2.634 0 01-.099.533.94.94 0 01-.237.388.774.774 0 01-.398.204c-.118.023-.249.04-.392.052a5.96 5.96 0 01-.46.017c-.088 0-.216-.004-.354-.01h-.04l-.31-.01h-.567l-.29-2.517-1.853-.136v4.56h3.98c.349 0 .67-.035.964-.104a3.05 3.05 0 00.796-.301 2.818 2.818 0 001.39-1.793c.064-.248.096-.512.096-.791v-2.564l-1.516-1.085zm8.513 0h-2.422v6.648h2.422V42.41zm-41.048.868l.411.34v.892c0 .28-.004.546-.01.8a12 12 0 01-.031.61 1.948 1.948 0 01-.094.488 1 1 0 01-.229.378 1.006 1.006 0 01-.351.225 1.67 1.67 0 01-.439.098 8.432 8.432 0 01-.486.03 15.4 15.4 0 01-.583.013h-.964v-2.635l.109-.073a80.8 80.8 0 00.945-.656c.372-.262.735-.521 1.096-.78l.153-.11.473.38z" fill="#86170C"/><path d="M65.416 61.154l-.921-2.833c-.29.2-.553.38-.782.532v2.3h-1.831v-8.966h1.831v4.62c.377-.271.818-.622 1.327-1.05v-3.57h1.81v4.29c-.237.219-.495.444-.776.675l1.312 4.002h-1.97zm7.043-7.715l-.927-.04v6.447l.927.017v1.29h-3.423l-.545-1.164 1.202-.087V53.4l-.657.033-.545-1.24 3.968-.006v1.252zm5.19-1.252h1.832v8.967h-1.833V56.63l-1.326-1.759v6.283h-1.808v-8.98l1.77.007.045.049 1.32 1.747v-1.79zm6.616 6.019l-.545-1.239 2.804-.006v4.193H83.78c-.46 0-.858-.093-1.184-.276a1.935 1.935 0 01-.755-.74 2.042 2.042 0 01-.262-1.025v-4.886c0-.377.088-.717.262-1.027a1.94 1.94 0 01.755-.737c.326-.184.724-.276 1.184-.276h2.743l-.22 3.49-1.465-.105v-1.834h-.123c-.293 0-.53.012-.715.038-.183.026-.317.074-.403.148a.47.47 0 00-.154.316 4.582 4.582 0 00-.025.545v3.56c.003.538.1.89.288 1.057.184.158.5.237.946.237h.037v-1.452l-.425.019zm9.717-3.98v4.887c0 .376-.088.718-.262 1.026a1.93 1.93 0 01-.756.739c-.331.183-.727.276-1.19.276h-3.027v-8.967h3.027c.463 0 .859.092 1.19.276.328.183.58.429.756.736.174.31.262.653.262 1.028zm-3.397 5.413c.119.004.225.006.321.006.434 0 .834-.045.98-.132.172-.1.257-.372.257-.818v-4.05c0-.447-.085-.72-.256-.82-.147-.087-.547-.13-.98-.13-.097 0-.203.002-.322.006v5.938zm10.213-6.106c.017.057.032.14.046.245.016.107.025.195.025.26v5.225c0 .376-.088.718-.263 1.023a1.924 1.924 0 01-.754.734c-.329.185-.726.276-1.193.276h-.62c-.46 0-.859-.091-1.187-.276a1.873 1.873 0 01-.754-.734 2.039 2.039 0 01-.261-1.023v-5.188c0-.374.088-.716.261-1.02.172-.309.423-.554.754-.737.328-.185.726-.276 1.186-.276h.62c.58 0 1.056.139 1.422.416.365.277.607.636.718 1.075zm-1.77 1.531c0-.39-.012-.697-.03-.912-.022-.217-.08-.37-.173-.455-.094-.086-.252-.128-.473-.128-.22 0-.38.042-.475.128-.096.085-.154.238-.176.455-.02.215-.029.522-.029.912v3.21c0 .393.009.696.03.915.021.217.079.366.173.451.094.088.251.131.477.131.225 0 .385-.043.479-.13.094-.086.15-.235.168-.452.02-.219.029-.522.029-.915v-3.21zm9.669-2.877h2.241v8.967h-1.839V54.07l-1.19 1.307v5.776h-1.838v-5.776l-1.19-1.306v7.082h-1.831v-8.967h2.233l1.706 1.683 1.708-1.683z" fill="#FCC900"/><path d="M64.76 58.235l.858 2.638H67l-1.252-3.817.13-.107h-1.885c-.186.138-.374.272-.56.407v-.407h-1.272v3.924h1.273v-2.168l.49-.331.72-.496.117.357zm6.492-1.286h-1.278v3.213l-1.058.077.297.634h2.966v-.736l-.927-.018v-3.17zm4.79 0h-1.249v3.924h1.25v-3.924zm3.158 0h-1.271v3.924h1.27v-3.924zm3.939 0h-1.278v2.164a1.717 1.717 0 00.225.888c.072.13.164.249.271.354.108.105.233.198.377.278.283.16.635.24 1.047.24h2.462V57.24l-2.095.005.295.673.526-.024v2.025h-.316a2.66 2.66 0 01-.64-.069c-.2-.05-.362-.128-.488-.237l-.003-.002a1.052 1.052 0 01-.297-.525 2.936 2.936 0 01-.085-.74l-.001-1.397zm7.166 0h-1.278v3.924h2.747c.212 0 .406-.021.582-.061a1.79 1.79 0 00.848-.457c.108-.105.2-.223.272-.353a1.748 1.748 0 00.226-.89V56.95h-1.278v1.746c0 .25-.027.458-.078.622-.064.204-.17.349-.317.436-.103.062-.27.106-.47.133-.191.027-.42.039-.653.039-.201-.004-.4-.01-.6-.017v-2.96zm7.086 0h-1.273v2.314c0 .165.018.321.056.468.038.149.094.288.167.417h.001c.073.132.163.25.268.352.107.105.233.197.376.275v.001c.143.08.299.138.471.178.176.042.37.061.581.061h.62c.214 0 .41-.02.587-.06a1.76 1.76 0 00.846-.454c.106-.105.198-.222.272-.353.076-.134.132-.272.17-.416a1.9 1.9 0 00.055-.47V56.95h-1.281v1.325c0 .177-.002.353-.007.53a7.902 7.902 0 01-.021.408 1.333 1.333 0 01-.075.349.706.706 0 01-.185.287.731.731 0 01-.306.161 1.397 1.397 0 01-.36.043 1.39 1.39 0 01-.362-.043.713.713 0 01-.304-.161.715.715 0 01-.187-.285 1.307 1.307 0 01-.076-.348 5.7 5.7 0 01-.024-.41 15.276 15.276 0 01-.009-.531V56.95zm7.21 0h-1.272v3.924h1.272v-3.924zm3.029 0h-1.279v3.924h1.279v-3.924zm3.027 0h-1.279v3.924h1.279v-3.924z" fill="#DE9600"/></svg>