<svg width="51" height="51" fill="none" xmlns="http://www.w3.org/2000/svg"><path d="M37.51 18.34a5 5 0 100 10 5 5 0 000-10zm0 8.333a3.333 3.333 0 110-6.666 3.333 3.333 0 010 6.666zm-17.5 6.649a4.167 4.167 0 10-5.832 5.834v5.85c0 .46.373.834.833.834h3.333c.46 0 .834-.373.834-.834v-5.85a4.167 4.167 0 00.833-5.834zm-2.082 4.668a.833.833 0 00-.417.72v5.463h-1.667V38.71a.833.833 0 00-.416-.72 2.473 2.473 0 01-1.25-2.151 2.5 2.5 0 015 0c0 .89-.477 1.71-1.25 2.15z" fill="#FFD53E"/><path d="M49.868 10.006A2.494 2.494 0 0047.51 8.34a2.494 2.494 0 00-.833 4.847v9.32h-.042a9.175 9.175 0 00-8.291-8.29V11.52a2.5 2.5 0 10-1.667 0v2.696a9.167 9.167 0 00-7.316 13.328.815.815 0 00-.184-.037h-2.5v-3.334a9.99 9.99 0 00-.042-.833h.042v-20h10.987a2.5 2.5 0 100-1.666h-11.82a.833.833 0 00-.833.833v16.15a10 10 0 00-7.5-4.44V2.506a.833.833 0 00-.834-.833H4.857a2.5 2.5 0 100 1.666h10.987v10.876a9.907 9.907 0 00-4.166 1.31v-3.172a2.5 2.5 0 10-1.667 0v4.387a9.983 9.983 0 00-3.183 5.766h-1.97a2.5 2.5 0 100 1.666h1.82v3.334h-2.5a.833.833 0 00-.834.833v20.833c0 .46.373.833.834.833h25c.46 0 .833-.373.833-.833v-20.55a9.134 9.134 0 004.166 3.26v17.291c0 .46.373.833.834.833h10.833c.46 0 .833-.373.833-.833V45.84a.833.833 0 00-.833-.834h-5V43.34h2.5c.46 0 .833-.373.833-.834v-3.333a.833.833 0 00-.833-.833h-2.5v-6.458a9.12 9.12 0 005.792-7.709h.874c.46 0 .834-.373.834-.833V13.187a2.494 2.494 0 001.524-3.181zM40.01 1.674a.833.833 0 110 1.666.833.833 0 010-1.666zM2.511 3.34a.833.833 0 110-1.666.833.833 0 010 1.666zm0 20.833a.833.833 0 110-1.666.833.833 0 010 1.666zm8.333-15a.833.833 0 110 1.667.833.833 0 010-1.666zm-2.5 15a8.333 8.333 0 1116.667 0v3.334h-2.5v-3.334a5.833 5.833 0 10-11.667 0v3.334h-2.5v-3.334zm12.5 0v3.334h-8.333v-3.334a4.167 4.167 0 018.333 0zm7.5 24.167H5.011V29.173h23.333V48.34zm9.167-40a.833.833 0 110 1.667.833.833 0 010-1.667zm7.154 17.251a7.5 7.5 0 01-4.904 4.905.833.833 0 00-.584.795v7.882c0 .46.373.834.834.834h2.5v1.666h-2.5a.833.833 0 00-.834.834v3.333c0 .46.373.833.834.833h5v1.667h-9.167V31.29a.833.833 0 00-.583-.794 7.5 7.5 0 119.404-4.905zm2.845-13.918a.833.833 0 110-1.666.833.833 0 010 1.667z" fill="#FFD53E"/><path d="M31.677 5.007a.833.833 0 00-.589.244l-2.5 2.5a.833.833 0 00-.244.589v5.833h1.667V8.685l2.011-2.012h1.322V5.007h-1.667zm-10.833-5h-1.666v10h1.666v-10zM5.532 14.356l-3.854-3.083v-4.6H.01v5c0 .253.115.493.313.651l3.854 3.083v3.766h1.666v-4.166a.833.833 0 00-.312-.651zM49.177.007h-5v1.666h4.167v5h1.666V.84a.833.833 0 00-.833-.833z" fill="#FFD53E"/></svg>