<svg width="50" height="50" fill="none" xmlns="http://www.w3.org/2000/svg"><path d="M25 0C11.193 0 0 11.193 0 25s11.193 25 25 25 25-11.193 25-25C49.984 11.2 38.8.015 25 0zm0 48.333C12.113 48.333 1.667 37.887 1.667 25 1.667 12.113 12.113 1.667 25 1.667c12.887 0 23.333 10.446 23.333 23.333C48.32 37.88 37.88 48.319 25 48.333z" fill="#FFD53E"/><path d="M44.142 24.075v-.1c-.018-.267-.035-.534-.061-.791a32.66 32.66 0 00-.084-.766 6.363 6.363 0 00-.093-.583c-.036-.25-.083-.5-.137-.763l-.024-.112c-.044-.198-.09-.402-.137-.583a18.421 18.421 0 00-.5-1.679 7.628 7.628 0 00-.178-.49 10.604 10.604 0 00-.267-.666c-.123-.292-.25-.573-.377-.834-.117-.25-.243-.494-.368-.718a17.265 17.265 0 00-1.012-1.694l-.017-.023v-.004c-.015-.023-.032-.045-.049-.069a14.93 14.93 0 00-.348-.492l-.116-.16c-.162-.224-.334-.44-.565-.714a1.427 1.427 0 01-.106-.134c-.13-.156-.27-.313-.416-.48-.05-.053-.104-.106-.154-.16l1.462-1.462-1.178-1.178-1.464 1.463c-.066-.062-.125-.124-.193-.186-.148-.13-.297-.262-.482-.416l-.06-.045a11.324 11.324 0 00-.734-.584l-.012-.009-.167-.12a17.246 17.246 0 00-2.264-1.417 11.357 11.357 0 00-.713-.368c-.283-.14-.566-.264-.846-.383-.226-.1-.453-.19-.684-.274a7.708 7.708 0 00-.464-.167 17.61 17.61 0 00-1.686-.5c-.216-.057-.438-.105-.72-.166-.25-.053-.5-.099-.697-.125a7.393 7.393 0 00-.638-.101c-.25-.035-.51-.061-.774-.089a17.326 17.326 0 00-.844-.06 17.538 17.538 0 00-1.896 0h-.094c-.267.018-.536.035-.802.061a20.51 20.51 0 00-.789.09 6.52 6.52 0 00-.558.088c-.25.037-.5.084-.822.15-.216.049-.438.097-.638.15-.526.126-1.084.291-1.68.5a9.406 9.406 0 00-.49.177 10.41 10.41 0 00-.667.269c-.293.123-.575.25-.833.377-.25.116-.493.243-.72.368-.088.046-.173.098-.26.146-.49.267-.973.554-1.431.865h-.011l-.092.065c-.166.111-.328.225-.484.342l-.162.119a21.44 21.44 0 00-.338.255c-.116.088-.237.192-.372.305a.476.476 0 01-.054.046l-.083.064c-.148.124-.297.256-.479.417-.518.475-1.02.976-1.5 1.5-.14.156-.28.314-.437.505-.04.055-.084.108-.132.157-.18.216-.35.432-.5.638l-.008.01v.005l-.118.162c-.14.194-.281.387-.416.583-.367.54-.703 1.101-1.006 1.68a11.4 11.4 0 00-.367.715c-.141.282-.264.563-.384.845-.1.226-.19.452-.264.658a7.654 7.654 0 00-.177.49 17.945 17.945 0 00-.5 1.688c-.051.196-.097.4-.14.598l-.027.118c-.054.25-.099.505-.124.697a7.584 7.584 0 00-.103.64c-.034.25-.061.512-.084.77-.022.259-.043.527-.061.848-.019.322-.039.643-.039.966 0 .323.009.647.025.925v.1c.018.267.035.534.061.791.026.256.053.52.084.766.028.215.056.43.093.583.036.25.083.5.137.763l.024.112c.044.198.09.402.137.583.129.527.293 1.084.5 1.679.056.176.12.343.178.49.083.226.171.452.267.666.124.292.25.573.378.834.116.25.242.494.368.72.096.184.2.376.306.559l.416.726 6.508-3.75-.42-.714a11.666 11.666 0 014.272-15.938 11.863 11.863 0 0111.666 0 11.61 11.61 0 011.788 1.306l-5.326 5.326a4.179 4.179 0 101.178 1.178L33.8 17.38a11.602 11.602 0 011.306 13.454l-.417.724 6.508 3.75.417-.726c.105-.184.21-.375.297-.543.134-.242.26-.484.367-.715.14-.282.264-.563.384-.845.099-.226.19-.452.263-.658a7.41 7.41 0 00.178-.49c.212-.617.377-1.172.5-1.688.05-.196.096-.4.14-.598l.026-.118c.054-.25.1-.505.124-.698.048-.215.076-.43.104-.639.034-.25.06-.512.083-.77.023-.259.043-.527.062-.848a17.152 17.152 0 000-1.896zm-2.157-3.3c.046.178.083.363.127.543l.023.107c.046.214.084.428.126.703.036.166.058.333.083.511.033.23.056.47.084.712.013.128.023.258.032.383l.022.3v.133h-4.176a13.269 13.269 0 00-1.364-5.099l3.614-2.083c.075.142.15.279.224.439.125.25.235.5.348.77.084.191.16.381.237.592.052.134.104.266.156.428a17 17 0 01.464 1.561zM26.653 7.583c.239.024.478.048.738.084.162.021.321.041.542.087.214.03.429.07.699.127a18.763 18.763 0 012.177.61c.133.041.258.091.425.156.191.068.381.144.584.233.258.11.51.218.782.355.139.064.278.14.417.213l-2.084 3.616a13.352 13.352 0 00-5.1-1.338V7.522h.084c.25.017.495.033.736.061zm-7.846 1.048c.126-.049.25-.099.407-.147a18.596 18.596 0 012.21-.615c.214-.046.43-.083.702-.126.162-.035.322-.055.513-.083.23-.032.47-.055.709-.079s.49-.04.685-.054h.134v4.204a13.34 13.34 0 00-5.098 1.333l-2.083-3.615c.142-.075.279-.15.44-.225.249-.126.499-.235.77-.348.189-.089.38-.165.61-.25v.005zm-11.147 14c.022-.166.043-.333.09-.564a9.38 9.38 0 01.113-.636l.025-.114c.04-.18.084-.364.13-.555.115-.475.266-.983.469-1.57.044-.14.096-.273.156-.427a14.415 14.415 0 01.588-1.366c.064-.138.14-.278.213-.417l3.614 2.084a13.28 13.28 0 00-1.364 5.1H7.521v-.083a18.79 18.79 0 01.14-1.451zm1.784 10.385c-.075-.142-.15-.28-.224-.439-.125-.25-.235-.5-.348-.77a9.728 9.728 0 01-.237-.592c-.052-.134-.104-.267-.156-.428a17.086 17.086 0 01-.464-1.562c-.046-.178-.083-.363-.127-.543l-.023-.107a11.9 11.9 0 01-.126-.703c-.036-.166-.057-.333-.083-.511-.033-.23-.056-.47-.084-.712a13.063 13.063 0 01-.032-.383l-.022-.3v-.129h4.193a13.26 13.26 0 001.342 5.1l-3.609 2.079zm4.45-15.39l-3.617-2.084c.07-.11.137-.221.21-.333l.022-.03c.15-.216.3-.433.476-.666.139-.192.285-.377.386-.5.076-.078.146-.161.21-.25.12-.143.25-.286.367-.416.44-.48.908-.948 1.403-1.403.137-.12.272-.24.371-.325l.139-.107a.948.948 0 00.09-.084c.184-.154.368-.3.577-.45.232-.176.464-.334.69-.491.104-.071.221-.128.327-.196l2.083 3.608a13.437 13.437 0 00-3.734 3.727zm18.48-3.732l2.084-3.617c.106.068.215.132.32.204.23.158.461.317.708.505.192.137.375.282.507.39.044.042.09.083.133.117l.112.088c.136.114.272.235.421.366.037.034.072.07.11.104l-2.954 2.953a13.336 13.336 0 00-1.44-1.11zM27.5 25a2.5 2.5 0 11-2.5-2.5c.371.002.737.087 1.071.25l-.645.645a1.622 1.622 0 00-.426-.062A1.667 1.667 0 1026.667 25a1.622 1.622 0 00-.063-.426l.645-.645c.164.334.25.7.251 1.071zm7.5-8.818l2.953-2.953.095.1c.128.143.255.287.348.396.056.08.117.154.184.224.153.184.299.368.45.577l.011.016c.166.221.321.443.481.676.072.105.128.22.197.328l-3.609 2.083c-.336-.507-.707-.99-1.11-1.447zm7.344 11.186a6.526 6.526 0 01-.09.565 9.38 9.38 0 01-.113.636l-.025.113c-.04.18-.084.365-.13.556a17.01 17.01 0 01-.469 1.57c-.044.14-.096.273-.156.427-.069.19-.144.38-.232.583-.11.259-.22.51-.355.783-.065.14-.142.277-.214.417l-3.613-2.084a13.267 13.267 0 001.338-5.1h4.194v.083a18.689 18.689 0 01-.14 1.452h.005z" fill="#FFD53E"/><path d="M15.833 39.167h18.334v-5H15.833v5zm1.667-3.334h15V37.5h-15v-1.667z" fill="#FFD53E"/></svg>