<svg width="51" height="51" fill="none" xmlns="http://www.w3.org/2000/svg"><path d="M10.042 39.208h-5a.833.833 0 00-.834.834v5a.833.833 0 00.371.693l2.5 1.667a.834.834 0 00.925 0l2.5-1.667a.833.833 0 00.371-.693v-5a.833.833 0 00-.833-.834zm-.834 5.388l-1.666 1.112-1.667-1.112v-3.721h3.333v3.72zM39.39 26.165a5.91 5.91 0 00-5.484.982 5.805 5.805 0 00-2.198 4.561.833.833 0 00.834.834h3.333a.833.833 0 00.833-.834.833.833 0 01.68-.82.845.845 0 01.768.24c.1.107.168.238.198.381a.847.847 0 01-.386.917 5.897 5.897 0 00-2.926 5.115 2.5 2.5 0 105-.064.92.92 0 01.493-.761 5.895 5.895 0 002.468-7.091 5.72 5.72 0 00-3.612-3.46zm.29 9.12a2.59 2.59 0 00-1.305 2.256.833.833 0 01-.833.834.85.85 0 01-.834-.898 4.218 4.218 0 012.115-3.621 2.505 2.505 0 001.167-2.677 2.453 2.453 0 00-1.797-1.887 2.507 2.507 0 00-3.01 1.583h-1.725a4.148 4.148 0 013.37-3.269 4.235 4.235 0 012.057.147 4.042 4.042 0 012.553 2.443 4.226 4.226 0 01-1.759 5.09zm-2.138 5.59a2.5 2.5 0 100 5 2.5 2.5 0 000-5zm0 3.333a.833.833 0 110-1.666.833.833 0 010 1.666z" fill="#FFD53E"/><path d="M37.542 22.542a13.337 13.337 0 00-12.892 10h-2.667l-2.775-2.084v-1.95a8.416 8.416 0 003.875-3.466h2.792a4.167 4.167 0 004.167-4.167V5.042A4.167 4.167 0 0025.875.875h-20a4.167 4.167 0 00-4.167 4.167v13.333a.833.833 0 00.834.833h2.5a2.507 2.507 0 002.5 2.5h.041a8.353 8.353 0 004.959 6.8v1.95l-2.775 2.084H5.042a4.167 4.167 0 00-4.167 4.166v11.667a2.508 2.508 0 002.5 2.5h25a2.508 2.508 0 002.5-2.5v-.967a13.327 13.327 0 106.667-24.866zm-9.167-1.667a2.508 2.508 0 01-2.5 2.5h-2.05c.17-.543.284-1.101.342-1.667h.041a2.507 2.507 0 002.5-2.5h1.667v1.667zm-4.167-.833v-2.5a.834.834 0 01.834.833v.833a.833.833 0 01-.834.834zm-19.016-2.5H3.375v-12.5a2.507 2.507 0 012.5-2.5h20a2.508 2.508 0 012.5 2.5v12.5h-1.817a2.507 2.507 0 00-2.35-1.667v-.233a5.834 5.834 0 002.5-4.767V5.042a.834.834 0 00-.833-.834H12.542a7.512 7.512 0 00-7.5 7.5v1.667a3.34 3.34 0 001.441 2.742 2.5 2.5 0 00-1.291 1.425zm2.35 2.5a.833.833 0 01-.834-.834v-.833a.833.833 0 01.834-.833v2.5zm0-5.834v.6a1.656 1.656 0 01-.834-1.433v-1.667a5.84 5.84 0 015.834-5.833h12.5v5a4.143 4.143 0 01-1.067 2.767.785.785 0 00-.383-.234l-4.7-1.283a.819.819 0 00-.925.367 3.738 3.738 0 01-.934 1.058c-.561.417-1.212.7-1.9.825.437-.798.69-1.684.742-2.592a.835.835 0 00-.833-.908h-.834a.836.836 0 00-.325.067l-5.833 2.5a.833.833 0 00-.508.766zm1.666 6.667v-6.117l4.834-2.066a2.45 2.45 0 01-.442.95 4.2 4.2 0 01-.433.375 1.166 1.166 0 00-.584 1.275 1.11 1.11 0 00.792.716 6 6 0 004.667-1.133 5.04 5.04 0 00.983-.992l3.517.959v6.033c0 .857-.167 1.707-.492 2.5h-6.175v1.667h5.2a6.667 6.667 0 01-11.867-4.167zm4.667 10.667a.846.846 0 00.333-.667v-1.833c1.1.222 2.234.222 3.334 0v1.833a.845.845 0 00.333.667l2.317 1.741-4.317 2.467-4.317-2.467 2.317-1.741zm15.333 16.833a.834.834 0 01-.833.833h-25a.834.834 0 01-.833-.833V36.708a2.508 2.508 0 012.5-2.5h4.775l5.641 3.225a.87.87 0 00.834 0l5.641-3.225h2.392a13.68 13.68 0 00-.117 1.667 13.176 13.176 0 002.375 7.567l-.691 3.083a.84.84 0 001.108.967l2.208-.834v1.717zm8.334-.833a11.532 11.532 0 01-7.334-2.6.855.855 0 00-.816-.134l-1.534.584.434-1.95a.82.82 0 00-.15-.675 11.557 11.557 0 01-2.267-6.892 11.667 11.667 0 1111.667 11.667z" fill="#FFD53E"/></svg>