<svg width="51" height="50" viewBox="0 0 51 50" fill="none" xmlns="http://www.w3.org/2000/svg">
<path d="M39.6103 23.2927C39.6103 23.2026 39.6149 9.90296 39.6149 9.90296L19.8075 0L1.09151e-05 9.90373V23.0227C-0.00772637 31.2381 4.09845 38.912 10.9378 43.4638L19.8075 49.3743L26.6403 44.8229C30.3333 49.5535 36.7127 51.2669 42.2789 49.0235C47.8455 46.78 51.2537 41.1221 50.6348 35.1528C50.0154 29.1831 45.5185 24.3454 39.6103 23.2919V23.2927ZM19.8075 47.4729L11.8172 42.1469C5.41805 37.8887 1.57648 30.7089 1.58461 23.0227V10.8829L19.8075 1.77145L38.0303 10.8829V23.1105C37.7673 23.0946 37.5065 23.0703 37.238 23.0703C36.9696 23.0703 36.708 23.0946 36.4457 23.1105C36.4457 23.0811 36.4457 11.8601 36.4457 11.8601L19.8075 3.54174L3.1692 11.8609V23.0227C3.1634 30.1785 6.73996 36.862 12.6965 40.827L19.8075 45.5649L24.9907 42.1114C25.2124 42.5949 25.4627 43.065 25.74 43.5188L19.8075 47.4729ZM24.398 40.603L19.8075 43.6611L13.5762 39.5089C13.2687 39.3035 12.9708 39.088 12.6768 38.8671V31.7856H11.0922V37.5375C10.2225 36.7312 9.42712 35.848 8.71529 34.899V30.295C8.71568 29.2056 9.45652 28.2558 10.5131 27.9904L15.8862 26.6434C16.0588 28.3614 17.325 29.7688 19.0152 30.1217V33.3702H20.5998V30.1217C22.29 29.7692 23.5558 28.3614 23.728 26.6434L27.255 27.5293C24.0394 31.0656 22.9507 36.0469 24.398 40.6022V40.603ZM15.846 16.7319H18.036C19.2589 16.7303 20.4667 16.4595 21.5735 15.9396H21.7882L23.769 18.5803V21.8818L21.1282 23.8626H18.4867L15.846 21.8818V16.7319ZM14.3271 15.1473C14.4877 14.1538 15.1202 13.3 16.0243 12.8574C17.7768 12.0775 19.7514 11.9533 21.5878 12.5073L21.77 12.7704H22.9767C23.4142 12.7704 23.769 13.1251 23.769 13.5627V15.9396L22.5805 14.355H21.2052L21.0381 14.4382C20.1054 14.9028 19.0778 15.1457 18.036 15.1473H14.3271ZM22.1844 25.051V26.2395C22.1844 27.5521 21.1201 28.6164 19.8075 28.6164C18.4948 28.6164 17.4306 27.5521 17.4306 26.2395V25.051L17.959 25.4472H21.6559L22.1844 25.051ZM23.769 25.0201V23.8626L25.3536 22.6741V13.5627C25.3536 12.2497 24.2893 11.1858 22.9767 11.1858H22.4498C21.3035 10.4891 18.4496 10.3482 16.4282 10.9804C14.1616 11.5371 12.5959 13.6068 12.6768 15.9396V16.7319H14.2614V22.6741L15.846 23.8626V25.0162L10.1273 26.4542C8.36479 26.894 7.12876 28.4786 7.1307 30.295V32.4343C5.56931 29.5433 4.75225 26.3087 4.7538 23.0227V12.84L19.8075 5.3132L34.8611 12.84V23.0227C34.8611 23.1136 34.8557 23.2041 34.8549 23.2943C32.5442 23.7074 30.3828 24.7199 28.5862 26.2306L23.769 25.0201ZM37.238 48.4238C30.6745 48.4238 25.3536 43.1029 25.3536 36.5393C25.3536 29.9754 30.6745 24.6549 37.238 24.6549C43.8016 24.6549 49.1225 29.9754 49.1225 36.5393C49.1152 43.0998 43.7985 48.4161 37.238 48.4238Z" fill="#FFD53E"/>
<path d="M41.1995 13.5627H50.7071V15.1472H41.1995V13.5627Z" fill="#FFD53E"/>
<path d="M41.1995 16.7318H47.5379V18.3164H41.1995V16.7318Z" fill="#FFD53E"/>
<path d="M41.1995 19.901H44.3687V21.4856H41.1995V19.901Z" fill="#FFD53E"/>
<path d="M34.3207 35.9791L31.5202 33.1782L27.038 37.6596L34.3207 44.9424L46.6459 32.6173L42.1637 28.1362L34.3207 35.9791ZM34.3207 42.7016L29.2787 37.6596L31.5202 35.4189L34.3207 38.2194L42.1644 30.3758L44.4059 32.6165L34.3207 42.7016Z" fill="#FFD53E"/>
</svg>
