<svg width="116" height="80" viewBox="0 0 116 80" fill="none" xmlns="http://www.w3.org/2000/svg">
<path d="M51.957 30.0198L51.9179 30.0027L51.9118 30.0003L51.8776 29.9856L51.8386 29.9685L51.819 29.96L51.7983 29.9515L51.758 29.9344L51.7262 29.9209L51.7189 29.9173L51.6786 29.9002L51.6383 29.8831L51.6334 29.8818L51.598 29.866L51.5577 29.8501L51.5406 29.8428L51.5174 29.833L51.4771 29.8159L51.4466 29.8037L51.4356 29.7988L51.3953 29.7829L51.355 29.7658L51.3514 29.7646L51.3135 29.7487L51.2732 29.7328L51.2573 29.7255L51.2317 29.7157L51.1914 29.6999L51.1609 29.6877L51.1499 29.6828L51.1084 29.6669L51.0669 29.6498H51.0656L51.0253 29.6339L50.9838 29.618L50.9692 29.6119L50.9008 29.5851L50.8715 29.5741L50.8581 29.5692L50.8165 29.5521L50.775 29.5362C50.8617 27.3428 50.8544 25.1262 49.1571 23.2931C49.8226 21.2206 50.8202 19.6709 52.6176 18.3226C41.8235 17.7633 34.3763 10.1731 32.9782 4.95466C31.5801 10.1731 24.1329 17.7633 13.3376 18.3226C15.1349 19.6709 16.1325 21.2206 16.798 23.2931C15.102 25.1262 15.0934 27.3428 15.1801 29.5362C9.60846 31.6722 6.45571 34.7742 2.88046 39.9047C4.45928 38.9009 4.78531 38.7897 6.6291 38.3269C5.99171 39.1891 5.48375 40.447 5.27861 41.3983C5.72185 41.104 6.10771 40.988 6.62787 40.8622C4.67907 46.5606 5.46177 53.3325 8.05284 58.5656C8.20059 57.5874 8.45091 56.752 8.91857 56.0205C10.3985 61.2866 12.9114 65.638 16.6527 70.0003C16.7211 68.8572 16.7211 67.3086 16.7883 66.1655C20.5772 70.5425 23.1206 72.2071 28.8181 75.2053L28.8828 75.2517L28.9487 75.2969L29.0134 75.3421L29.0781 75.3885L29.1429 75.4337L29.2076 75.4789L29.2735 75.5253L29.3382 75.5705L29.4029 75.6157L29.4677 75.6621L29.5336 75.7073L29.5983 75.7524L29.663 75.7989L29.7277 75.844L29.7937 75.8892L29.8584 75.9356L29.9231 75.9808L29.9878 76.026L30.0525 76.0724L30.1185 76.1176L30.1832 76.1628L30.2479 76.2092L30.3126 76.2544L30.3773 76.2996L30.4433 76.346L30.508 76.3912L30.5727 76.4363L30.6374 76.4828L30.7034 76.5279L30.7681 76.5731L30.8328 76.6195L30.8975 76.6647L30.9635 76.7099L31.0282 76.7563L31.0929 76.8015L31.1576 76.8467L31.2223 76.8931L31.2883 76.9383L31.353 76.9835L31.4177 77.0299L31.4824 77.0751L31.5483 77.1203L31.6131 77.1667L31.6778 77.2119L31.7425 77.257L31.8084 77.3035L31.8731 77.3486L31.9379 77.3938L32.0026 77.4402L32.0673 77.4854L32.1332 77.5306L32.1979 77.577L32.2627 77.6222L32.3274 77.6674L32.3933 77.7138L32.458 77.759L32.5227 77.8042L32.5875 77.8506L32.6522 77.8958L32.7181 77.9409L32.7828 77.9874L32.8475 78.0325L32.9123 78.0777L32.9782 78.1241L33.0429 78.0777L33.1076 78.0325L33.1723 77.9874L33.2383 77.9409L33.303 77.8958L33.3677 77.8506L33.4324 77.8042L33.4971 77.759L33.5631 77.7138L33.6278 77.6674L33.6925 77.6222L33.7572 77.577L33.8232 77.5306L33.8879 77.4854L33.9526 77.4402L34.0173 77.3938L34.082 77.3486L34.148 77.3035L34.2127 77.257L34.2774 77.2119L34.3421 77.1667L34.408 77.1203L34.4728 77.0751L34.5375 77.0299L34.6022 76.9835L34.6681 76.9383L34.7328 76.8931L34.7976 76.8467L34.8623 76.8015L34.927 76.7563L34.9929 76.7099L35.0576 76.6647L35.1224 76.6195L35.1871 76.5731L35.253 76.5279L35.3177 76.4828L35.3824 76.4363L35.4472 76.3912L35.5119 76.346L35.5778 76.2996L35.6425 76.2544L35.7072 76.2092L35.772 76.1628L35.8379 76.1176L35.9026 76.0724L35.9673 76.026L36.032 75.9808L36.098 75.9356L36.1627 75.8892L36.2274 75.844L36.2921 75.7989L36.3568 75.7524L36.4228 75.7073L36.4875 75.6621L36.5522 75.6157L36.6169 75.5705L36.6829 75.5253L36.7476 75.4789L36.8123 75.4337L36.877 75.3885L36.9417 75.3421L37.0077 75.2969L37.0724 75.2517L37.1371 75.2053C42.8358 72.2071 45.378 70.5425 49.1669 66.1655C49.2341 67.3086 49.2341 68.8572 49.3024 70.0003L49.3611 69.9307L49.3843 69.905L49.4197 69.8623L49.4648 69.8098L49.4783 69.7939L49.5369 69.7243L49.5454 69.7145L49.5955 69.6559L49.626 69.6193L49.6529 69.5875L49.7054 69.524L49.7103 69.5179L49.7677 69.4495L49.786 69.4287L49.8251 69.3811L49.8641 69.3335L49.8824 69.3115L49.9398 69.2431L49.9435 69.2382L49.996 69.1747L50.0216 69.143L50.0522 69.1051L50.0998 69.0477L50.1083 69.0367L50.1645 68.9671L50.1767 68.9525L50.2207 68.8987L50.2549 68.8572L50.2768 68.8303L50.3318 68.7619V68.7607L50.3867 68.6923L50.4075 68.6667L50.4417 68.6227L50.4832 68.5714L50.4966 68.5543L50.5516 68.4847L50.5589 68.4762L50.6065 68.4163L50.6346 68.3809L50.6603 68.3479L50.7091 68.2844L50.7152 68.2783L50.7689 68.2099L50.7836 68.1892L50.8227 68.1403L50.8581 68.0939L50.8752 68.0707L50.9289 68.0023L50.9325 67.9987L50.9826 67.9327L51.0351 67.8643L51.0779 67.8069L51.0876 67.7947L51.1401 67.7263L51.1511 67.7117L51.1926 67.6567L51.2232 67.6152L51.2439 67.5871L51.2952 67.5199L51.2964 67.5175L51.3477 67.4491L51.366 67.4234L51.399 67.3795L51.4503 67.3099L51.5016 67.2402L51.5077 67.2317L51.5528 67.1719L51.5785 67.1364L51.6029 67.1022L51.6493 67.04L51.6542 67.0326L51.7043 66.963L51.7177 66.9435L51.7543 66.8934L51.7873 66.8482L51.8044 66.8238L51.8544 66.7542L51.8557 66.7517L51.9033 66.6846L51.9253 66.6553L51.9534 66.615L52.0022 66.5453L52.051 66.4757L52.0608 66.4623L52.0999 66.4061L52.2452 66.1961L52.2611 66.1716L52.2928 66.1265L52.3404 66.0568L52.388 65.986L52.3941 65.9787L52.4357 65.9164L52.4589 65.881L52.4821 65.8468L52.5297 65.776L52.5761 65.7063L52.5895 65.6868L52.6225 65.6355L52.653 65.5903L52.6701 65.5659C53.0486 64.9895 53.4088 64.4094 53.7495 63.8207H114.256V32.3915H56.1574C54.9059 31.4878 53.5309 30.7074 51.957 30.0198ZM56.3357 30.6488H116V65.5659H54.4907C53.3368 67.421 52.001 69.2114 50.4685 70.9981L47.9947 73.8802L47.77 70.0907L47.7603 69.9111C46.7798 70.8613 45.8163 71.6759 44.776 72.4404C42.8992 73.8192 40.8088 75.0063 37.943 76.517L32.9782 80L28.0122 76.517C25.1464 75.0063 23.0559 73.8192 21.1792 72.4404C20.1388 71.6759 19.1754 70.8613 18.1949 69.9111L18.1851 70.0907L17.9605 73.8802L15.4866 70.9981C13.5537 68.7448 11.9321 66.4843 10.5975 64.0955C10.0883 63.1844 9.62189 62.2563 9.19697 61.3061L8.84775 63.6278L6.67672 59.2446C5.26152 56.3869 4.35305 53.1029 4.08564 49.7713C3.92691 47.8075 3.9904 45.8205 4.30299 43.8861L2.97815 44.7641L3.75474 41.17L0 42.8126C2.01352 38.2695 3.3176 35.8904 7.27259 32.4428C9.10417 30.8466 11.1336 29.568 13.6184 28.5104C13.6111 27.6738 13.6501 26.8323 13.8113 25.9909C14.0116 24.9553 14.3877 23.9489 15.0641 23C14.8309 22.4175 14.5562 21.8875 14.224 21.4026C13.76 20.7224 13.1739 20.1154 12.4181 19.5487L9.03335 17.0085L13.2594 16.7899C17.7529 16.5567 21.6273 15.0215 24.6579 12.9588C30.834 8.75401 31.4543 5.68375 32.9782 0C34.5008 5.68375 35.1211 8.75401 41.2972 12.9588C44.3279 15.0215 48.2023 16.5567 52.6957 16.7899L56.9218 17.0085L53.5371 19.5487C52.7812 20.1154 52.1963 20.7224 51.7311 21.4026C51.399 21.8875 51.1243 22.4175 50.891 23C51.5675 23.9489 51.9448 24.9553 52.1438 25.9909C52.305 26.8323 52.3441 27.6738 52.3368 28.5104C53.813 29.1381 55.1269 29.844 56.3357 30.6488Z" fill="#FEFEFE"/>
<path fill-rule="evenodd" clip-rule="evenodd" d="M32.9787 4.95471C34.3768 10.1732 41.824 17.7633 52.6181 18.3226C50.8207 19.6709 49.8231 21.2207 49.1577 23.2932C50.8549 25.1263 50.8622 27.3429 50.7755 29.5363C52.8574 30.335 54.6023 31.268 56.158 32.3916H114.257V63.8208H53.75C52.5204 65.9409 51.0454 67.9694 49.303 70.0004C49.2346 68.8573 49.2346 67.3087 49.1674 66.1656C45.3785 70.5426 42.8363 72.2072 37.1376 75.2054C35.7517 76.1787 34.3646 77.1508 32.9787 78.1242C31.5916 77.1508 30.2057 76.1787 28.8186 75.2054C23.1212 72.2072 20.5777 70.5426 16.7888 66.1656C16.7216 67.3087 16.7216 68.8573 16.6532 70.0004C12.9119 65.638 10.399 61.2866 8.91909 56.0206C8.45142 56.7521 8.20111 57.5874 8.05336 58.5657C5.46229 53.3326 4.67959 46.5607 6.62839 40.8623C6.10822 40.988 5.72237 41.1041 5.27913 41.3984C5.48427 40.447 5.99222 39.1891 6.62961 38.3269C4.78582 38.7898 4.4598 38.9009 2.88098 39.9048C6.45622 34.7743 9.60898 31.6723 15.1806 29.5363C15.094 27.3429 15.1025 25.1263 16.7985 23.2932C16.1331 21.2207 15.1355 19.6709 13.3381 18.3226C24.1334 17.7633 31.5806 10.1732 32.9787 4.95471Z" fill="#040202"/>
<path fill-rule="evenodd" clip-rule="evenodd" d="M32.9513 63.9026C29.3443 61.7251 26.4797 58.6744 24.9534 54.0543C24.758 55.322 24.8667 56.5555 25.078 57.778C22.228 55.7702 20.3623 53.2434 19.2303 50.3295C19.0814 51.2467 18.9312 52.1626 18.781 53.0798C16.9103 49.7176 15.5025 45.8841 17.356 38.7067C16.8481 39.3565 16.3401 40.0062 15.8321 40.6571C15.5562 39.9646 15.2815 39.2734 15.0067 38.5822C15.9567 36.6159 16.9067 34.6497 17.8567 32.6823C18.339 32.6823 18.8225 32.6823 19.306 32.6823C18.8701 34.7523 19.0985 36.5378 20.88 37.6577C20.615 39.7888 20.9313 41.7416 22.4307 43.3317C21.5235 44.6531 21.1315 46.1503 21.355 47.8564C22.5028 44.4674 24.802 43.0129 27.354 41.9822C28.1367 42.434 29.1648 42.5378 30.4017 42.2069C31.0575 42.8627 31.9146 42.9812 32.9513 42.9812C33.9868 42.9812 34.8452 42.8627 35.4996 42.2069C36.7366 42.5378 37.7659 42.434 38.5486 41.9822C41.1006 43.0129 43.3998 44.4674 44.5464 47.8564C44.7711 46.1503 44.3791 44.6531 43.4719 43.3317C44.9713 41.7416 45.2876 39.7888 45.0226 37.6577C46.8041 36.5378 47.0325 34.7523 46.5966 32.6823C47.0801 32.6823 47.5636 32.6823 48.046 32.6823C48.9959 34.6497 49.9459 36.6159 50.8947 38.5822C50.6199 39.2734 50.3452 39.9646 50.0705 40.6571C49.5625 40.0062 49.0545 39.3565 48.5466 38.7067C50.4001 45.8841 48.991 49.7176 47.1216 53.0798C46.9714 52.1626 46.8212 51.2467 46.6723 50.3295C45.5404 53.2434 43.6746 55.7702 40.8234 57.778C41.0359 56.5555 41.1446 55.322 40.9492 54.0543C39.4229 58.6744 36.5583 61.7251 32.9513 63.9026ZM32.9244 50.487C29.4591 50.6531 26.3503 50.0938 27.3418 46.1491C27.0585 46.1039 26.8497 46.0709 26.5676 46.0258C28.0512 44.7447 30.0892 44.0559 32.9244 44.0913C35.7597 44.0559 37.8514 44.7447 39.335 46.0258C39.0529 46.0709 38.8441 46.1039 38.5608 46.1491C39.5523 50.0938 36.3898 50.6531 32.9244 50.487Z" fill="#FEFEFE"/>
<path fill-rule="evenodd" clip-rule="evenodd" d="M22.5553 33.9083C23.1964 33.6336 23.8386 33.3588 24.4797 33.0828C23.4796 32.7249 22.4808 32.3671 21.4808 32.0081C21.3391 32.8923 21.1975 33.7752 21.0558 34.6582C22.4601 36.3961 23.6103 38.107 23.9046 39.7325C23.371 39.5872 22.9021 39.3466 22.4808 39.0315C22.4942 40.1624 22.7726 41.1981 23.5553 42.0566C24.4968 41.2445 25.6494 40.7218 26.9535 40.4067C27.0634 39.1366 27.5921 38.1315 28.8779 37.6075C28.9072 36.9676 29.1026 36.3826 29.403 35.8331C26.6983 36.2813 24.4015 35.6767 22.5553 33.9083Z" fill="#F9D6C6"/>
<path fill-rule="evenodd" clip-rule="evenodd" d="M26.9064 35.5669C26.4192 35.5669 26.0247 35.1712 26.0247 34.6839C26.0247 34.414 26.1456 34.1722 26.3373 34.011C25.6864 33.9621 25.0379 34.0623 24.3625 34.243C24.5079 34.7877 24.8291 35.1297 25.2883 35.5889C26.1358 35.8734 27.0469 35.9992 28.0178 35.9711C28.5026 35.8404 28.9056 35.5852 29.2561 35.2359C28.8299 34.8085 28.3304 34.5361 27.7125 34.3236C27.7613 34.4335 27.7894 34.5557 27.7894 34.6839C27.7894 35.1712 27.3937 35.5669 26.9064 35.5669Z" fill="#FEFEFE"/>
<path fill-rule="evenodd" clip-rule="evenodd" d="M8.31294 36.655C10.1702 34.4616 12.4816 32.9765 15.4708 32.5491C14.3108 34.4787 13.2484 36.4437 12.5866 38.554C14.0739 41.1724 14.3059 43.5026 14.0458 45.9512C13.1434 45.1696 12.031 44.9229 10.7892 45.0011C15.8774 48.7564 15.1997 54.886 20.4575 58.8111C20.383 58.1663 20.4185 57.5324 20.5931 56.9108C21.9081 58.3788 23.4845 59.6269 25.343 60.643C26.2588 62.0951 27.525 63.4214 29.0745 64.6463C28.4969 65.2227 27.9206 65.8004 27.3443 66.3768C27.3443 67.5639 27.3443 68.7522 27.3443 69.9392C21.9436 67.4466 18.0545 63.2602 15.6405 57.4189C14.953 59.368 14.8908 61.4307 15.1997 63.5606C11.2215 58.5558 9.10174 53.048 9.46562 46.8672C8.30195 48.8554 8.3508 51.3089 8.3801 53.7551C6.80616 48.6099 7.32023 43.6198 10.0432 38.7922C9.60115 38.7922 9.04191 39.0462 8.6353 39.2843C9.01749 37.8933 9.72814 36.1897 10.7892 35.2969C9.87833 35.5802 9.08709 36.0993 8.31294 36.655Z" fill="#DB2819"/>
<path fill-rule="evenodd" clip-rule="evenodd" d="M32.9782 9.79321C31.4409 16.4247 24.172 15.6296 28.1404 23.5788C26.2612 22.8412 24.9376 21.3537 24.0254 19.3105C21.6761 20.1117 19.2951 20.5391 16.8249 19.9395C17.7211 20.8407 18.6382 21.7103 19.1241 23.2295C18.5795 23.9452 18.3781 24.7757 18.3976 25.6782C20.1523 25.23 21.8886 25.0773 23.6017 25.3289C21.6456 25.6159 18.8103 26.7236 17.8078 27.6933C17.8078 28.6837 17.8726 29.5447 17.8542 31.0664C24.741 28.2941 41.1654 28.2953 48.0484 31.0664C48.0289 29.5447 48.0948 28.6837 48.0948 27.6933C47.0923 26.7236 44.2571 25.6159 42.3009 25.3289C44.0141 25.0773 45.7504 25.23 47.5038 25.6782C47.5234 24.7757 47.3231 23.9452 46.7785 23.2295C47.2633 21.7103 48.1803 20.8407 49.0778 19.9395C46.6076 20.5391 44.2253 20.1117 41.8772 19.3105C40.9651 21.3537 39.6415 22.8412 37.7623 23.5788C41.7307 15.6296 34.5143 16.4247 32.9782 9.79321Z" fill="#FCC900"/>
<path fill-rule="evenodd" clip-rule="evenodd" d="M43.3474 33.9083C42.7051 33.6336 42.064 33.3588 41.423 33.0828C42.423 32.7249 43.4218 32.3671 44.4219 32.0081C44.5635 32.8923 44.7052 33.7752 44.8468 34.6582C43.4426 36.3961 42.2924 38.107 41.9969 39.7325C42.5317 39.5872 43.0006 39.3466 43.4218 39.0315C43.4084 40.1624 43.13 41.1981 42.3473 42.0566C41.4059 41.2445 40.252 40.7218 38.9479 40.4067C38.838 39.1366 38.3105 38.1315 37.0247 37.6075C36.9954 36.9676 36.8001 36.3826 36.4997 35.8331C39.2043 36.2813 41.5011 35.6767 43.3474 33.9083Z" fill="#EEC2B1"/>
<path fill-rule="evenodd" clip-rule="evenodd" d="M32.9513 41.8562C34.0845 41.8562 34.7707 39.89 36.3239 40.3064C35.9344 40.5324 35.6364 40.8145 35.4252 41.1821C36.6926 41.1821 37.3666 40.5947 37.3666 39.9413C37.3666 39.2134 36.4423 38.5161 35.96 38.5161C35.6413 38.5161 35.4252 38.8983 35.2249 39.2317C35.4093 37.7357 35.2994 36.3532 34.4496 35.2578C34.4984 34.4358 34.3958 33.5944 34.1748 32.7078C36.3117 33.7116 38.4204 32.9007 40.5231 31.7332C35.8086 31.1042 30.0941 31.1042 25.3796 31.7332C27.4822 32.9007 29.591 33.7116 31.7266 32.7078C31.5068 33.5944 31.4042 34.4358 31.4519 35.2578C30.6032 36.3532 30.4933 37.7357 30.6777 39.2317C30.4775 38.8983 30.2601 38.5161 29.9414 38.5161C29.4603 38.5161 28.536 39.2134 28.536 39.9413C28.536 40.5947 29.21 41.1821 30.4775 41.1821C30.2662 40.8145 29.9683 40.5324 29.5776 40.3064C31.132 39.89 31.8182 41.8562 32.9513 41.8562Z" fill="#EEC2B1"/>
<path fill-rule="evenodd" clip-rule="evenodd" d="M38.9959 35.5669C39.4832 35.5669 39.8789 35.1712 39.8789 34.6839C39.8789 34.414 39.7567 34.1722 39.5662 34.011C40.2171 33.9621 40.8656 34.0623 41.541 34.243C41.3957 34.7877 41.0745 35.1297 40.6153 35.5889C39.7665 35.8734 38.8567 35.9992 37.8858 35.9711C37.4009 35.8404 36.9967 35.5852 36.6462 35.2359C37.0736 34.8085 37.5731 34.5361 38.1911 34.3236C38.1422 34.4335 38.1141 34.5557 38.1141 34.6839C38.1141 35.1712 38.5098 35.5669 38.9959 35.5669Z" fill="#FEFEFE"/>
<path fill-rule="evenodd" clip-rule="evenodd" d="M57.5897 36.655C55.7312 34.4616 53.421 32.9765 50.4319 32.5491C51.5919 34.4787 52.6542 36.4437 53.3148 38.554C51.8288 41.1724 51.5968 43.5026 51.8568 45.9512C52.7592 45.1696 53.8716 44.9229 55.1134 45.0011C50.024 48.7564 50.7029 54.886 45.4451 58.8111C45.5196 58.1663 45.4842 57.5324 45.3096 56.9108C43.9945 58.3788 42.4181 59.6269 40.5597 60.643C39.6439 62.0951 38.3776 63.4214 36.8281 64.6463C37.4045 65.2227 37.982 65.8004 38.5584 66.3768C38.5584 67.5639 38.5584 68.7522 38.5584 69.9392C43.9579 67.4466 47.8469 63.2602 50.2621 57.4189C50.9496 59.368 51.0107 61.4307 50.7029 63.5606C54.6811 58.5558 56.8009 53.048 56.4358 46.8672C57.5995 48.8554 57.5506 51.3089 57.5213 53.7551C59.0952 48.6099 58.5824 43.6198 55.8595 38.7922C56.3003 38.7922 56.8607 39.0462 57.2673 39.2843C56.8851 37.8933 56.1745 36.1897 55.1134 35.2969C56.0243 35.5802 56.8155 36.0993 57.5897 36.655Z" fill="#86170C"/>
<path fill-rule="evenodd" clip-rule="evenodd" d="M32.9782 75.1332L29.613 72.367V67.4478L32.9782 64.6829L36.3422 67.4478V72.367L32.9782 75.1332Z" fill="#FCC900"/>
<path fill-rule="evenodd" clip-rule="evenodd" d="M32.9785 22.0915L30.9805 20.4513V17.5313L32.9785 15.8899L34.9753 17.5313V20.4513L32.9785 22.0915Z" fill="#C92112"/>
<path fill-rule="evenodd" clip-rule="evenodd" d="M32.9783 20.831L31.9243 19.8565V18.1247L32.9783 17.1514L34.0322 18.1247V19.8565L32.9783 20.831Z" fill="#C92112"/>
<path fill-rule="evenodd" clip-rule="evenodd" d="M22.4315 43.3317C20.9318 41.7416 20.6154 39.7888 20.8805 37.6577C19.0986 36.5378 18.8703 34.7523 19.3063 32.6823C19.1573 32.6823 19.0083 32.6823 18.8593 32.6823C18.3659 34.8683 18.3793 37.0947 19.062 39.3711C19.2745 39.0927 19.5102 38.874 19.7911 38.7776C19.7142 41.4289 20.3614 43.6077 21.4593 45.4908C21.6413 44.7227 21.9686 44.0046 22.4315 43.3317Z" fill="#AEA899"/>
<path fill-rule="evenodd" clip-rule="evenodd" d="M32.0759 50.5127C29.6386 50.5262 27.5348 50.0413 27.2026 48.0641C27.1135 47.5378 27.1513 46.9064 27.3418 46.1492C26.2783 48.0372 25.973 50.1073 27.5348 52.6292C27.8852 52.3349 28.2356 52.0418 28.5861 51.7474C29.055 53.8541 29.9952 55.5785 31.6399 56.7351C32.3884 55.813 33.1553 54.7786 34.0478 53.5793C34.1516 56.4774 33.4813 58.7685 32.3176 60.6712C30.5068 60.3158 28.7863 59.3754 27.0671 58.4265C28.6154 60.7372 30.6289 62.5007 32.9513 63.9027C32.9599 63.8978 32.9684 63.8929 32.9782 63.8868C34.4679 61.6177 35.6731 59.1532 36.4399 56.387C36.8209 57.1344 37.0419 57.9466 37.0846 58.8295C38.7782 56.1965 39.6085 53.252 40.1714 50.2111C40.7014 51.3701 40.8711 52.6915 40.9492 54.0544C41.1446 55.3221 41.0359 56.5556 40.8235 57.778C43.0653 55.0204 44.7589 51.4653 46.0056 47.2593C46.5062 47.7258 46.7614 48.4781 46.9898 49.2622C47.0606 47.953 46.8628 46.7476 46.3451 45.6656C47.3476 42.5941 47.0252 39.039 46.6564 35.4656C46.4391 36.3363 45.9348 37.0837 45.0227 37.6577C45.8371 40.11 45.5025 42.2595 43.9201 44.0791C44.5025 45.2112 44.7296 46.4643 44.5465 47.8565C43.7027 46.6914 42.7942 45.5923 41.5195 44.8595C41.782 45.668 41.9529 46.4765 41.876 47.285C39.5536 44.5811 36.5608 43.5406 32.9281 44.0914C35.7622 44.0559 37.8514 44.7447 39.335 46.0258C39.0529 46.071 38.8441 46.104 38.5609 46.1492C38.7513 46.9064 38.788 47.5378 38.7001 48.0641C38.3679 50.0413 36.2641 50.5262 33.8268 50.5127C33.5387 50.5103 33.2456 50.5018 32.9513 50.4883C32.6558 50.5018 32.364 50.5103 32.0759 50.5127Z" fill="#AEA899"/>
<path fill-rule="evenodd" clip-rule="evenodd" d="M46.345 45.6655C46.8628 46.7475 47.0606 47.9529 46.9897 49.2621C46.7614 48.4781 46.5062 47.7258 46.0056 47.2592C44.7589 51.4653 43.0653 55.0204 40.8234 57.778C43.6746 55.7702 45.5404 53.2434 46.6723 50.3295C46.8212 51.2467 46.9714 52.1626 47.1216 53.0798C48.991 49.7176 50.4001 45.8841 48.5466 38.7067C49.0545 39.3565 49.5625 40.0062 50.0705 40.6571C50.3452 39.9646 50.6199 39.2734 50.8947 38.5822C49.9459 36.6159 48.9959 34.6497 48.046 32.6823C47.5636 32.6823 47.0801 32.6823 46.5966 32.6823C46.809 33.6922 46.864 34.635 46.6564 35.4655C47.0252 39.0389 47.3475 42.594 46.345 45.6655Z" fill="#5D5B53"/>
<path fill-rule="evenodd" clip-rule="evenodd" d="M32.9782 63.8866C36.573 61.7103 39.4266 58.6633 40.9492 54.0542C40.8711 52.6913 40.7014 51.3699 40.1714 50.2109C39.6085 53.2519 38.7782 56.1963 37.0846 58.8294C37.0419 57.9464 36.8209 57.1343 36.4399 56.3869C35.6731 59.153 34.4679 61.6175 32.9782 63.8866Z" fill="#5D5B53"/>
<path fill-rule="evenodd" clip-rule="evenodd" d="M30.3798 48.2924C31.629 47.5682 34.2725 47.5682 35.5229 48.2924C36.7427 48.5061 37.4522 48.1202 37.6304 47.1127C36.2201 46.0013 34.6156 45.2881 32.9782 45.2722C31.3212 45.2722 29.6972 45.9903 28.2711 47.1127C28.4506 48.1202 29.16 48.5061 30.3798 48.2924Z" fill="#ECC1B1"/>
<path fill-rule="evenodd" clip-rule="evenodd" d="M27.2028 48.0639C27.5288 50.0082 29.5708 50.5101 31.9584 50.5125C31.9974 50.5125 32.0365 50.5125 32.0768 50.5125C32.326 49.5807 31.7739 48.666 30.3805 48.2923C29.1604 48.506 28.4509 48.1201 28.2714 47.1125C27.9013 47.4032 27.5435 47.7232 27.2028 48.0639Z" fill="#795C54"/>
<path fill-rule="evenodd" clip-rule="evenodd" d="M38.7009 48.0639C38.3748 50.0082 36.3317 50.5101 33.9453 50.5125C33.9062 50.5125 33.8659 50.5125 33.8269 50.5125C33.5765 49.5807 34.1297 48.666 35.5232 48.2923C36.7432 48.506 37.4528 48.1201 37.6311 47.1125C38.0023 47.4032 38.3602 47.7232 38.7009 48.0639Z" fill="#795C54"/>
<path fill-rule="evenodd" clip-rule="evenodd" d="M26.9541 40.4068C27.064 39.1366 27.5929 38.1315 28.8788 37.6076C28.9082 36.9677 29.1036 36.3827 29.404 35.8331C27.7321 36.5891 25.9441 36.8907 23.8192 35.8808C24.6435 37.5893 25.005 39.343 24.9232 41.142C25.546 40.8232 26.2275 40.5826 26.9541 40.4068Z" fill="#EEC2B1"/>
<path fill-rule="evenodd" clip-rule="evenodd" d="M41.3414 36.6647C41.4769 38.0154 40.39 38.9094 40.6269 40.9721C41.2571 41.2567 41.8335 41.6133 42.3477 42.0566C43.1305 41.1981 43.409 40.1624 43.4224 39.0315C43.0011 39.3466 42.5321 39.5872 41.9972 39.7325C42.2927 38.107 43.4432 36.3961 44.8476 34.6582C44.7059 33.7752 44.5643 32.8923 44.4226 32.0081C43.4224 32.3671 42.4234 32.7249 41.4232 33.0828C42.0644 33.3588 42.7055 33.6336 43.3479 33.9083C42.7409 34.8328 41.9141 35.6279 40.6965 36.1897C40.8065 36.3069 40.9286 36.4486 41.3414 36.6647Z" fill="#7B5B52"/>
<path fill-rule="evenodd" clip-rule="evenodd" d="M25.3429 60.643C23.4845 59.6269 21.9081 58.3788 20.593 56.9108C20.4184 57.5325 20.383 58.1663 20.4575 58.8111C15.1996 54.886 15.8773 48.7565 10.7892 45.0011C12.5084 48.2533 13.7136 51.6411 13.8467 55.3354C14.3534 53.9908 14.4243 52.5509 14.1178 51.0256C15.9408 56.4065 19.1595 60.8799 24.3294 64.0882C23.0217 62.5189 21.9606 60.9093 21.5137 59.2032C23.1963 61.7495 25.5749 63.734 28.2087 65.5122C28.4969 65.2228 28.7863 64.9345 29.0744 64.6463C27.5249 63.4214 26.2587 62.0951 25.3429 60.643Z" fill="#86170C"/>
<path fill-rule="evenodd" clip-rule="evenodd" d="M14.0464 45.9513C14.3065 43.5027 14.0744 41.1725 12.5869 38.5541C13.0877 36.9591 13.8155 35.4484 14.6423 33.9719C13.2941 35.7831 11.2704 37.1961 11.7772 40.1002C11.417 41.1529 10.9053 42.1238 10.2507 43.0178C11.5318 43.2889 12.0557 44.1927 12.5186 45.1465C13.0742 45.2955 13.5884 45.5544 14.0464 45.9513Z" fill="#86170C"/>
<path fill-rule="evenodd" clip-rule="evenodd" d="M45.3096 56.9108C43.9945 58.3788 42.4181 59.6269 40.5597 60.643C39.6439 62.0951 38.3776 63.4214 36.8281 64.6463C37.1126 64.9309 37.3959 65.2142 37.6804 65.4987C40.3069 63.7242 42.6782 61.7434 44.3571 59.2031C43.9102 60.9092 42.8479 62.5189 41.5414 64.0882C46.7113 60.8799 49.93 56.4064 51.7518 51.0256C51.4453 52.5509 51.5162 53.9908 52.0241 55.3354C52.156 51.6557 53.3526 48.2802 55.0609 45.0402C50.0289 48.798 50.6846 54.8994 45.4451 58.8111C45.5196 58.1663 45.4842 57.5325 45.3096 56.9108Z" fill="#DB2819"/>
<path fill-rule="evenodd" clip-rule="evenodd" d="M53.3152 38.554C51.829 41.1724 51.5969 43.5026 51.857 45.9512C52.3236 45.547 52.8463 45.2856 53.4142 45.1391C53.8599 44.2366 54.4254 43.2718 55.621 43.0177C54.9664 42.1238 54.4534 41.1529 54.0944 40.1001C54.5853 37.2815 52.6936 35.8672 51.349 34.1306C52.1392 35.5558 52.8341 37.0165 53.3152 38.554Z" fill="#DB2819"/>
<path fill-rule="evenodd" clip-rule="evenodd" d="M37.3675 39.9413C37.3675 39.2134 36.443 38.5161 35.9606 38.5161C35.6418 38.5161 35.4257 38.8983 35.2254 39.2317C35.4098 37.7357 35.2999 36.3532 34.4499 35.2577C34.4987 34.4358 34.3962 33.5944 34.1751 32.7077C33.7171 32.6711 33.3227 32.494 32.9783 32.2083C33.4143 32.759 33.9296 33.3269 33.9296 33.9388C33.9296 34.5641 33.6292 34.9634 33.1663 35.2614C33.9541 35.7169 34.3705 36.4888 34.3705 37.4841C34.3705 39.6445 33.6011 40.9488 32.7206 41.8294C32.7951 41.8477 32.872 41.8562 32.9514 41.8562C34.0847 41.8562 34.7711 39.89 36.3245 40.3064C35.9349 40.5324 35.637 40.8145 35.4257 41.1821C36.6933 41.1821 37.3675 40.5947 37.3675 39.9413Z" fill="#7B5B52"/>
<path fill-rule="evenodd" clip-rule="evenodd" d="M34.7645 32.9411C36.7002 33.559 38.6139 32.7933 40.524 31.7333C39.8438 31.6429 39.1428 31.5647 38.4283 31.5012C37.4244 32.3048 36.0969 32.8935 34.7645 32.9411Z" fill="#795C54"/>
<path fill-rule="evenodd" clip-rule="evenodd" d="M41.0701 24.4375C43.2326 24.5865 45.1338 25.1007 47.0667 25.5721C47.212 25.6063 47.3586 25.6417 47.5039 25.6783C47.5234 24.7758 47.3231 23.9454 46.7786 23.2297C47.2633 21.7104 48.1803 20.8409 49.0778 19.9396C46.6076 20.5393 44.2253 20.1118 41.8772 19.3107C41.854 21.0937 41.5451 22.79 41.0701 24.4375Z" fill="#DE9600"/>
<path fill-rule="evenodd" clip-rule="evenodd" d="M48.0949 27.6933C47.0924 26.7236 44.2571 25.6159 42.301 25.3289L38.5255 25.2434V28.4162L32.9246 28.9878C38.7612 28.9854 44.6015 29.679 48.0485 31.0664C48.029 29.5447 48.0949 28.6837 48.0949 27.6933Z" fill="#DE9600"/>
<path fill-rule="evenodd" clip-rule="evenodd" d="M25.1403 29.4276L24.7947 25.3877L25.7618 25.3034L26.1659 29.3153C26.9242 29.2383 27.7008 29.176 28.4896 29.126L28.2271 24.9566L28.1917 24.4021L28.2271 24.9566C31.6399 24.5597 35.115 24.3826 38.6182 24.302C35.1224 24.1725 31.6436 24.1701 28.1917 24.4021L28.1404 23.579C26.2612 22.8413 24.9376 21.3538 24.0254 19.3107C23.4418 19.5097 22.8557 19.6856 22.2671 19.8285C22.9118 21.5993 23.3185 23.4446 23.6017 25.329C22.1658 25.5403 20.2573 26.1925 18.9471 26.9081L19.0948 30.6281C20.7848 30.1005 22.8618 29.7012 25.1403 29.4276Z" fill="#FEFEFE"/>
<path fill-rule="evenodd" clip-rule="evenodd" d="M18.3979 25.6783C19.5605 25.3815 20.7158 25.2142 21.8614 25.2081C21.4425 23.5203 20.9186 21.8399 20.2273 20.1753C19.1087 20.2754 17.9765 20.2192 16.8249 19.9396C17.7213 20.8409 18.6385 21.7104 19.1245 23.2297C18.5798 23.9453 18.3783 24.7758 18.3979 25.6783Z" fill="#FEFEFE"/>
<path fill-rule="evenodd" clip-rule="evenodd" d="M30.9805 17.5313V20.4513L31.9246 19.8566V18.1248L32.9785 17.1515V15.8899L30.9805 17.5313Z" fill="#DB2819"/>
<path fill-rule="evenodd" clip-rule="evenodd" d="M34.0322 19.8565L32.9782 20.8311V22.0914L34.975 20.4513V17.5312L34.0322 18.1248V19.8565Z" fill="#86170C"/>
<path fill-rule="evenodd" clip-rule="evenodd" d="M32.9788 64.6829L29.613 67.4478V72.367L31.2031 71.3668V68.448L32.9788 66.8079V64.6829Z" fill="#FFD53E"/>
<path fill-rule="evenodd" clip-rule="evenodd" d="M34.7538 70.5353H33.2944L34.7538 71.367V70.5353Z" fill="#FFD53E"/>
<path fill-rule="evenodd" clip-rule="evenodd" d="M33.2944 70.5353H34.7538V70.0516L33.2944 70.5353Z" fill="#DE9600"/>
<path fill-rule="evenodd" clip-rule="evenodd" d="M34.7539 70.0516V70.5352V71.3669L32.9782 73.0071V75.1333L36.3428 72.3671V67.4479L34.7539 68.4481V70.0516Z" fill="#DE9600"/>
<path fill-rule="evenodd" clip-rule="evenodd" d="M32.979 15.8898C32.9363 13.8869 32.9839 11.8413 32.979 9.79321C32.1925 13.1847 29.8831 14.6441 28.3822 16.3148C28.9489 15.9386 29.5277 15.5734 30.2593 15.3292C30.6452 15.8556 30.9127 16.5517 30.981 17.5311L32.979 15.8898Z" fill="#FBDE9A"/>
<path fill-rule="evenodd" clip-rule="evenodd" d="M27.2209 16.282C24.2183 18.0211 21.0021 18.9651 17.6381 19.3693C19.604 19.4133 21.4245 19.3754 24.6603 18.2421C24.8069 19.8957 26.012 21.2537 26.8619 22.0976C26.0218 20.0313 25.5175 18.319 27.2209 16.282Z" fill="#C92112"/>
<path fill-rule="evenodd" clip-rule="evenodd" d="M38.722 16.282C41.7246 18.0211 44.9408 18.9651 48.3048 19.3693C46.3389 19.4133 44.5183 19.3754 41.2825 18.2421C41.136 19.8957 39.9308 21.2537 39.081 22.0976C39.9211 20.0313 40.4254 18.319 38.722 16.282Z" fill="#C92112"/>
<path d="M66.6769 35.0771C67.412 35.0771 68.0396 35.2225 68.561 35.5143C69.086 35.805 69.4866 36.1958 69.7637 36.6831C70.0421 37.1753 70.1813 37.7175 70.1813 38.3135V40.5069C69.8248 40.8452 69.4218 41.192 68.981 41.551C69.4218 41.9138 69.8248 42.2655 70.1813 42.6013V46.0685C70.1813 46.6657 70.0421 47.2079 69.7637 47.6964C69.4866 48.1874 69.086 48.577 68.561 48.8688C68.0396 49.1607 67.412 49.3061 66.6769 49.3061H61.8818V35.0771H66.6769ZM64.7892 37.4794V41.4118C65.6024 40.8623 66.5011 40.1808 67.4804 39.365V39.2355L67.4694 38.7715C67.4559 38.1474 67.2972 37.7712 66.9956 37.6393C66.7416 37.5245 66.2801 37.4696 65.6024 37.4696C65.4705 37.4696 65.3276 37.4732 65.175 37.4794H64.7892ZM67.4804 43.7334C67.2703 43.5576 67.053 43.3817 66.8356 43.2083C66.053 43.7713 65.3716 44.2525 64.7892 44.6494V46.9026H65.5047C65.9211 46.9026 66.2703 46.8892 66.5511 46.8623C66.8332 46.8354 67.0457 46.7536 67.1885 46.6107C67.3314 46.4691 67.4156 46.2321 67.4388 45.9C67.4669 45.5678 67.4804 45.1061 67.4804 44.5102V43.7334ZM80.6922 37.2119C80.7154 37.3035 80.7434 37.4366 80.7666 37.6015C80.7911 37.7712 80.8045 37.9117 80.8045 38.0155V46.3066C80.8045 46.9014 80.6641 47.4449 80.3869 47.9297C80.1097 48.417 79.7092 48.8078 79.1915 49.096C78.6689 49.3867 78.0376 49.5332 77.2964 49.5332H76.3135C75.5833 49.5332 74.952 49.3842 74.4294 49.096C73.9055 48.8066 73.5087 48.417 73.234 47.9297C72.9604 47.4449 72.82 46.9026 72.82 46.3066V38.0729C72.82 37.4794 72.9604 36.9371 73.234 36.4535C73.5087 35.9662 73.9055 35.5754 74.4294 35.2835C74.9508 34.9929 75.582 34.8463 76.3135 34.8463H77.2964C78.2183 34.8463 78.9717 35.0661 79.5541 35.507C80.1329 35.9467 80.5151 36.5182 80.6922 37.2119ZM77.8825 39.6422C77.8825 39.0218 77.8666 38.537 77.8361 38.195C77.8044 37.8494 77.7103 37.6088 77.5614 37.4732C77.4124 37.3377 77.1609 37.2705 76.8116 37.2705C76.46 37.2705 76.2084 37.3377 76.057 37.4732C75.9044 37.6088 75.8116 37.8506 75.7786 38.195C75.7457 38.537 75.731 39.023 75.731 39.6422V44.7373C75.731 45.3589 75.7457 45.8426 75.7786 46.1882C75.8116 46.5326 75.9056 46.7707 76.0534 46.9063C76.2023 47.0443 76.4527 47.1127 76.8116 47.1127C77.1682 47.1127 77.4222 47.0443 77.5711 46.9063C77.7189 46.7707 77.8092 46.5326 77.8385 46.1882C77.8691 45.8426 77.8825 45.3602 77.8825 44.7373V39.6422ZM91.2237 37.2119C91.2469 37.3023 91.2762 37.4366 91.2982 37.6015C91.3226 37.77 91.3361 37.9117 91.3361 38.0155V46.3066C91.3361 46.9014 91.1956 47.4461 90.9197 47.9297C90.6413 48.417 90.2408 48.8078 89.7231 49.096C89.2017 49.3854 88.5692 49.5332 87.828 49.5332H86.8463C86.1148 49.5332 85.4836 49.3842 84.961 49.096C84.4383 48.8066 84.0403 48.417 83.7655 47.9297C83.492 47.4461 83.3516 46.9026 83.3516 46.3066V38.0729C83.3516 37.4794 83.492 36.9371 83.7655 36.4535C84.0403 35.9662 84.4371 35.5754 84.961 35.2835C85.4823 34.9941 86.1136 34.8463 86.8463 34.8463H87.828C88.7499 34.8463 89.5045 35.0661 90.0857 35.507C90.6645 35.9467 91.0467 36.5194 91.2237 37.2119ZM88.4153 39.6422C88.4153 39.0218 88.3982 38.537 88.3677 38.195C88.3359 37.8506 88.2407 37.6076 88.093 37.4732C87.944 37.3389 87.6924 37.2705 87.3444 37.2705C86.9916 37.2705 86.7412 37.3377 86.5886 37.4732C86.436 37.6088 86.3432 37.8506 86.3102 38.195C86.2772 38.537 86.2626 39.0243 86.2626 39.6422V44.7373C86.2626 45.3589 86.2772 45.8426 86.3102 46.1882C86.3432 46.5326 86.4372 46.7707 86.5849 46.9063C86.7339 47.0431 86.9842 47.1127 87.3444 47.1127C87.6998 47.1127 87.9538 47.0431 88.1027 46.9063C88.2505 46.7707 88.3408 46.5326 88.3701 46.1882C88.4007 45.8426 88.4153 45.3602 88.4153 44.7373V39.6422ZM101.153 40.6156L98.8284 40.4495V37.4794H98.7698C98.6135 37.4794 98.4658 37.4696 98.3327 37.4696C97.71 37.4696 97.2716 37.5233 97.0213 37.6296C96.7722 37.7346 96.6367 38.0607 96.6147 38.6017C96.6122 38.6847 96.6 38.7934 96.5976 38.9204C96.5964 39.045 96.5903 39.172 96.5878 39.3003C96.5854 39.4273 96.5841 39.5396 96.5841 39.6251V39.7643L101.617 43.3671V46.0587C101.617 46.6523 101.476 47.1994 101.2 47.6854C100.924 48.1752 100.524 48.5672 100.004 48.8591C99.4866 49.1485 98.8565 49.2963 98.1227 49.2963H93.8942V44.2219L96.2191 44.3917L96.5072 46.8928C96.7502 46.8928 96.9724 46.8965 97.1703 46.9026C97.3082 46.9075 97.4389 46.9136 97.5573 46.9136C97.876 46.9136 98.1447 46.8916 98.3608 46.8489C98.5793 46.8049 98.7295 46.6608 98.8077 46.4214C98.8871 46.1808 98.9261 45.7803 98.9261 45.2246V45.0451L93.8942 41.3715V38.3135C93.8942 37.7175 94.0334 37.1728 94.3069 36.6831C94.5804 36.1958 94.9797 35.805 95.5035 35.5143C96.0249 35.2249 96.6562 35.0771 97.3876 35.0771H101.499L101.153 40.6156ZM110.939 35.0771V37.538L108.614 37.2998V46.7964V49.3061H105.697V46.7964V37.2498L103.225 37.538V35.0771H110.939Z" fill="#DB2819"/>
<path d="M69.7795 42.5671L69.6049 42.4095H62.1296V49.0581H66.6768C67.0272 49.0581 67.3496 49.0227 67.6438 48.9555C67.9345 48.8871 68.2007 48.787 68.4412 48.6526C68.6842 48.5171 68.8979 48.3595 69.0823 48.18C69.2654 48.0017 69.4217 47.799 69.5487 47.573C69.6769 47.3483 69.7734 47.1102 69.8369 46.8623C69.9004 46.6131 69.9321 46.3493 69.9321 46.0684V42.7088L69.7795 42.5671ZM75.483 42.4095H73.0678V46.3066C73.0678 46.5826 73.1007 46.8464 73.1642 47.0967C73.2277 47.3495 73.323 47.5865 73.4487 47.8087C73.5733 48.031 73.7284 48.2313 73.9103 48.4096C74.0934 48.5879 74.3059 48.7442 74.5489 48.8786C74.7919 49.0129 75.0593 49.1143 75.3511 49.1814C75.6454 49.2498 75.9665 49.2852 76.3133 49.2852H77.2963C77.6492 49.2852 77.974 49.2498 78.2694 49.1827C78.5637 49.1143 78.8299 49.0129 79.0705 48.8798C79.3098 48.7467 79.5223 48.5891 79.7054 48.4096C79.8886 48.2313 80.0449 48.031 80.1719 47.8075C80.3001 47.5828 80.3965 47.3459 80.46 47.098C80.5235 46.8501 80.5553 46.5863 80.5553 46.3066V42.4095H78.1315V44.7373C78.1315 45.0316 78.1266 45.31 78.1193 45.5738C78.1119 45.8291 78.1009 46.0416 78.0863 46.2089C78.0692 46.4018 78.0338 46.5692 77.9813 46.712C77.9227 46.8684 77.8409 46.9942 77.7383 47.0882C77.6345 47.1847 77.499 47.2555 77.3341 47.3007C77.1864 47.341 77.0118 47.3618 76.8115 47.3618C76.6125 47.3618 76.4391 47.341 76.2889 47.2995C76.1228 47.2543 75.9885 47.1835 75.8847 47.0882C75.7822 46.9942 75.6991 46.8684 75.6393 46.7108C75.5868 46.5728 75.5514 46.4067 75.5319 46.2113C75.5148 46.033 75.5025 45.8205 75.494 45.5738C75.4867 45.3113 75.483 45.0328 75.483 44.7373V42.4095ZM86.0146 42.4095H83.5993V46.3066C83.5993 46.5826 83.6323 46.8464 83.6958 47.0967C83.7593 47.3495 83.8545 47.5865 83.9803 47.8087C84.1049 48.031 84.2599 48.2313 84.4419 48.4096C84.625 48.5879 84.8375 48.7442 85.0805 48.8786C85.3223 49.0129 85.5909 49.1143 85.8827 49.1814C86.177 49.2498 86.4981 49.2852 86.8449 49.2852H87.8279C88.1807 49.2852 88.5043 49.2498 88.801 49.1827C89.0941 49.1143 89.3627 49.0129 89.602 48.8798C89.8414 48.7467 90.0538 48.5891 90.2382 48.4096C90.4201 48.2313 90.5764 48.031 90.7034 47.8075C90.8316 47.5828 90.9281 47.3459 90.9916 47.098C91.0551 46.8501 91.0868 46.585 91.0868 46.3066V42.4095H88.663V44.7373C88.663 45.0316 88.6582 45.31 88.6508 45.5738C88.6435 45.8303 88.6325 46.0416 88.6179 46.2089C88.6008 46.4018 88.5654 46.5692 88.5129 46.712C88.453 46.8684 88.3724 46.9942 88.2699 47.0882C88.1661 47.1835 88.0318 47.2543 87.8657 47.2995C87.718 47.341 87.5433 47.3618 87.3431 47.3618C87.1441 47.3618 86.9707 47.341 86.8205 47.2995C86.6544 47.2543 86.5201 47.1835 86.4163 47.0882C86.3137 46.9942 86.2307 46.8684 86.1709 46.7108C86.1184 46.5728 86.083 46.4067 86.0634 46.2113C86.0463 46.033 86.0341 45.8205 86.0268 45.5738C86.0183 45.3113 86.0146 45.0328 86.0146 44.7373V42.4095ZM99.8516 42.4095H95.7342L99.1739 44.9205V45.2246C99.1739 45.5054 99.1629 45.7534 99.1421 45.9671C99.1201 46.1857 99.0872 46.364 99.0432 46.4996C98.9895 46.6583 98.9113 46.7878 98.8063 46.8879C98.6977 46.9929 98.5646 47.0613 98.4083 47.0919C98.2898 47.1151 98.1592 47.1322 98.0163 47.1444C97.8747 47.1554 97.7208 47.1615 97.556 47.1615C97.4681 47.1615 97.3398 47.1566 97.2019 47.1517L97.1616 47.1505C97.059 47.1468 96.9564 47.1444 96.8514 47.1419L96.2849 47.1407L95.9955 44.6237L94.1419 44.4881V49.0471H98.1225C98.4705 49.0471 98.7929 49.0129 99.086 48.9445C99.3778 48.8761 99.644 48.776 99.8821 48.6429C100.124 48.5061 100.336 48.3498 100.519 48.1702C100.701 47.9907 100.856 47.788 100.985 47.5633C101.112 47.3373 101.208 47.0992 101.273 46.8501C101.336 46.6021 101.368 46.3383 101.368 46.0587V43.4952L99.8516 42.4095ZM108.365 42.4095H105.943V46.7963V49.0581H108.365V45.801V42.4095ZM67.3166 43.2779L67.7281 43.6186V44.5101C67.7281 44.7898 67.7244 45.056 67.7171 45.31C67.7098 45.5555 67.7 45.757 67.6866 45.9195C67.6732 46.1063 67.6414 46.2687 67.5926 46.408C67.5376 46.5631 67.4607 46.6901 67.3642 46.7865C67.2678 46.883 67.1505 46.9575 67.0126 47.0113C66.8856 47.0601 66.739 47.0931 66.5742 47.109C66.4289 47.1224 66.2665 47.1334 66.0882 47.1395C65.8953 47.1468 65.7012 47.1517 65.5046 47.1517H64.5412V44.5174L64.6498 44.4442C64.938 44.2475 65.253 44.0289 65.5949 43.7883C65.9673 43.5258 66.33 43.2669 66.6914 43.008L66.8441 42.8981L67.3166 43.2779Z" fill="#86170C"/>
<path d="M65.4156 61.1536L64.4949 58.3215C64.2043 58.5218 63.9418 58.7001 63.7134 58.8527V61.1536H61.8818V52.1871H63.7134V56.8071C64.0895 56.536 64.5315 56.1855 65.0395 55.7568V52.1871H66.8491V56.4762C66.6134 56.696 66.3546 56.9207 66.0737 57.1515L67.3863 61.1536H65.4156ZM72.4586 53.4389L71.5318 53.3998V59.8456L72.4586 59.8627V61.1536H69.036L68.4914 59.9885L69.6929 59.9018V53.3998L69.036 53.4328L68.4914 52.1932L72.4586 52.1871V53.4389ZM77.6481 52.1871H79.4809V61.1536H77.6481V56.63L76.322 54.8714V61.1536H74.5136V52.1749L76.2842 52.181L76.3293 52.2298L77.6481 53.9774V52.1871ZM84.2649 58.2055L83.7204 56.9671L86.5239 56.961V61.1536H83.7814C83.3211 61.1536 82.923 61.0608 82.597 60.8776C82.2698 60.6944 82.0182 60.4477 81.8424 60.1387C81.6678 59.831 81.5799 59.489 81.5799 59.1129V54.2266C81.5799 53.8504 81.6678 53.5097 81.8424 53.1995C82.0182 52.8917 82.2698 52.6463 82.597 52.4631C82.923 52.2787 83.3211 52.1871 83.7814 52.1871H86.5239L86.3041 55.6774L84.8388 55.5724V53.7381H84.7155C84.4225 53.7381 84.1856 53.7503 84.0012 53.7759C83.818 53.8016 83.6837 53.8504 83.5983 53.9237C83.5128 53.9958 83.4615 54.1008 83.4444 54.24C83.4273 54.3768 83.4188 54.5575 83.4188 54.7847V58.3447C83.4224 58.8833 83.5189 59.235 83.7069 59.4023C83.8913 59.5598 84.2063 59.6392 84.6533 59.6392H84.6899V58.1871L84.2649 58.2055ZM93.9821 54.2266V59.1129C93.9821 59.489 93.8942 59.831 93.7196 60.1387C93.5437 60.4477 93.2922 60.6944 92.9637 60.8776C92.6328 61.0608 92.2372 61.1536 91.7744 61.1536H88.7474V52.1871H91.7744C92.2372 52.1871 92.6328 52.2787 92.9637 52.4631C93.2922 52.6463 93.5437 52.8917 93.7196 53.1995C93.8942 53.5097 93.9821 53.8517 93.9821 54.2266ZM90.5851 59.6392C90.7036 59.6429 90.8098 59.6453 90.9063 59.6453C91.3397 59.6453 91.7402 59.6001 91.8868 59.5134C92.0577 59.4121 92.1432 59.1409 92.1432 58.6952V54.6455C92.1432 54.1985 92.0577 53.9249 91.8868 53.8248C91.7402 53.7381 91.3397 53.6953 90.9063 53.6953C90.8098 53.6953 90.7036 53.6966 90.5851 53.7014V59.6392ZM100.798 53.5329C100.815 53.5903 100.83 53.6734 100.844 53.7784C100.86 53.8846 100.869 53.9726 100.869 54.0385V59.2631C100.869 59.6392 100.781 59.9812 100.606 60.2865C100.43 60.593 100.179 60.8397 99.8517 61.0205C99.5232 61.2049 99.1264 61.2965 98.6587 61.2965H98.0384C97.5781 61.2965 97.18 61.2049 96.8516 61.0205C96.5207 60.8397 96.2703 60.593 96.0982 60.2865C95.9248 59.9812 95.8369 59.6392 95.8369 59.2631V54.0751C95.8369 53.7014 95.9248 53.3595 96.0982 53.0542C96.2703 52.7464 96.5207 52.5009 96.8516 52.3178C97.18 52.1333 97.5781 52.0417 98.0384 52.0417H98.6587C99.2387 52.0417 99.7137 52.181 100.08 52.4582C100.445 52.7354 100.687 53.0945 100.798 53.5329ZM99.0275 55.0644C99.0275 54.6736 99.0165 54.367 98.9982 54.1521C98.9762 53.9347 98.9188 53.782 98.8248 53.6966C98.7308 53.6111 98.5732 53.5695 98.3522 53.5695C98.1312 53.5695 97.9725 53.6111 97.8773 53.6966C97.7808 53.782 97.7234 53.9347 97.7014 54.1521C97.6807 54.367 97.6721 54.6736 97.6721 55.0644V58.2738C97.6721 58.6671 97.6807 58.97 97.7014 59.1886C97.7234 59.406 97.7808 59.555 97.8748 59.6404C97.9688 59.7284 98.1263 59.7711 98.3522 59.7711C98.5769 59.7711 98.7369 59.7284 98.8309 59.6404C98.9249 59.555 98.9811 59.406 98.9994 59.1886C99.0189 58.97 99.0275 58.6671 99.0275 58.2738V55.0644ZM108.697 52.1871H110.938V61.1536H109.099V54.0715L107.909 55.3782V61.1536H106.071V55.3782L104.881 54.0715V61.1536H103.05V52.1871H105.283L106.989 53.87L108.697 52.1871Z" fill="#FCC900"/>
<path d="M64.7609 58.2346L65.6181 60.8725H67.0003L65.7475 57.0561L65.8782 56.9486H63.9929C63.8073 57.0866 63.6193 57.2209 63.4337 57.3565V56.9486H62.1613V60.8725H63.4337V58.7048L63.9245 58.3738L64.6449 57.878L64.7609 58.2346ZM71.2521 56.9486H69.9736V60.1618L68.9162 60.2387L69.2129 60.8725H72.1788V60.1373L71.2521 60.119V56.9486ZM76.0422 56.9486H74.7931V60.8725H76.0422V56.9486ZM79.1999 56.9486H77.9288V60.8725H79.1999V56.9486ZM83.139 56.9486H81.8606V59.1127C81.8606 59.2812 81.8789 59.4375 81.9155 59.5829C81.9534 59.7282 82.0095 59.8674 82.0852 60.0005C82.1585 60.1312 82.2501 60.2497 82.3575 60.3547C82.465 60.4597 82.5895 60.5526 82.7336 60.6332C83.0169 60.7931 83.3686 60.8725 83.7813 60.8725H86.2429V57.2405L84.1476 57.2454L84.4431 57.9183L84.9694 57.8939V59.9187H84.6531C84.4077 59.9187 84.194 59.8955 84.0133 59.8503C83.813 59.8003 83.6506 59.7221 83.5248 59.6134L83.5224 59.611C83.3869 59.4901 83.2867 59.3154 83.2245 59.0858C83.1707 58.8855 83.1414 58.6388 83.1402 58.3457L83.139 56.9486ZM90.3054 56.9486H89.0269V60.8725H91.7743C91.9855 60.8725 92.1797 60.8518 92.3555 60.8115C92.5289 60.7712 92.6864 60.7125 92.828 60.6332C92.9697 60.5538 93.0955 60.461 93.2041 60.3547C93.3116 60.2497 93.4032 60.1324 93.4764 60.0018C93.5521 59.8674 93.6083 59.7282 93.6462 59.5829C93.6828 59.4375 93.7023 59.2812 93.7023 59.1127V56.9486H92.4239V58.695C92.4239 58.9454 92.397 59.153 92.3457 59.3166C92.2822 59.5206 92.176 59.6659 92.0295 59.7526C91.9257 59.8149 91.7584 59.8589 91.5594 59.8857C91.3677 59.9126 91.1393 59.9248 90.9061 59.9248C90.7046 59.9212 90.5056 59.9151 90.3054 59.9077V56.9486ZM97.3911 56.9486H96.1176V59.2629C96.1176 59.4278 96.1359 59.5841 96.1737 59.7306C96.2116 59.8796 96.2678 60.0189 96.341 60.1483H96.3422C96.4155 60.2802 96.5046 60.3975 96.6096 60.5C96.7171 60.6051 96.8429 60.6967 96.9857 60.7748L96.9869 60.776C97.1286 60.8554 97.2849 60.914 97.4571 60.9543C97.6329 60.9959 97.827 61.0154 98.0383 61.0154H98.6586C98.8723 61.0154 99.0676 60.9959 99.2447 60.9543C99.4181 60.9153 99.5756 60.8554 99.716 60.776C99.8577 60.6979 99.9822 60.6051 100.091 60.5C100.197 60.3962 100.289 60.279 100.363 60.1483C100.439 60.014 100.495 59.876 100.533 59.7319C100.57 59.5865 100.588 59.4302 100.588 59.2629V56.9486H99.3069V58.2737C99.3069 58.4508 99.3045 58.6266 99.2996 58.8037C99.2947 58.9722 99.2874 59.109 99.2789 59.2116C99.2667 59.3435 99.2422 59.4607 99.2044 59.5609C99.1604 59.6794 99.0994 59.7758 99.0188 59.8479C98.9382 59.9212 98.8356 59.9761 98.7135 60.0091C98.6085 60.0372 98.4888 60.0518 98.3521 60.0518C98.2153 60.0518 98.0944 60.0372 97.9907 60.0091C97.8686 59.9761 97.7672 59.9224 97.6866 59.8479C97.606 59.7746 97.5438 59.6806 97.4998 59.5633C97.4619 59.4644 97.4363 59.3484 97.4241 59.2153C97.4119 59.0993 97.4046 58.9637 97.3997 58.8049C97.3936 58.6291 97.3911 58.4532 97.3911 58.2737V56.9486ZM104.601 56.9486H103.329V60.8725H104.601V56.9486ZM107.63 56.9486H106.351V60.8725H107.63V56.9486ZM110.657 56.9486H109.378V60.8725H110.657V56.9486Z" fill="#DE9600"/>
</svg>
