<svg width="116" height="80" viewBox="0 0 116 80" fill="none" xmlns="http://www.w3.org/2000/svg">
<g opacity="0.5">
<path d="M52.3868 30.2128L52.3661 30.203C52.2049 30.1298 52.0425 30.0577 51.8776 29.9856L51.8386 29.9685L51.758 29.9344L51.7262 29.9209L51.7189 29.9173L51.6786 29.9002L51.6383 29.8843L51.6334 29.8818L51.598 29.8672L51.5577 29.8501L51.5406 29.8428L51.5174 29.833L51.4771 29.8159L51.4466 29.8037L51.4356 29.8L51.3953 29.7829L51.355 29.7658L51.3514 29.7646L51.3135 29.7499L51.2732 29.7328L51.2561 29.7267L51.2317 29.717L51.1914 29.6999L51.1609 29.6877L51.1499 29.684L51.1084 29.6669L51.0669 29.651L51.0656 29.6498L51.0253 29.6339L50.9838 29.618L50.9692 29.6119L50.9423 29.601L50.9008 29.5851L50.8715 29.5741L50.8581 29.5692L50.8165 29.5533L50.775 29.5362C50.8617 27.3428 50.8532 25.1275 49.1571 23.2931C49.8226 21.2206 50.8202 19.6721 52.6176 18.3226C41.8235 17.7633 34.3763 10.1731 32.9782 4.95466C31.5789 10.1731 24.1317 17.7633 13.3376 18.3226C15.1349 19.6721 16.1325 21.2206 16.798 23.2931C15.102 25.1275 15.0934 27.3428 15.1801 29.5362C9.60846 31.6722 6.45571 34.7742 2.88046 39.9047C4.45928 38.9009 4.78531 38.7909 6.6291 38.3269C5.99171 39.1903 5.48375 40.447 5.27739 41.3983C5.72185 41.104 6.10771 40.988 6.62787 40.8634C4.67907 46.5606 5.46177 53.3325 8.05284 58.5656C8.20059 57.5874 8.45091 56.7533 8.91857 56.0217C10.3985 61.2878 12.9114 65.6392 16.6527 70.0003C16.7211 68.8572 16.7211 67.3086 16.7883 66.1655C20.5772 70.5425 23.1194 72.2071 28.8181 75.2065L28.8828 75.2517L28.9475 75.2969L29.0134 75.3421L29.0781 75.3885L29.1429 75.4337L29.2076 75.4789L29.2735 75.5253L29.3382 75.5705L29.4029 75.6169L29.4677 75.6621L29.5324 75.7073L29.5983 75.7537L29.663 75.7989L29.7277 75.844L29.7925 75.8892L29.8584 75.9356L29.9231 75.9808L29.9878 76.0272L30.0525 76.0724L30.1173 76.1176L30.1832 76.164L30.2479 76.2092L30.3126 76.2544L30.3773 76.3008L30.4433 76.346L30.508 76.3912L30.5727 76.4363L30.6374 76.4828L30.7034 76.5279L30.7681 76.5744L30.8328 76.6195L30.8975 76.6647L30.9635 76.7111L31.0282 76.7563L31.0929 76.8015L31.1576 76.8479L31.2223 76.8931L31.2883 76.9383L31.353 76.9847L31.4177 77.0299L31.4824 77.0751L31.5483 77.1215L31.6131 77.1667L31.6778 77.2119L31.7425 77.2583L31.8084 77.3035L31.8731 77.3486L31.9379 77.395L32.0026 77.4402L32.0673 77.4854L32.1332 77.5318L32.1979 77.577L32.2627 77.6222L32.3274 77.6686L32.3921 77.7138L32.458 77.759L32.5227 77.8054L32.5875 77.8506L32.6522 77.8958L32.7181 77.9422L32.7828 77.9874L32.8475 78.0325L32.9123 78.0789L32.9782 78.1241L33.0429 78.0789L33.1076 78.0325L33.1723 77.9874L33.2371 77.9422L33.303 77.8958L33.3677 77.8506L33.4324 77.8054L33.4971 77.759L33.5631 77.7138L33.6278 77.6686L33.6925 77.6222L33.7572 77.577L33.8232 77.5318L33.8879 77.4854L33.9526 77.4402L34.0173 77.395L34.082 77.3486L34.148 77.3035L34.2127 77.2583L34.2774 77.2119L34.3421 77.1667L34.408 77.1215L34.4728 77.0751L34.5375 77.0299L34.6022 76.9847L34.6669 76.9383L34.7328 76.8931L34.7976 76.8479L34.8623 76.8015L34.927 76.7563L34.9929 76.7111L35.0576 76.6647L35.1224 76.6195L35.1871 76.5744L35.253 76.5279L35.3177 76.4828L35.3824 76.4363L35.4472 76.3912L35.5119 76.346L35.5778 76.3008L35.6425 76.2544L35.7072 76.2092L35.772 76.164L35.8379 76.1176L35.9026 76.0724L35.9673 76.0272L36.032 75.9808L36.0968 75.9356L36.1627 75.8892L36.2274 75.844L36.2921 75.7989L36.3568 75.7537L36.4228 75.7073L36.4875 75.6621L36.5522 75.6169L36.6169 75.5705L36.6829 75.5253L36.7476 75.4789L36.8123 75.4337L36.877 75.3885L36.9417 75.3421L37.0077 75.2969L37.0724 75.2517L37.1371 75.2065C42.8358 72.2071 45.378 70.5425 49.1669 66.1655C49.2341 67.3086 49.2341 68.8572 49.3024 70.0003L49.3611 69.9307L49.3843 69.905L49.4197 69.8623L49.4648 69.8098L49.4783 69.7939L49.5369 69.7243L49.5454 69.7145L49.5955 69.6559L49.626 69.6193L49.6529 69.5875L49.7054 69.524L49.7103 69.5179L49.7677 69.4495L49.786 69.4287L49.8251 69.3811L49.8641 69.3335L49.8824 69.3115L49.9398 69.2431L49.9435 69.2382L49.996 69.1747L50.0216 69.143L50.0522 69.1051L50.0546 69.1039L50.1645 68.9683L50.1767 68.9525L50.2207 68.8987L50.2768 68.8303L50.3318 68.7619V68.7607L50.3867 68.6923L50.5516 68.4859L50.5589 68.4762L50.6603 68.3479L50.7091 68.2857L50.714 68.2783L50.7689 68.2099L50.8752 68.0719L50.9289 68.0023L50.9325 67.9987L50.9814 67.9339L51.0351 67.8643L51.0779 67.8069L51.0876 67.7947C51.1755 67.6799 51.2622 67.5651 51.3477 67.4491L51.366 67.4247L51.399 67.3795L51.4381 67.3282L51.4503 67.3099C51.5174 67.2207 51.5834 67.1303 51.6493 67.04L51.6542 67.0326C52.4198 65.9787 53.117 64.9113 53.7495 63.8219H114.256V32.3928H56.1574C55.0206 31.5721 53.7837 30.8515 52.3868 30.2128ZM65.4155 61.1535L64.4948 58.3214C64.2042 58.5229 63.9416 58.7 63.7133 58.8538V61.1535H61.8817V52.187H63.7133V56.807C64.0894 56.5359 64.5314 56.1854 65.0394 55.7567V52.187H66.849V56.476C66.6133 56.6959 66.3544 56.9206 66.0736 57.1514L67.3862 61.1535H65.4155ZM72.4585 53.4388L71.5317 53.4009V59.8455L72.4585 59.8626V61.1535H69.0359L68.4913 59.9896L69.6928 59.9017V53.4009L69.0359 53.4327L68.4913 52.1931L72.4585 52.187V53.4388ZM77.648 52.187H79.4808V61.1535H77.648V56.6299L76.3219 54.8725V61.1535H74.5135V52.1748L76.284 52.1809L76.328 52.2297L77.648 53.9773V52.187ZM84.2636 58.2054L83.7203 56.967L86.5238 56.9609V61.1535H83.7813C83.321 61.1535 82.9229 61.0619 82.5969 60.8775C82.2696 60.6943 82.0181 60.4488 81.8423 60.1386C81.6677 59.8309 81.5797 59.4889 81.5797 59.114V54.2265C81.5797 53.8516 81.6677 53.5096 81.8423 53.1994C82.0181 52.8916 82.2696 52.6462 82.5969 52.463C82.9229 52.2786 83.321 52.187 83.7813 52.187H86.5238L86.304 55.6773L84.8387 55.5723V53.738H84.7154C84.4224 53.738 84.1855 53.7502 84.0011 53.7758C83.8179 53.8015 83.6836 53.8516 83.5982 53.9236C83.5127 53.9957 83.4614 54.1007 83.4443 54.2399C83.4272 54.3767 83.4186 54.5574 83.4186 54.7846V58.3446C83.4223 58.8831 83.5188 59.2349 83.7068 59.4022C83.89 59.5597 84.2062 59.6391 84.6531 59.6391H84.6885V58.187L84.2636 58.2054ZM93.982 54.2265V59.114C93.982 59.4889 93.8941 59.8309 93.7195 60.1386C93.5436 60.4488 93.2921 60.6943 92.9636 60.8775C92.6327 61.0619 92.2371 61.1535 91.7743 61.1535H88.7473V52.187H91.7743C92.2371 52.187 92.6327 52.2786 92.9636 52.463C93.2921 52.6462 93.5436 52.8916 93.7195 53.1994C93.8941 53.5096 93.982 53.8516 93.982 54.2265ZM90.585 59.6391C90.7035 59.6428 90.8097 59.6452 90.9061 59.6452C91.3396 59.6452 91.7401 59.6 91.8867 59.5133C92.0576 59.4132 92.1431 59.1408 92.1431 58.6951V54.6454C92.1431 54.1996 92.0576 53.926 91.8867 53.8259C91.7401 53.738 91.3396 53.6952 90.9061 53.6952C90.8097 53.6952 90.7035 53.6977 90.585 53.7013V59.6391ZM100.798 53.5328C100.815 53.5902 100.83 53.6732 100.844 53.7783C100.86 53.8857 100.869 53.9725 100.869 54.0384V59.263C100.869 59.6391 100.781 59.9811 100.606 60.2864C100.43 60.5941 100.179 60.8396 99.8516 61.0204C99.5231 61.2048 99.1251 61.2964 98.6586 61.2964H98.0383C97.578 61.2964 97.1799 61.2048 96.8514 61.0204C96.5205 60.8396 96.2702 60.5941 96.0981 60.2864C95.9247 59.9811 95.8368 59.6391 95.8368 59.263V54.075C95.8368 53.7013 95.9247 53.3594 96.0981 53.0541C96.2702 52.7463 96.5205 52.5008 96.8514 52.3176C97.1799 52.1332 97.578 52.0416 98.0383 52.0416H98.6586C99.2386 52.0416 99.7124 52.1809 100.08 52.4581C100.445 52.7365 100.687 53.0944 100.798 53.5328ZM99.0274 55.0643C99.0274 54.6735 99.0164 54.3681 98.9981 54.152C98.9761 53.9346 98.9187 53.7832 98.8247 53.6977C98.7307 53.6122 98.5731 53.5694 98.3521 53.5694C98.1311 53.5694 97.9724 53.6122 97.8759 53.6977C97.7807 53.7832 97.7221 53.9346 97.7013 54.152C97.6805 54.3681 97.672 54.6735 97.672 55.0643V58.2737C97.672 58.667 97.6805 58.9711 97.7013 59.1885C97.7221 59.4058 97.7807 59.5561 97.8747 59.6416C97.9687 59.7283 98.1262 59.771 98.3521 59.771C98.5768 59.771 98.7368 59.7283 98.8308 59.6416C98.9248 59.5561 98.981 59.4058 98.9993 59.1885C99.0188 58.9711 99.0274 58.667 99.0274 58.2737V55.0643ZM108.697 52.187H110.938V61.1535H109.099V54.0714L107.909 55.3781V61.1535H106.07V55.3781L104.881 54.0714V61.1535H103.05V52.187H105.283L106.989 53.8699L108.697 52.187ZM66.6768 35.0771C67.4119 35.0771 68.0395 35.2224 68.5609 35.5143C69.0859 35.8062 69.4864 36.1958 69.7636 36.683C70.042 37.1752 70.1812 37.7175 70.1812 38.3134V40.5068C69.8247 40.8463 69.4217 41.1919 68.9809 41.551C69.4217 41.9137 69.8247 42.2667 70.1812 42.6013V46.0697C70.1812 46.6656 70.042 47.2079 69.7636 47.6964C69.4864 48.1873 69.0859 48.5769 68.5609 48.8688C68.0395 49.1607 67.4119 49.306 66.6768 49.306H61.8817V35.0771H66.6768ZM64.789 37.4805V41.4118C65.6023 40.8634 66.501 40.182 67.4803 39.3649V39.2355L67.4693 38.7714C67.4558 38.1473 67.2971 37.7712 66.9955 37.6393C66.7415 37.5245 66.28 37.4695 65.6023 37.4695C65.4704 37.4695 65.3275 37.4732 65.1749 37.4805H64.789ZM67.4803 43.7334C67.2702 43.5575 67.0529 43.3817 66.8355 43.2083C66.0528 43.7713 65.3715 44.2524 64.789 44.6493V46.9026H65.5046C65.921 46.9026 66.2702 46.8891 66.551 46.8623C66.8331 46.8354 67.0456 46.7536 67.1884 46.6119C67.3313 46.469 67.4155 46.2321 67.4387 45.8999C67.4668 45.5677 67.4803 45.1061 67.4803 44.5101V43.7334ZM80.692 37.2131C80.7152 37.3034 80.7433 37.4366 80.7665 37.6027C80.7909 37.7712 80.8044 37.9116 80.8044 38.0154V46.3066C80.8044 46.9026 80.664 47.446 80.3868 47.9296C80.1096 48.4169 79.7091 48.8077 79.1914 49.096C78.6688 49.3866 78.0375 49.5332 77.2963 49.5332H76.3133C75.5832 49.5332 74.9519 49.3854 74.4293 49.096C73.9054 48.8065 73.5074 48.4169 73.2339 47.9296C72.9603 47.446 72.8199 46.9026 72.8199 46.3066V38.0741C72.8199 37.4805 72.9603 36.9383 73.2339 36.4534C73.5074 35.9662 73.9054 35.5754 74.4293 35.2835C74.9507 34.994 75.5819 34.8463 76.3133 34.8463H77.2963C78.2182 34.8463 78.9716 35.0661 79.554 35.507C80.1328 35.9466 80.5138 36.5194 80.692 37.2131ZM77.8824 39.6422C77.8824 39.023 77.8665 38.5369 77.836 38.195C77.803 37.8506 77.709 37.6088 77.5613 37.4732C77.4123 37.3389 77.1608 37.2705 76.8115 37.2705C76.4599 37.2705 76.2083 37.3376 76.0557 37.4732C75.9043 37.6088 75.8115 37.8506 75.7785 38.195C75.7456 38.5369 75.7309 39.023 75.7309 39.6422V44.7373C75.7309 45.3601 75.7456 45.8425 75.7785 46.1881C75.8115 46.5325 75.9055 46.7707 76.0533 46.9062C76.2022 47.0442 76.4525 47.1126 76.8115 47.1126C77.1681 47.1126 77.4221 47.0442 77.571 46.9062C77.7188 46.7707 77.8091 46.5325 77.8384 46.1881C77.869 45.8425 77.8824 45.3613 77.8824 44.7373V39.6422ZM91.2236 37.2131C91.2468 37.3022 91.2761 37.4366 91.2981 37.6027C91.3225 37.7712 91.336 37.9129 91.336 38.0154V46.3066C91.336 46.9014 91.1955 47.446 90.9196 47.9296C90.6412 48.4169 90.2407 48.8077 89.7229 49.096C89.2016 49.3866 88.5691 49.5332 87.8279 49.5332H86.8461C86.1147 49.5332 85.4835 49.3842 84.9608 49.096C84.4382 48.8065 84.0402 48.4169 83.7654 47.9296C83.4919 47.446 83.3515 46.9026 83.3515 46.3066V38.0741C83.3515 37.4805 83.4919 36.9371 83.7654 36.4534C84.0402 35.9662 84.437 35.5754 84.9608 35.2835C85.4822 34.994 86.1135 34.8463 86.8461 34.8463H87.8279C88.7498 34.8463 89.5044 35.0673 90.0856 35.507C90.6644 35.9466 91.0466 36.5194 91.2236 37.2131ZM88.4152 39.6422C88.4152 39.023 88.3981 38.5369 88.3676 38.195C88.3358 37.8506 88.2406 37.6075 88.0928 37.4732C87.9439 37.3389 87.6923 37.2705 87.3443 37.2705C86.9915 37.2705 86.7411 37.3376 86.5885 37.4732C86.4359 37.6088 86.3431 37.8506 86.3101 38.195C86.2771 38.5369 86.2625 39.0242 86.2625 39.6422V44.7373C86.2625 45.3589 86.2771 45.8425 86.3101 46.1881C86.3431 46.5325 86.4371 46.7707 86.5848 46.9062C86.7338 47.0442 86.9841 47.1126 87.3443 47.1126C87.6997 47.1126 87.9536 47.0442 88.1026 46.9062C88.2504 46.7707 88.3407 46.5325 88.37 46.1881C88.4005 45.8425 88.4152 45.3613 88.4152 44.7373V39.6422ZM101.153 40.6155L98.8283 40.4494V37.4805H98.7697C98.6134 37.4805 98.4657 37.4695 98.3326 37.4695C97.7099 37.4695 97.2715 37.5233 97.0212 37.6295C96.7721 37.7346 96.6365 38.0606 96.6146 38.6017C96.6121 38.6847 96.5999 38.7934 96.5975 38.9204C96.5963 39.045 96.5901 39.1732 96.5877 39.3002C96.5853 39.4284 96.584 39.5396 96.584 39.6263V39.7643L101.617 43.3682V46.0587C101.617 46.6522 101.476 47.1993 101.2 47.6854C100.924 48.1751 100.524 48.5684 100.004 48.859C99.4865 49.1485 98.8564 49.2962 98.1226 49.2962H93.8941V44.2219L96.2189 44.3917L96.5059 46.8928C96.7501 46.8928 96.9711 46.8965 97.1701 46.9026C97.3081 46.9075 97.4388 46.9136 97.5572 46.9136C97.8759 46.9136 98.1445 46.8916 98.3607 46.8488C98.5792 46.8061 98.7294 46.6608 98.8076 46.4214C98.8857 46.182 98.926 45.7815 98.926 45.2258V45.045L93.8941 41.3715V38.3134C93.8941 37.7175 94.0333 37.174 94.3068 36.683C94.5803 36.1958 94.9796 35.805 95.5034 35.5143C96.0248 35.2249 96.6561 35.0771 97.3875 35.0771H101.499L101.153 40.6155ZM110.939 35.0771V37.5379L108.614 37.301V46.7975V49.306H105.697V46.7975V37.2497L103.225 37.5379V35.0771H110.939ZM38.7208 16.2819C41.7246 18.0209 44.9408 18.965 48.3048 19.3692C46.3389 19.4144 44.5184 19.3765 41.2826 18.242C41.136 19.8956 39.9309 21.2536 39.081 22.0975C39.9211 20.0311 40.4254 18.3189 38.7208 16.2819ZM27.2209 16.2819C24.2184 18.0209 21.0021 18.965 17.6381 19.3692C19.604 19.4144 21.4246 19.3765 24.6604 18.242C24.8069 19.8956 26.0121 21.2536 26.8619 22.0975C26.0219 20.0311 25.5176 18.3189 27.2209 16.2819ZM33.8171 50.5358C33.5912 49.615 34.148 48.6612 35.5229 48.2924C34.2725 47.5682 31.6289 47.5682 30.3798 48.2924C31.7523 48.66 32.3091 49.6174 32.0856 50.537C32.6546 50.5529 33.2554 50.5517 33.8171 50.5358ZM37.6316 47.1126C38.0016 47.4045 38.3581 47.7233 38.7 48.064C38.788 47.5376 38.7513 46.9062 38.5608 46.1491C38.8441 46.1039 39.0529 46.0709 39.335 46.0257C37.8514 44.7446 35.7598 44.0558 32.9245 44.0912C30.0892 44.0558 28.0512 44.7446 26.5664 46.0257C26.8497 46.0709 27.0585 46.1039 27.3418 46.1491C27.1501 46.9087 27.1123 47.5413 27.1977 48.0689C27.5274 47.744 27.923 47.3862 28.271 47.1126C29.6972 45.9903 31.3212 45.2734 32.9782 45.2734C34.6156 45.2881 36.2201 46.0025 37.6316 47.1126ZM32.9782 75.1333L29.613 72.3683V67.4479L32.9782 64.6829L36.3422 67.4479V72.3683L32.9782 75.1333ZM57.5897 36.655C55.7313 34.4628 53.4211 32.9765 50.4319 32.5491C51.5919 34.4787 52.6542 36.4437 53.3148 38.5552C51.8276 41.1724 51.5968 43.5026 51.8569 45.9512C52.758 45.1696 53.8716 44.9229 55.1134 45.0011C50.0241 48.7564 50.703 54.886 45.4451 58.8111C45.5196 58.1663 45.4842 57.5324 45.3096 56.9108C43.9945 58.3788 42.4181 59.6281 40.5597 60.643C39.6439 62.0951 38.3777 63.4214 36.8282 64.6463C37.4045 65.2239 37.9821 65.8004 38.5584 66.3768C38.5584 67.5651 38.5584 68.7522 38.5584 69.9392C43.9579 67.4466 47.8469 63.2602 50.2622 57.4201C50.9496 59.368 51.0107 61.4307 50.703 63.5606C54.6812 58.5571 56.8009 53.048 56.4358 46.8672C57.5995 48.8554 57.5507 51.3089 57.5213 53.7551C59.0953 48.6111 58.5824 43.6198 55.8595 38.7922C56.3003 38.7922 56.8608 39.0462 57.2674 39.2843C56.8852 37.8933 56.1745 36.1897 55.1134 35.2969C56.0231 35.5802 56.8156 36.0993 57.5897 36.655ZM38.9955 35.5668C39.4827 35.5668 39.8784 35.1711 39.8784 34.6851C39.8784 34.4139 39.7563 34.1721 39.5658 34.0109C40.2166 33.9621 40.865 34.0622 41.5402 34.243C41.3949 34.7876 41.0738 35.1296 40.6159 35.5888C41.6123 35.253 42.5244 34.6961 43.3474 33.9083C42.7051 33.6336 42.064 33.3588 41.423 33.084C42.4218 32.7249 43.4219 32.3671 44.4219 32.0093C44.5635 32.8923 44.7052 33.7752 44.8468 34.6582C43.4426 36.3961 42.2924 38.1083 41.9969 39.7325C42.5317 39.5884 43.0006 39.3466 43.4219 39.0328C43.4084 40.1624 43.13 41.1993 42.3473 42.0566C41.4047 41.2445 40.252 40.7218 38.9479 40.4067C38.838 39.1366 38.3105 38.1315 37.0248 37.6075C36.9955 36.9676 36.8001 36.3826 36.4997 35.833C36.9735 35.9124 37.4363 35.9576 37.8844 35.9711C37.3996 35.8416 36.9967 35.5864 36.6462 35.2359C37.0736 34.8096 37.573 34.5373 38.1909 34.3236C38.142 34.4335 38.1139 34.5556 38.1139 34.6851C38.1139 35.1711 38.5096 35.5668 38.9955 35.5668ZM32.9513 41.8575C34.0845 41.8575 34.7707 39.8913 36.3239 40.3078C35.9344 40.5325 35.6364 40.8146 35.4252 41.1822C36.6926 41.1822 37.3666 40.5947 37.3666 39.9414C37.3666 39.2135 36.4411 38.5162 35.96 38.5162C35.6413 38.5162 35.4252 38.8996 35.2249 39.2318C35.4093 37.7358 35.2994 36.3545 34.4496 35.2578C34.4984 34.4359 34.3958 33.5945 34.1748 32.7091C36.3117 33.7117 38.4204 32.902 40.5231 31.7333C35.8086 31.1055 30.0941 31.1055 25.3796 31.7333C27.4822 32.902 29.591 33.7117 31.7266 32.7091C31.5068 33.5945 31.4043 34.4359 31.4519 35.2578C30.6032 36.3545 30.4933 37.7358 30.6777 39.2318C30.4775 38.8996 30.2601 38.5162 29.9414 38.5162C29.4603 38.5162 28.536 39.2135 28.536 39.9414C28.536 40.5947 29.21 41.1822 30.4775 41.1822C30.265 40.8146 29.9683 40.5325 29.5776 40.3078C31.132 39.8913 31.8182 41.8575 32.9513 41.8575ZM32.9782 9.7933C31.4409 16.4248 24.172 15.6297 28.1404 23.5789C26.2612 22.8413 24.9363 21.3538 24.0254 19.3106C21.6761 20.1117 19.2951 20.5392 16.8249 19.9408C17.7211 20.8408 18.6381 21.7116 19.1241 23.2296C18.5795 23.9453 18.3781 24.7757 18.3976 25.6783C20.1523 25.2301 21.8886 25.0774 23.6017 25.329C21.6456 25.6172 18.8103 26.7249 17.8078 27.6933C17.8078 28.6838 17.8738 29.5448 17.8542 31.0677C24.7397 28.2942 41.1653 28.2966 48.0484 31.0677C48.0289 29.5448 48.0948 28.6838 48.0948 27.6933C47.0911 26.7249 44.2571 25.6172 42.2997 25.329C44.0141 25.0774 45.7504 25.2301 47.5038 25.6783C47.5234 24.7757 47.3231 23.9453 46.7773 23.2296C47.2633 21.7116 48.1815 20.8408 49.0778 19.9408C46.6076 20.5392 44.2253 20.1117 41.8772 19.3106C40.9651 21.3538 39.6415 22.8413 37.7623 23.5789C41.7307 15.6297 34.5143 16.4248 32.9782 9.7933ZM32.9782 22.0926L30.9818 20.4513V17.5312L32.9782 15.8898L34.9746 17.5312V20.4513L32.9782 22.0926ZM8.31293 36.655C10.1701 34.4628 12.4816 32.9765 15.4707 32.5491C14.3107 34.4787 13.2484 36.4437 12.5866 38.5552C14.0739 41.1724 14.3059 43.5026 14.0458 45.9512C13.1434 45.1696 12.0298 44.9229 10.7892 45.0011C15.8773 48.7564 15.1984 54.886 20.4575 58.8111C20.383 58.1663 20.4184 57.5324 20.5931 56.9108C21.9081 58.3788 23.4845 59.6281 25.3429 60.643C26.2587 62.0951 27.525 63.4214 29.0745 64.6463C28.4969 65.2239 27.9206 65.8004 27.3443 66.3768C27.3443 67.5651 27.3443 68.7522 27.3443 69.9392C21.9435 67.4466 18.0545 63.2602 15.6405 57.4201C14.953 59.368 14.8907 61.4307 15.1997 63.5606C11.2215 58.5571 9.10173 53.048 9.4656 46.8672C8.30194 48.8554 8.35078 51.3089 8.38008 53.7551C6.80615 48.6111 7.32021 43.6198 10.0432 38.7922C9.60114 38.7922 9.04189 39.0462 8.63528 39.2843C9.01747 37.8933 9.72813 36.1897 10.7892 35.2969C9.87832 35.5802 9.08707 36.0993 8.31293 36.655ZM26.9059 35.5668C26.4187 35.5668 26.0243 35.1711 26.0243 34.6851C26.0243 34.4139 26.1452 34.1721 26.3369 34.0109C25.6861 33.9621 25.0377 34.0622 24.3612 34.243C24.5077 34.7876 24.8277 35.1296 25.2868 35.5888C24.2892 35.253 23.3771 34.6961 22.5553 33.9083C23.1963 33.6336 23.8386 33.3588 24.4797 33.084C23.4796 32.7249 22.4808 32.3671 21.4808 32.0093C21.3391 32.8923 21.1975 33.7752 21.0558 34.6582C22.46 36.3961 23.6103 38.1083 23.9045 39.7325C23.3709 39.5884 22.9021 39.3466 22.4808 39.0328C22.4942 40.1624 22.7726 41.1993 23.5553 42.0566C24.4968 41.2445 25.6494 40.7218 26.9535 40.4067C27.0634 39.1366 27.5921 38.1315 28.8779 37.6075C28.9072 36.9676 29.1026 36.3826 29.4029 35.833C28.928 35.9124 28.4664 35.9576 28.0171 35.9711C28.5018 35.8416 28.906 35.5864 29.2552 35.2359C28.8291 34.8096 28.3296 34.5373 27.7106 34.3236C27.7606 34.4335 27.7887 34.5556 27.7887 34.6851C27.7887 35.1711 27.3931 35.5668 26.9059 35.5668ZM32.9513 63.9038C29.3443 61.725 26.4797 58.6755 24.9534 54.0543C24.7581 55.3219 24.8667 56.5554 25.078 57.7791C22.228 55.7702 20.3623 53.2434 19.2304 50.3294C19.0802 51.2466 18.9312 52.1625 18.781 53.0797C16.9104 49.7176 15.5025 45.884 17.356 38.7067C16.8481 39.3564 16.3401 40.0073 15.8322 40.657C15.5562 39.9646 15.2815 39.2733 15.0067 38.5821C15.9567 36.6159 16.9067 34.6496 17.8567 32.6834C18.339 32.6834 18.8225 32.6834 19.3061 32.6834C18.8701 34.7522 19.0985 36.5377 20.88 37.6576C20.615 39.7899 20.9313 41.7427 22.4307 43.3316C21.5235 44.653 21.1315 46.1503 21.355 47.8564C22.5016 44.4674 24.802 43.0141 27.354 41.9821C28.1367 42.4352 29.1648 42.539 30.4018 42.2068C31.0575 42.8626 31.9146 42.9823 32.9513 42.9823C33.9868 42.9823 34.8452 42.8626 35.4997 42.2068C36.7366 42.539 37.7647 42.4352 38.5486 41.9821C41.1006 43.0141 43.3999 44.4674 44.5464 47.8564C44.7711 46.1503 44.3792 44.653 43.4719 43.3316C44.9714 41.7427 45.2876 39.7899 45.0227 37.6576C46.8042 36.5377 47.0325 34.7522 46.5966 32.6834C47.0801 32.6834 47.5624 32.6834 48.046 32.6834C48.996 34.6496 49.9459 36.6159 50.8947 38.5821C50.62 39.2733 50.3452 39.9646 50.0705 40.657C49.5625 40.0073 49.0546 39.3564 48.5466 38.7067C50.4002 45.884 48.9911 49.7176 47.1216 53.0797C46.9715 52.1625 46.8213 51.2466 46.6711 50.3294C45.5404 53.2434 43.6734 55.7702 40.8235 57.7791C41.0359 56.5554 41.1446 55.3219 40.9492 54.0543C39.4217 58.6755 36.5583 61.725 32.9513 63.9038ZM56.3357 30.6488H116V65.5659H54.4907C53.3368 67.421 52.001 69.2114 50.4685 70.9981L47.9947 73.8815L47.77 70.0907L47.7603 69.9111C46.7798 70.8613 45.8163 71.6771 44.776 72.4404C42.8992 73.8192 40.8088 75.0063 37.943 76.517L32.9782 80L28.0122 76.517C25.1464 75.0063 23.0559 73.8192 21.1792 72.4404C20.1388 71.6771 19.1754 70.8613 18.1949 69.9111L18.1851 70.0907L17.9605 73.8815L15.4866 70.9981C13.5537 68.7448 11.9321 66.4843 10.5975 64.0955C10.0883 63.1844 9.62189 62.2563 9.19697 61.3061L8.84775 63.629L6.67672 59.2446C5.26152 56.3869 4.35305 53.1041 4.08564 49.7713C3.92691 47.8075 3.9904 45.8205 4.30299 43.8873L2.97815 44.7641L3.75474 41.17L0 42.8126C2.01352 38.2695 3.3176 35.8904 7.27259 32.444C9.10417 30.8466 11.1336 29.568 13.6184 28.5104C13.6111 27.6738 13.6501 26.8323 13.8113 25.9909C14.0116 24.9553 14.3877 23.9489 15.0641 23.0012C14.8309 22.4175 14.5562 21.8887 14.224 21.4026C13.76 20.7224 13.1739 20.1166 12.4181 19.5487L9.03335 17.0085L13.2594 16.7899C17.7529 16.5579 21.6273 15.0215 24.6579 12.9588C30.834 8.75523 31.4543 5.68497 32.9782 0C34.5008 5.68497 35.1211 8.75523 41.2972 12.9588C44.3279 15.0215 48.2023 16.5579 52.6957 16.7899L56.9218 17.0085L53.5371 19.5487C52.7812 20.1166 52.1951 20.7224 51.7311 21.4026C51.399 21.8887 51.1243 22.4175 50.891 23.0012C51.5675 23.9489 51.9448 24.9553 52.1438 25.9909C52.305 26.8323 52.3441 27.6738 52.3368 28.5104C53.813 29.1381 55.1269 29.8452 56.3357 30.6488Z" fill="#A3A9B6"/>
</g>
</svg>
