<svg width="51" height="51" viewBox="0 0 51 51" fill="none" xmlns="http://www.w3.org/2000/svg">
<path d="M37.5106 18.3399C34.7491 18.3399 32.5106 20.5784 32.5106 23.3398C32.5106 26.1012 34.7491 28.3397 37.5106 28.3397C40.272 28.3397 42.5105 26.1012 42.5105 23.3398C42.5078 20.5796 40.2708 18.3427 37.5106 18.3399ZM37.5106 26.6731C35.6696 26.6731 34.1773 25.1807 34.1773 23.3398C34.1773 21.4989 35.6696 20.0065 37.5106 20.0065C39.3515 20.0065 40.8438 21.4989 40.8438 23.3398C40.8438 25.1807 39.3515 26.6731 37.5106 26.6731Z" fill="#FFD53E"/>
<path d="M20.0109 33.3222C18.6302 31.4813 16.0185 31.1082 14.1776 32.4889C12.3367 33.8696 11.9636 36.4813 13.3443 38.3222C13.5812 38.638 13.8618 38.9186 14.1776 39.1555V45.0063C14.1776 45.4665 14.5508 45.8396 15.011 45.8396H18.3442C18.8044 45.8396 19.1776 45.4665 19.1776 45.0063V39.1555C21.0185 37.7748 21.3916 35.1631 20.0109 33.3222ZM17.9276 37.9905C17.6703 38.139 17.5115 38.4134 17.5109 38.7105V44.1729H15.8443V38.7105C15.8437 38.4134 15.6849 38.139 15.4276 37.9905C14.6545 37.5505 14.1772 36.7293 14.1776 35.8397C14.1776 34.459 15.2969 33.3397 16.6776 33.3397C18.0583 33.3397 19.1776 34.459 19.1776 35.8397C19.178 36.7293 18.7007 37.5505 17.9276 37.9905Z" fill="#FFD53E"/>
<path d="M49.8676 10.0058C49.5155 9.00624 48.5702 8.33823 47.5104 8.34031C46.1329 8.33771 45.0142 9.45228 45.0116 10.8298C45.0096 11.8895 45.6775 12.8348 46.6771 13.1869V22.5068H46.6346C46.2276 18.1075 42.7431 14.623 38.3439 14.2161V11.5203C39.6456 11.0601 40.3278 9.63165 39.8675 8.33C39.4072 7.02835 37.9789 6.34607 36.6772 6.80638C35.3755 7.26658 34.6933 8.695 35.1536 9.99665C35.4053 10.7086 35.9654 11.2686 36.6772 11.5203V14.2161C31.6356 14.6758 27.9212 19.1354 28.3808 24.177C28.4879 25.3521 28.8209 26.4954 29.3615 27.5442C29.3018 27.5247 29.2399 27.512 29.1773 27.5067H26.6774V24.1734C26.6774 23.8918 26.6582 23.616 26.6349 23.3401H26.6774V3.34038H37.6639C38.1241 4.64213 39.5525 5.32431 40.8542 4.864C42.1558 4.4037 42.8381 2.97538 42.3778 1.67373C41.9176 0.371977 40.4892 -0.310202 39.1875 0.150105C38.4755 0.401768 37.9155 0.961865 37.6639 1.67373H25.844C25.3838 1.67373 25.0107 2.04685 25.0107 2.50705V18.6577C23.3215 16.1081 20.5585 14.4718 17.5108 14.2161V2.50695C17.5108 2.04675 17.1377 1.67363 16.6775 1.67363H4.85763C4.39743 0.371873 2.96901 -0.310202 1.66736 0.150001C0.36571 0.610203 -0.316573 2.03852 0.14363 3.34027C0.603832 4.64203 2.03225 5.32421 3.33401 4.864C4.04598 4.61234 4.60597 4.05224 4.85763 3.34038H15.8442V14.2161C14.3751 14.3376 12.9516 14.7854 11.6775 15.5269V12.3536C12.9793 11.8934 13.6615 10.465 13.2012 9.16332C12.7409 7.86167 11.3126 7.17939 10.0109 7.6397C8.70915 8.0998 8.02697 9.52811 8.48727 10.8299C8.73894 11.5418 9.29904 12.1018 10.0109 12.3535V16.7409C8.32842 18.2475 7.20646 20.2801 6.82844 22.5067H4.85763C4.39743 21.2049 2.96901 20.5228 1.66736 20.9831C0.36571 21.4434 -0.316573 22.8717 0.143734 24.1733C0.603937 25.4751 2.03236 26.1573 3.33401 25.697C4.04598 25.4453 4.60597 24.8852 4.85763 24.1733H6.67761V27.5066H4.17764C3.71744 27.5066 3.34432 27.8798 3.34432 28.34V49.173C3.34432 49.6332 3.71744 50.0063 4.17764 50.0063H29.1773C29.6375 50.0063 30.0106 49.6332 30.0106 49.173V28.6216C31.0475 30.0955 32.4972 31.2297 34.1773 31.8816V49.173C34.1773 49.6332 34.5504 50.0063 35.0106 50.0063H45.8438C46.304 50.0063 46.6771 49.6332 46.6771 49.173V45.8397C46.6771 45.3795 46.304 45.0064 45.8438 45.0064H40.8438V43.3398H43.3438C43.804 43.3398 44.1771 42.9666 44.1771 42.5064V39.1731C44.1771 38.7129 43.804 38.3398 43.3438 38.3398H40.8438V31.8816C44.0861 30.6264 46.3326 27.6368 46.6363 24.1733H47.5104C47.9706 24.1733 48.3437 23.8002 48.3437 23.34V13.1868C49.643 12.7292 50.3253 11.305 49.8676 10.0058ZM40.0105 1.67363C40.4707 1.67363 40.8438 2.04675 40.8438 2.50695C40.8438 2.96715 40.4707 3.34027 40.0105 3.34027C39.5503 3.34027 39.1772 2.96715 39.1772 2.50695C39.1772 2.04675 39.5503 1.67363 40.0105 1.67363ZM2.511 3.34027C2.05079 3.34027 1.67767 2.96715 1.67767 2.50695C1.67767 2.04675 2.05079 1.67363 2.511 1.67363C2.9712 1.67363 3.34432 2.04675 3.34432 2.50695C3.34432 2.96715 2.9712 3.34027 2.511 3.34027ZM2.511 24.1733C2.05079 24.1733 1.67767 23.8002 1.67767 23.34C1.67767 22.8798 2.05079 22.5067 2.511 22.5067C2.9712 22.5067 3.34432 22.8798 3.34432 23.34C3.34432 23.8002 2.9712 24.1733 2.511 24.1733ZM10.8442 9.17353C11.3044 9.17353 11.6775 9.54665 11.6775 10.0069C11.6775 10.4671 11.3044 10.8402 10.8442 10.8402C10.384 10.8402 10.0109 10.4671 10.0109 10.0069C10.0109 9.54665 10.384 9.17353 10.8442 9.17353ZM8.34426 24.1733C8.34426 19.571 12.0751 15.8401 16.6775 15.8401C21.2798 15.8401 25.0107 19.571 25.0107 24.1733V27.5066H22.5107V24.1733C22.5107 20.9517 19.8991 18.3401 16.6775 18.3401C13.4559 18.3401 10.8442 20.9517 10.8442 24.1733V27.5066H8.34426V24.1733ZM20.8441 24.1733V27.5066H12.5109V24.1733C12.5109 21.8722 14.3764 20.0067 16.6775 20.0067C18.9786 20.0067 20.8441 21.8722 20.8441 24.1733ZM28.344 48.3397H5.01096V29.1733H28.344V48.3397ZM37.5106 8.34021C37.9708 8.34021 38.3439 8.71333 38.3439 9.17353C38.3439 9.63373 37.9708 10.0069 37.5106 10.0069C37.0504 10.0069 36.6772 9.63373 36.6772 9.17353C36.6772 8.71333 37.0504 8.34021 37.5106 8.34021ZM44.665 25.5913C43.9297 27.9293 42.0985 29.7606 39.7605 30.4959C39.4133 30.605 39.1772 30.9269 39.1772 31.2909V39.1733C39.1772 39.6335 39.5503 40.0066 40.0105 40.0066H42.5105V41.6732H40.0105C39.5503 41.6732 39.1772 42.0463 39.1772 42.5065V45.8398C39.1772 46.3 39.5503 46.6732 40.0105 46.6732H45.0105V48.3398H35.8439V31.2908C35.8439 30.9268 35.6078 30.6049 35.2606 30.4958C31.3093 29.2532 29.1135 25.0426 30.3561 21.0913C31.5986 17.14 35.8092 14.9442 39.7605 16.1868C43.7118 17.4295 45.9076 21.64 44.665 25.5913ZM47.5104 11.6735C47.0502 11.6735 46.6771 11.3004 46.6771 10.8402C46.6771 10.38 47.0502 10.0069 47.5104 10.0069C47.9706 10.0069 48.3437 10.38 48.3437 10.8402C48.3437 11.3004 47.9706 11.6735 47.5104 11.6735Z" fill="#FFD53E"/>
<path d="M31.6774 5.00671C31.4564 5.00671 31.2445 5.09463 31.0882 5.25088L28.5883 7.75085C28.432 7.90709 28.3441 8.11897 28.3441 8.34V14.1733H30.0108V8.685L32.0224 6.67336H33.3441V5.00671H31.6774Z" fill="#FFD53E"/>
<path d="M20.8443 0.00680542H19.1776V10.0067H20.8443V0.00680542Z" fill="#FFD53E"/>
<path d="M5.53199 14.3558L1.67788 11.2733V6.67337H0.0112305V11.6733C0.0111264 11.9264 0.126125 12.1659 0.323727 12.3241L4.17784 15.4066V19.1732H5.84449V15.0066C5.84459 14.7535 5.7296 14.514 5.53199 14.3558Z" fill="#FFD53E"/>
<path d="M49.1772 0.00680542H44.1772V1.67345H48.3439V6.67339H50.0105V0.840128C50.0105 0.379926 49.6374 0.00680542 49.1772 0.00680542Z" fill="#FFD53E"/>
</svg>
