<svg width="50" height="50" viewBox="0 0 50 50" fill="none" xmlns="http://www.w3.org/2000/svg">
<path d="M25 0C11.193 0 0 11.193 0 25C0 38.807 11.193 50 25 50C38.807 50 50 38.807 50 25C49.9845 11.1995 38.8005 0.0154623 25 0ZM25 48.3333C12.1134 48.3333 1.66667 37.8866 1.66667 25C1.66667 12.1134 12.1134 1.66667 25 1.66667C37.8866 1.66667 48.3333 12.1134 48.3333 25C48.3187 37.8805 37.8805 48.3187 25 48.3333Z" fill="#FFD53E"/>
<path d="M44.1419 24.0751V23.975C44.1244 23.7085 44.1069 23.4407 44.0808 23.184C44.0552 22.9276 44.0284 22.6632 43.9974 22.4182C43.9694 22.2034 43.9409 21.9885 43.9043 21.8351C43.8684 21.5849 43.8208 21.335 43.7675 21.0718L43.7427 20.9599C43.6992 20.7617 43.6532 20.5583 43.606 20.3768C43.4774 19.8498 43.3126 19.2932 43.1059 18.6983C43.0502 18.5217 42.9859 18.3549 42.9285 18.2084C42.8451 17.9818 42.7568 17.7559 42.6608 17.5415C42.5375 17.2502 42.4109 16.969 42.2836 16.7082C42.1668 16.4583 42.0411 16.2142 41.9157 15.99C41.6114 15.4069 41.2732 14.8413 40.9042 14.2965L40.8875 14.2733V14.2692C40.8716 14.246 40.8549 14.224 40.8383 14.2C40.7243 14.0332 40.6084 13.8668 40.4899 13.7077L40.3736 13.5474C40.2124 13.324 40.0399 13.1083 39.8092 12.8341C39.7714 12.7917 39.736 12.747 39.7034 12.7002C39.5724 12.5443 39.4332 12.3865 39.2867 12.2209C39.2367 12.1667 39.1826 12.1142 39.1325 12.0609L40.5949 10.5981L39.4165 9.42016L37.9533 10.8834C37.8874 10.8207 37.8276 10.7593 37.76 10.6974C37.6115 10.5668 37.4634 10.435 37.2783 10.2808C37.2608 10.2681 37.2425 10.2551 37.2185 10.236C37.194 10.2165 37.1652 10.1916 37.1232 10.1526C36.9076 9.97232 36.6915 9.80183 36.484 9.6525L36.4718 9.64314L36.305 9.52229C36.1117 9.3815 35.92 9.24234 35.7219 9.11091C35.1811 8.74389 34.6196 8.40819 34.041 8.10505C33.7985 7.97077 33.5559 7.84423 33.3277 7.73843C33.0449 7.59765 32.7625 7.47435 32.4825 7.35513C32.2559 7.25504 32.0293 7.1643 31.7977 7.08088C31.639 7.01985 31.4799 6.95922 31.3343 6.91405C30.715 6.70002 30.1583 6.53482 29.6477 6.41397C29.4324 6.35741 29.2098 6.30899 28.9274 6.24755C28.6776 6.19506 28.4274 6.14908 28.2308 6.12344C28.0249 6.07828 27.819 6.05102 27.5932 6.02172C27.3434 5.98672 27.0834 5.96068 26.8185 5.93342C26.5532 5.90575 26.2907 5.8907 25.975 5.8732C25.3435 5.83902 24.7107 5.83902 24.0792 5.8732H23.9852C23.7175 5.8907 23.4493 5.90819 23.1832 5.93423C22.9175 5.95987 22.6652 5.98672 22.3942 6.02416C22.1892 6.05102 21.9833 6.07828 21.836 6.11246C21.5857 6.14908 21.3359 6.19587 21.014 6.2626C20.7984 6.31102 20.5758 6.35904 20.376 6.41234C19.8499 6.53848 19.2924 6.70328 18.6967 6.91242C18.5299 6.96573 18.3692 7.02676 18.206 7.08902C17.9794 7.17243 17.7527 7.26155 17.5391 7.35757C17.2465 7.48087 16.9642 7.60741 16.7058 7.73518C16.4559 7.85074 16.2126 7.97769 15.9868 8.10261C15.8985 8.149 15.8126 8.20149 15.7251 8.24909C15.236 8.51602 14.7535 8.80329 14.2949 9.11417H14.2835L14.1923 9.17927C14.0259 9.29035 13.8644 9.40429 13.7077 9.52147L13.5458 9.63988C13.4335 9.7233 13.3224 9.80671 13.2076 9.89501C13.0925 9.98331 12.9708 10.0867 12.8365 10.2002C12.8199 10.2165 12.8016 10.2319 12.7824 10.2458L12.699 10.31C12.5509 10.4342 12.4024 10.566 12.2201 10.7267C11.7025 11.2016 11.2 11.7033 10.7198 12.2266C10.5799 12.3832 10.4407 12.5407 10.2832 12.7315C10.243 12.7873 10.1986 12.8398 10.151 12.889C9.97156 13.1051 9.80107 13.3207 9.65092 13.5274L9.64319 13.5368V13.5425L9.52519 13.704C9.3844 13.8985 9.24402 14.091 9.10852 14.2875C8.7415 14.8275 8.4058 15.3882 8.10266 15.9668C7.96838 16.2093 7.84265 16.4518 7.73604 16.6817C7.59485 16.9641 7.47156 17.2449 7.35152 17.5268C7.25264 17.7535 7.16191 17.9793 7.08826 18.1848C7.02356 18.3516 6.95927 18.5185 6.91085 18.6751C6.69845 19.2916 6.53324 19.8474 6.41077 20.3625C6.3599 20.5591 6.31433 20.7625 6.27079 20.9607L6.24434 21.0791C6.19023 21.3293 6.14506 21.5841 6.12024 21.7765C6.07263 21.9926 6.04415 22.2074 6.01689 22.4158C5.98271 22.666 5.95585 22.9285 5.93347 23.1868C5.91069 23.4448 5.88993 23.7126 5.87162 24.034C5.85331 24.3559 5.83337 24.6765 5.83337 25C5.83337 25.3235 5.84151 25.6466 5.85819 25.9249V26.025C5.87569 26.2915 5.89319 26.5592 5.91923 26.816C5.94486 27.0723 5.97172 27.3368 6.00264 27.5818C6.03072 27.7966 6.0592 28.0115 6.09583 28.1649C6.13163 28.4151 6.17924 28.6649 6.23254 28.9282L6.25736 29.0401C6.3009 29.2383 6.34688 29.4417 6.39408 29.6232C6.52266 30.1501 6.68746 30.7068 6.89417 31.3017C6.94991 31.4783 7.0142 31.6451 7.07157 31.7916C7.15499 32.0182 7.24329 32.244 7.33931 32.4585C7.46261 32.7498 7.58915 33.031 7.71651 33.2918C7.83329 33.5417 7.95902 33.7858 8.08516 34.0116C8.18079 34.196 8.28577 34.3876 8.39075 34.5707L8.80741 35.2966L15.315 31.5466L14.8951 30.8333C12.8109 27.2237 12.8109 22.7763 14.8951 19.1667C15.9221 17.3946 17.3947 15.922 19.1667 14.895C22.7869 12.8507 27.2132 12.8507 30.8334 14.895C31.4694 15.2722 32.0679 15.7096 32.6209 16.2008L27.295 21.5267C25.5054 20.3422 23.11 20.7056 21.7522 22.3673C20.3943 24.0291 20.516 26.4494 22.0333 27.9667C23.5507 29.484 25.9709 29.6057 27.6327 28.2479C29.2945 26.89 29.6578 24.4946 28.4733 22.7051L33.7993 17.3791C37.072 21.121 37.5973 26.532 35.105 30.8333L34.6884 31.5568L41.1959 35.3068L41.6126 34.5809C41.7176 34.3974 41.8225 34.2057 41.91 34.0385C42.0443 33.796 42.17 33.5535 42.2766 33.3232C42.4174 33.0408 42.5407 32.76 42.6608 32.4784C42.76 32.2518 42.8508 32.0259 42.924 31.8201C42.9891 31.6532 43.0534 31.4868 43.1018 31.3301C43.3142 30.7133 43.479 30.1575 43.6015 29.6423C43.6524 29.4458 43.6984 29.2423 43.7419 29.0442L43.7683 28.9258C43.8225 28.6759 43.8676 28.4208 43.8925 28.2283C43.9401 28.0127 43.9685 27.7974 43.9958 27.5891C44.03 27.3393 44.0568 27.0768 44.0792 26.8184C44.1016 26.56 44.1224 26.2923 44.1411 25.9709C44.1594 25.649 44.1667 25.3235 44.1667 25C44.1667 24.6765 44.1586 24.3534 44.1419 24.0751ZM41.9849 20.7751C42.0309 20.9534 42.0683 21.1377 42.1119 21.3175L42.135 21.425C42.181 21.639 42.2185 21.8534 42.2608 22.1277C42.2974 22.2941 42.3186 22.4609 42.3442 22.6391C42.3767 22.8699 42.3999 23.1091 42.4276 23.3508C42.441 23.479 42.4508 23.6092 42.4602 23.7341C42.4683 23.8407 42.4752 23.9433 42.4817 24.0332V24.1207V24.1667H38.3057C38.1971 22.393 37.7332 20.6592 36.9418 19.0682L40.5559 16.9849C40.6307 17.1265 40.706 17.264 40.7801 17.4235C40.905 17.6733 41.0149 17.9232 41.1284 18.1942C41.2118 18.385 41.2883 18.575 41.3652 18.7858C41.4169 18.9201 41.4694 19.0523 41.521 19.2143C41.7159 19.779 41.8669 20.2869 41.9849 20.7751ZM26.6533 7.5834C26.8917 7.60741 27.131 7.63101 27.391 7.66682C27.5525 7.68839 27.7124 7.70832 27.9326 7.7543C28.1466 7.78401 28.3619 7.82348 28.6316 7.88085C28.8274 7.92398 29.0284 7.96915 29.2375 8.02245C29.7107 8.1376 30.2177 8.28734 30.8094 8.49161C30.9416 8.5323 31.0673 8.58235 31.2342 8.64664C31.425 8.715 31.615 8.79149 31.8177 8.87979C32.076 8.98925 32.3275 9.0983 32.6001 9.23502C32.7385 9.29931 32.8776 9.3758 33.0168 9.44823L30.9335 13.064C29.3392 12.2835 27.6054 11.829 25.8334 11.7265V7.52156H25.9168C26.1666 7.53905 26.4116 7.55492 26.6533 7.5834ZM18.8066 8.63077C18.9327 8.58235 19.0568 8.5323 19.2135 8.48428C19.7823 8.28734 20.2893 8.1376 20.7768 8.0192C20.9717 7.96915 21.1727 7.92398 21.4234 7.86905C21.6382 7.82348 21.8535 7.78563 22.1257 7.74332C22.2876 7.70832 22.4484 7.68839 22.6392 7.6599C22.8691 7.62816 23.1084 7.60497 23.3476 7.58096C23.5869 7.55655 23.8375 7.54068 24.0332 7.52685H24.1667V11.7309C22.3959 11.8319 20.6629 12.2851 19.0691 13.064L16.9857 9.44905C17.1277 9.37418 17.2649 9.29931 17.4252 9.22403C17.675 9.0983 17.9248 8.98925 18.1967 8.87572C18.385 8.78742 18.5751 8.71093 18.8066 8.6267V8.63077ZM7.65995 22.6318C7.68152 22.465 7.70268 22.2982 7.74988 22.0675C7.7808 21.8534 7.81905 21.639 7.8634 21.4315L7.88822 21.3175C7.92851 21.1377 7.97164 20.9534 8.01843 20.7625C8.13318 20.2869 8.28414 19.779 8.48678 19.1923C8.53072 19.0515 8.58321 18.9193 8.64262 18.765C8.71179 18.5742 8.78748 18.3842 8.87496 18.1815C8.98523 17.9232 9.09509 17.6725 9.231 17.3991C9.29488 17.2607 9.37179 17.1208 9.44421 16.9824L13.0583 19.0657C12.2669 20.6575 11.803 22.3922 11.6944 24.1667H7.52079C7.52079 24.1382 7.52079 24.1134 7.52079 24.0832C7.53666 23.8334 7.55253 23.5884 7.57654 23.3476C7.60095 23.1067 7.62659 22.8699 7.65995 22.6318ZM9.44421 33.0159C9.36934 32.8743 9.29407 32.7368 9.22001 32.5773C9.09509 32.3275 8.98523 32.0776 8.8717 31.8066C8.78829 31.6158 8.71179 31.4258 8.63489 31.215C8.58321 31.0807 8.53072 30.9485 8.47904 30.7865C8.28414 30.2209 8.13318 29.7131 8.01518 29.2248C7.9692 29.0466 7.93176 28.8623 7.88822 28.6824L7.86503 28.575C7.81905 28.361 7.78162 28.1466 7.7393 27.8723C7.70268 27.7059 7.68152 27.5391 7.65588 27.3608C7.62333 27.1301 7.60014 26.8909 7.57247 26.6492C7.55904 26.521 7.54928 26.3908 7.53992 26.2659C7.53178 26.1593 7.52486 26.0567 7.51835 25.9668V25.8834C7.51835 25.8675 7.51835 25.8524 7.51835 25.8374H11.7111C11.8124 27.6099 12.2685 29.3437 13.0526 30.9367L9.44421 33.0159ZM13.8941 17.6257L10.2767 15.5424C10.3475 15.4325 10.4135 15.3206 10.4875 15.2091L10.5091 15.1798C10.6584 14.9626 10.8086 14.7457 10.9851 14.5133C11.1235 14.3209 11.27 14.1357 11.3709 14.0133C11.447 13.9351 11.5174 13.8517 11.5817 13.7634C11.7009 13.6202 11.8319 13.4766 11.9475 13.3468C12.3881 12.8666 12.8557 12.3991 13.3509 11.9442C13.4876 11.8241 13.6235 11.7033 13.7224 11.619L13.8607 11.5116C13.8925 11.486 13.9226 11.4579 13.951 11.4282C14.135 11.274 14.3193 11.1283 14.5284 10.9774C14.76 10.8024 14.9919 10.6441 15.2177 10.4866C15.3219 10.4158 15.4391 10.3593 15.5449 10.2909L17.6282 13.8993C16.1495 14.8824 14.8804 16.1491 13.8941 17.6257ZM32.3743 13.894L34.4576 10.2767C34.5642 10.345 34.6733 10.4093 34.7783 10.4809C35.0082 10.6392 35.2393 10.7983 35.4859 10.9859C35.6775 11.1226 35.861 11.2683 35.9933 11.3757C36.0368 11.4176 36.0824 11.4591 36.1259 11.4933C36.1691 11.5275 36.2094 11.5592 36.2382 11.5808C36.3741 11.6951 36.51 11.816 36.6594 11.9466C36.696 11.9808 36.731 12.0166 36.7684 12.0508L33.8151 15.0041C33.3606 14.6016 32.8793 14.2309 32.3743 13.894ZM27.5 25C27.5 26.3806 26.3807 27.5 25 27.5C23.6194 27.5 22.5 26.3806 22.5 25C22.5 23.6194 23.6194 22.5 25 22.5C25.3711 22.5016 25.7373 22.5871 26.071 22.7498L25.4261 23.3952C25.2873 23.3557 25.1441 23.3349 25 23.3333C24.0796 23.3333 23.3334 24.0796 23.3334 25C23.3334 25.9204 24.0796 26.6667 25 26.6667C25.9205 26.6667 26.6667 25.9204 26.6667 25C26.6647 24.8559 26.6439 24.7127 26.604 24.574L27.2494 23.929C27.4126 24.2627 27.4984 24.6285 27.5 25ZM35 16.1824L37.9533 13.2292C37.9843 13.2633 38.0176 13.2959 38.0485 13.3293C38.1759 13.4725 38.3033 13.6157 38.396 13.7252C38.4518 13.8041 38.5132 13.879 38.58 13.949C38.7334 14.1333 38.879 14.3168 39.03 14.5259L39.041 14.5418C39.2074 14.7632 39.3624 14.9849 39.5223 15.2177C39.5944 15.3227 39.6501 15.4382 39.7185 15.5456L36.1101 17.629C35.7736 17.122 35.4029 16.6386 35 16.1824ZM42.3442 27.3682C42.3226 27.535 42.3019 27.7018 42.2543 27.9325C42.2233 28.1466 42.1851 28.361 42.1407 28.5685L42.1159 28.6824C42.076 28.8623 42.0325 29.0466 41.9857 29.2375C41.871 29.7131 41.72 30.2209 41.5174 30.8077C41.4734 30.9485 41.4209 31.0807 41.3615 31.2349C41.2924 31.4258 41.2167 31.6158 41.1292 31.8184C41.0193 32.0768 40.9091 32.3275 40.7736 32.6009C40.7093 32.7401 40.6324 32.8784 40.5599 33.0176L36.9475 30.9342C37.7303 29.3404 38.1849 27.6058 38.285 25.8333H42.4793V25.9167C42.4634 26.1666 42.4475 26.4115 42.4235 26.6524C42.3991 26.8933 42.3735 27.1301 42.3401 27.3682H42.3442Z" fill="#FFD53E"/>
<path d="M15.8334 39.1667H34.1667V34.1667H15.8334V39.1667ZM17.5 35.8333H32.5V37.5H17.5V35.8333Z" fill="#FFD53E"/>
</svg>
