<svg width="51" height="51" viewBox="0 0 51 51" fill="none" xmlns="http://www.w3.org/2000/svg">
<path d="M10.0416 39.2083H5.04165C4.82063 39.2083 4.60867 39.2961 4.45239 39.4524C4.29611 39.6087 4.20831 39.8207 4.20831 40.0417V45.0417C4.20829 45.1788 4.24213 45.3139 4.30682 45.4348C4.37151 45.5558 4.46505 45.6589 4.57915 45.735L7.07915 47.4017C7.21609 47.493 7.37702 47.5418 7.54165 47.5418C7.70627 47.5418 7.8672 47.493 8.00415 47.4017L10.5041 45.735C10.6182 45.6589 10.7118 45.5558 10.7765 45.4348C10.8412 45.3139 10.875 45.1788 10.875 45.0417V40.0417C10.875 39.8207 10.7872 39.6087 10.6309 39.4524C10.4746 39.2961 10.2627 39.2083 10.0416 39.2083ZM9.20831 44.5958L7.54165 45.7083L5.87498 44.5958V40.875H9.20831V44.5958Z" fill="#FFD53E"/>
<path d="M39.3908 26.1648C38.4664 25.8648 37.4821 25.7974 36.5254 25.9686C35.5686 26.1399 34.6689 26.5444 33.9058 27.1465C33.2187 27.6914 32.664 28.3849 32.2833 29.175C31.9027 29.9651 31.7061 30.8311 31.7083 31.7081C31.7083 31.9291 31.7961 32.1411 31.9524 32.2974C32.1087 32.4537 32.3207 32.5415 32.5417 32.5415H35.875C36.096 32.5415 36.308 32.4537 36.4643 32.2974C36.6205 32.1411 36.7083 31.9291 36.7083 31.7081C36.7082 31.5827 36.7364 31.4589 36.7908 31.346C36.8452 31.233 36.9244 31.1337 37.0225 31.0556C37.1289 30.9709 37.2541 30.9131 37.3876 30.8871C37.521 30.8612 37.6588 30.8678 37.7892 30.9065C37.9294 30.9457 38.0562 31.0226 38.1557 31.1289C38.2553 31.2351 38.324 31.3665 38.3542 31.509C38.3948 31.683 38.3793 31.8655 38.3099 32.0301C38.2404 32.1948 38.1205 32.3333 37.9675 32.4256C37.0739 32.9468 36.3332 33.6938 35.8196 34.5918C35.3061 35.4898 35.0378 36.507 35.0417 37.5414C35.0459 37.8698 35.1147 38.194 35.2442 38.4957C35.3738 38.7974 35.5615 39.0706 35.7966 39.2998C36.0317 39.529 36.3097 39.7096 36.6146 39.8313C36.9195 39.9531 37.2455 40.0136 37.5738 40.0094C37.9021 40.0051 38.2263 39.9363 38.528 39.8068C38.8297 39.6773 39.103 39.4896 39.3321 39.2544C39.5613 39.0193 39.7419 38.7414 39.8637 38.4364C39.9854 38.1315 40.0459 37.8056 40.0417 37.4773C40.0511 37.3185 40.1015 37.1649 40.188 37.0315C40.2745 36.898 40.394 36.7892 40.535 36.7156C41.7063 36.0046 42.5933 34.9079 43.0436 33.6138C43.4939 32.3198 43.4794 30.9093 43.0025 29.6248C42.7019 28.8122 42.2205 28.0785 41.5949 27.4791C40.9692 26.8797 40.2156 26.4303 39.3908 26.1648ZM39.6792 35.2856C39.2819 35.5129 38.9519 35.8414 38.7229 36.2376C38.4938 36.6339 38.3738 37.0837 38.375 37.5414C38.375 37.7625 38.2872 37.9744 38.1309 38.1307C37.9746 38.287 37.7627 38.3748 37.5417 38.3748C37.4274 38.3726 37.3147 38.3474 37.2104 38.3007C37.106 38.254 37.0122 38.1868 36.9344 38.103C36.8566 38.0193 36.7965 37.9207 36.7577 37.8132C36.7188 37.7057 36.702 37.5914 36.7083 37.4773C36.7143 36.7416 36.9126 36.0202 37.2836 35.3848C37.6547 34.7495 38.1855 34.2223 38.8233 33.8556C39.2731 33.5873 39.6276 33.1849 39.8368 32.7048C40.0461 32.2247 40.0996 31.6911 39.99 31.179C39.8981 30.7273 39.6809 30.3107 39.3631 29.9768C39.0453 29.643 38.6399 29.4055 38.1933 29.2915C37.9779 29.2365 37.7565 29.2085 37.5342 29.2081C37.0185 29.2104 36.516 29.3716 36.0953 29.6699C35.6746 29.9681 35.3561 30.3889 35.1833 30.8748H33.4583C33.6524 29.9162 34.1789 29.057 34.945 28.449C35.4935 28.0173 36.1403 27.7278 36.8277 27.6064C37.515 27.485 38.2218 27.5354 38.885 27.7531C39.4676 27.9404 40.0001 28.2576 40.4423 28.6807C40.8844 29.1038 41.2247 29.6218 41.4375 30.1956C41.7821 31.1161 41.7951 32.128 41.4741 33.057C41.1532 33.986 40.5185 34.7741 39.6792 35.2856Z" fill="#FFD53E"/>
<path d="M37.5417 40.875C37.0472 40.875 36.5639 41.0216 36.1528 41.2963C35.7416 41.571 35.4212 41.9615 35.232 42.4183C35.0428 42.8751 34.9933 43.3778 35.0897 43.8627C35.1862 44.3477 35.4243 44.7931 35.7739 45.1428C36.1236 45.4924 36.569 45.7305 37.054 45.827C37.5389 45.9234 38.0416 45.8739 38.4984 45.6847C38.9552 45.4955 39.3457 45.1751 39.6204 44.7639C39.8951 44.3528 40.0417 43.8695 40.0417 43.375C40.0417 42.712 39.7783 42.0761 39.3095 41.6072C38.8406 41.1384 38.2047 40.875 37.5417 40.875ZM37.5417 44.2083C37.3769 44.2083 37.2158 44.1595 37.0787 44.0679C36.9417 43.9763 36.8349 43.8462 36.7718 43.6939C36.7087 43.5416 36.6922 43.3741 36.7244 43.2124C36.7565 43.0508 36.8359 42.9023 36.9524 42.7857C37.069 42.6692 37.2175 42.5898 37.3791 42.5577C37.5408 42.5255 37.7083 42.542 37.8606 42.6051C38.0129 42.6682 38.143 42.775 38.2346 42.912C38.3262 43.0491 38.375 43.2102 38.375 43.375C38.375 43.596 38.2872 43.808 38.1309 43.9643C37.9747 44.1205 37.7627 44.2083 37.5417 44.2083Z" fill="#FFD53E"/>
<path d="M37.5417 22.5417C34.589 22.5464 31.7215 23.5308 29.3884 25.3405C27.0554 27.1502 25.3888 29.683 24.65 32.5417H21.9833L19.2083 30.4583V28.5083C20.8335 27.7907 22.1899 26.5772 23.0833 25.0417H25.875C26.9801 25.0417 28.0399 24.6027 28.8213 23.8213C29.6027 23.0399 30.0417 21.9801 30.0417 20.875V5.04167C30.0417 3.9366 29.6027 2.87679 28.8213 2.09539C28.0399 1.31399 26.9801 0.875 25.875 0.875H5.875C4.76993 0.875 3.71012 1.31399 2.92872 2.09539C2.14732 2.87679 1.70833 3.9366 1.70833 5.04167V18.375C1.70833 18.596 1.79613 18.808 1.95241 18.9643C2.10869 19.1205 2.32065 19.2083 2.54167 19.2083H5.04167C5.04365 19.8708 5.30767 20.5055 5.77609 20.9739C6.2445 21.4423 6.87923 21.7064 7.54167 21.7083H7.58333C7.73405 23.1792 8.27247 24.5837 9.1436 25.7784C10.0147 26.9731 11.1873 27.9151 12.5417 28.5083V30.4583L9.76667 32.5417H5.04167C3.9366 32.5417 2.87679 32.9807 2.09539 33.7621C1.31399 34.5435 0.875 35.6033 0.875 36.7083V48.375C0.876978 49.0374 1.14101 49.6722 1.60942 50.1406C2.07783 50.609 2.71257 50.873 3.375 50.875H28.375C29.0374 50.873 29.6722 50.609 30.1406 50.1406C30.609 49.6722 30.873 49.0374 30.875 48.375V47.4083C32.6453 48.432 34.6275 49.0345 36.668 49.1693C38.7085 49.3041 40.7527 48.9676 42.6424 48.1858C44.532 47.4039 46.2164 46.1978 47.5651 44.6606C48.9139 43.1235 49.8908 41.2966 50.4204 39.3214C50.9499 37.3462 51.0179 35.2756 50.6189 33.2699C50.22 31.2642 49.3649 29.3772 48.1198 27.755C46.8747 26.1327 45.273 24.8187 43.4387 23.9147C41.6044 23.0107 39.5866 22.5409 37.5417 22.5417ZM28.375 20.875C28.373 21.5374 28.109 22.1722 27.6406 22.6406C27.1722 23.109 26.5374 23.373 25.875 23.375H23.825C23.9947 22.8324 24.1092 22.274 24.1667 21.7083H24.2083C24.8708 21.7064 25.5055 21.4423 25.9739 20.9739C26.4423 20.5055 26.7064 19.8708 26.7083 19.2083H28.375V20.875ZM24.2083 20.0417V17.5417C24.4293 17.5417 24.6413 17.6295 24.7976 17.7857C24.9539 17.942 25.0417 18.154 25.0417 18.375V19.2083C25.0417 19.4293 24.9539 19.6413 24.7976 19.7976C24.6413 19.9539 24.4293 20.0417 24.2083 20.0417ZM5.19167 17.5417H3.375V5.04167C3.37698 4.37923 3.64101 3.7445 4.10942 3.27609C4.57783 2.80767 5.21257 2.54365 5.875 2.54167H25.875C26.5374 2.54365 27.1722 2.80767 27.6406 3.27609C28.109 3.7445 28.373 4.37923 28.375 5.04167V17.5417H26.5583C26.3854 17.056 26.067 16.6355 25.6465 16.3373C25.226 16.0391 24.7238 15.8777 24.2083 15.875V15.6417C24.9772 15.1063 25.6058 14.3936 26.041 13.5639C26.4761 12.7342 26.705 11.8119 26.7083 10.875V5.04167C26.7083 4.82065 26.6205 4.60869 26.4643 4.45241C26.308 4.29613 26.096 4.20833 25.875 4.20833H12.5417C10.5535 4.21142 8.64763 5.00259 7.24177 6.40844C5.83592 7.8143 5.04475 9.72016 5.04167 11.7083V13.375C5.0427 13.9144 5.17438 14.4456 5.42545 14.9231C5.67651 15.4005 6.03949 15.8101 6.48333 16.1167C6.18462 16.2572 5.91668 16.4554 5.69498 16.7C5.47329 16.9446 5.30223 17.2306 5.19167 17.5417ZM7.54167 20.0417C7.32065 20.0417 7.10869 19.9539 6.95241 19.7976C6.79613 19.6413 6.70833 19.4293 6.70833 19.2083V18.375C6.70833 18.154 6.79613 17.942 6.95241 17.7857C7.10869 17.6295 7.32065 17.5417 7.54167 17.5417V20.0417ZM7.54167 14.2083V14.8083C7.28909 14.6637 7.07909 14.455 6.93279 14.2034C6.7865 13.9518 6.70908 13.6661 6.70833 13.375V11.7083C6.7101 10.1618 7.32525 8.67907 8.41883 7.58549C9.51241 6.49191 10.9951 5.87676 12.5417 5.875H25.0417V10.875C25.0397 11.8972 24.6597 12.8826 23.975 13.6417C23.8727 13.5282 23.7394 13.4472 23.5917 13.4083L18.8917 12.125C18.7186 12.0761 18.5343 12.0855 18.3671 12.1518C18.1999 12.2181 18.0592 12.3375 17.9667 12.4917C17.7256 12.9005 17.4088 13.2597 17.0333 13.55C16.4716 13.9669 15.8215 14.2492 15.1333 14.375C15.5696 13.5768 15.823 12.6915 15.875 11.7833C15.8854 11.6678 15.8716 11.5513 15.8345 11.4414C15.7973 11.3314 15.7376 11.2305 15.6591 11.145C15.5807 11.0595 15.4852 10.9913 15.3789 10.9448C15.2726 10.8983 15.1577 10.8745 15.0417 10.875H14.2083C14.0966 10.8753 13.9861 10.898 13.8833 10.9417L8.05 13.4417C7.89938 13.5055 7.77086 13.6122 7.68047 13.7485C7.59007 13.8848 7.5418 14.0448 7.54167 14.2083ZM9.20833 20.875V14.7583L14.0417 12.6917C13.9647 13.0365 13.814 13.3605 13.6 13.6417C13.4643 13.7764 13.3195 13.9017 13.1667 14.0167C12.9444 14.1373 12.7673 14.3268 12.6621 14.5568C12.5569 14.7867 12.5292 15.0446 12.5833 15.2917C12.6444 15.4681 12.7489 15.6262 12.8873 15.7515C13.0257 15.8767 13.1934 15.9651 13.375 16.0083C14.189 16.151 15.0236 16.1239 15.8267 15.9289C16.6297 15.7339 17.3838 15.3751 18.0417 14.875C18.4139 14.5917 18.7448 14.2579 19.025 13.8833L22.5417 14.8417V20.875C22.5421 21.7324 22.3751 22.5816 22.05 23.375H15.875V25.0417H21.075C20.2113 26.1182 19.0348 26.9002 17.7077 27.2796C16.3807 27.659 14.9686 27.6172 13.6664 27.16C12.3641 26.7027 11.2359 25.8526 10.4374 24.7268C9.63884 23.601 9.20941 22.2552 9.20833 20.875ZM13.875 31.5417C13.9778 31.4634 14.0614 31.3626 14.1191 31.2471C14.1769 31.1315 14.2074 31.0042 14.2083 30.875V29.0417C15.3083 29.2639 16.4417 29.2639 17.5417 29.0417V30.875C17.5426 31.0042 17.5731 31.1315 17.6309 31.2471C17.6886 31.3626 17.7722 31.4634 17.875 31.5417L20.1917 33.2833L15.875 35.75L11.5583 33.2833L13.875 31.5417ZM29.2083 48.375C29.2083 48.596 29.1205 48.808 28.9643 48.9643C28.808 49.1205 28.596 49.2083 28.375 49.2083H3.375C3.15399 49.2083 2.94202 49.1205 2.78574 48.9643C2.62946 48.808 2.54167 48.596 2.54167 48.375V36.7083C2.54365 36.0459 2.80767 35.4112 3.27609 34.9427C3.7445 34.4743 4.37923 34.2103 5.04167 34.2083H9.81667L15.4583 37.4333C15.5861 37.5031 15.7294 37.5396 15.875 37.5396C16.0206 37.5396 16.1639 37.5031 16.2917 37.4333L21.9333 34.2083H24.325C24.2524 34.761 24.2134 35.3176 24.2083 35.875C24.2041 38.5813 25.0333 41.2232 26.5833 43.4417L25.8917 46.525C25.86 46.6718 25.8682 46.8244 25.9155 46.9669C25.9628 47.1094 26.0474 47.2367 26.1606 47.3354C26.2738 47.4341 26.4113 47.5006 26.559 47.5281C26.7066 47.5556 26.8589 47.543 27 47.4917L29.2083 46.6583V48.375ZM37.5417 47.5417C34.8698 47.5507 32.2778 46.6317 30.2083 44.9417C30.0587 44.8238 29.8739 44.7592 29.6833 44.7583C29.584 44.7587 29.4854 44.7756 29.3917 44.8083L27.8583 45.3917L28.2917 43.4417C28.3174 43.325 28.3174 43.2042 28.2915 43.0875C28.2655 42.9709 28.2144 42.8614 28.1417 42.7667C26.666 40.7723 25.8712 38.356 25.875 35.875C25.875 33.5676 26.5592 31.3119 27.8412 29.3933C29.1231 27.4748 30.9452 25.9794 33.077 25.0964C35.2088 24.2134 37.5546 23.9823 39.8177 24.4325C42.0808 24.8827 44.1596 25.9938 45.7912 27.6254C47.4229 29.257 48.534 31.3358 48.9842 33.5989C49.4343 35.8621 49.2033 38.2078 48.3203 40.3396C47.4372 42.4714 45.9419 44.2935 44.0233 45.5755C42.1047 46.8574 39.8491 47.5417 37.5417 47.5417Z" fill="#FFD53E"/>
</svg>
